<svg width="76" height="79" viewBox="0 0 76 79" fill="none" xmlns="http://www.w3.org/2000/svg">
<rect width="76" height="79" rx="38" fill="#F7F6FF"/>
<path d="M35.9274 19.168L51.1316 23.918C51.5556 24.0503 51.9262 24.3148 52.1894 24.6727C52.4525 25.0307 52.5943 25.4633 52.5941 25.9076V29.5846H56.7607C57.3133 29.5846 57.8432 29.8041 58.2339 30.1948C58.6246 30.5855 58.8441 31.1154 58.8441 31.668V35.8346H31.7607V31.668C31.7607 31.1154 31.9802 30.5855 32.3709 30.1948C32.7616 29.8041 33.2915 29.5846 33.8441 29.5846H48.4274V27.4388L35.9274 23.5305L23.4274 27.4388V42.8638C23.4271 44.1393 23.7196 45.3978 24.2823 46.5424C24.8451 47.687 25.663 48.6872 26.6732 49.4659L27.067 49.7492L35.9274 55.7909L43.8066 50.418H33.8441C33.2915 50.418 32.7616 50.1985 32.3709 49.8078C31.9802 49.4171 31.7607 48.8872 31.7607 48.3346V40.0013H58.8441V48.3346C58.8441 48.8872 58.6246 49.4171 58.2339 49.8078C57.8432 50.1985 57.3133 50.418 56.7607 50.418L50.0524 50.4201C49.2462 51.4826 48.267 52.4201 47.1357 53.1909L35.9274 60.8346L24.7191 53.193C23.0368 52.046 21.6602 50.5055 20.7089 48.7053C19.7577 46.9051 19.2605 44.8999 19.2607 42.8638V25.9076C19.261 25.4637 19.403 25.0315 19.6661 24.674C19.9292 24.3165 20.2995 24.0523 20.7232 23.9201L35.9274 19.168Z" fill="#6241D4"/>
</svg>
