<svg width="44" height="45" viewBox="0 0 44 45" fill="none" xmlns="http://www.w3.org/2000/svg">
<rect width="44" height="44.6567" rx="3.28358" fill="#6241D4"/>
<path d="M24.6483 25.8122C24.7376 25.862 24.8398 25.8838 24.9417 25.8748C25.0436 25.8657 25.1404 25.8263 25.2195 25.7615L29.234 22.762C29.302 22.7112 29.3571 22.6452 29.3951 22.5694C29.4331 22.4935 29.4529 22.4098 29.4529 22.325C29.4529 22.2402 29.4331 22.1565 29.3951 22.0806C29.3571 22.0048 29.302 21.9388 29.234 21.888L25.2195 18.8885C25.1385 18.8278 25.0421 18.7909 24.9413 18.7819C24.8405 18.7729 24.7391 18.7922 24.6486 18.8375C24.5581 18.8829 24.482 18.9525 24.4288 19.0387C24.3756 19.1248 24.3475 19.2241 24.3475 19.3253V20.5797H18.9546C18.8099 20.5797 18.6712 20.6371 18.5689 20.7394C18.4666 20.8417 18.4092 20.9804 18.4092 21.125C18.4092 21.2697 18.4666 21.4084 18.5689 21.5107C18.6712 21.6129 18.8099 21.6704 18.9546 21.6704H24.8929C25.0375 21.6704 25.1762 21.6129 25.2785 21.5107C25.3808 21.4084 25.4382 21.2697 25.4382 21.125V20.4139L27.9963 22.3249L25.4385 24.2364V23.5247C25.4385 23.38 25.381 23.2413 25.2788 23.139C25.1765 23.0368 25.0378 22.9793 24.8931 22.9793H21.12C20.9753 22.9793 20.8366 23.0368 20.7343 23.139C20.632 23.2413 20.5746 23.38 20.5746 23.5247C20.5746 23.6693 20.632 23.808 20.7343 23.9103C20.8366 24.0126 20.9753 24.0701 21.12 24.0701H24.3472V25.3244C24.3467 25.4258 24.3746 25.5252 24.4278 25.6115C24.481 25.6977 24.5574 25.7673 24.6483 25.8122Z" fill="white"/>
<path d="M39.0625 20.8285H38.0591C37.9821 20.8277 37.9075 20.8013 37.8473 20.7534C37.787 20.7055 37.7445 20.6388 37.7264 20.564C37.5632 19.9401 37.3145 19.3418 36.9874 18.7861C36.9477 18.7199 36.9313 18.6424 36.9407 18.5658C36.9501 18.4893 36.9847 18.418 37.0392 18.3634L37.7482 17.6544C37.9143 17.4665 37.9992 17.2204 37.9844 16.97C37.9695 16.7196 37.8562 16.4853 37.6691 16.3183L36.9629 15.612C36.7955 15.4255 36.5612 15.3126 36.311 15.2978C36.0609 15.283 35.8149 15.3675 35.6267 15.5329L34.9177 16.2419C34.8628 16.296 34.7914 16.3303 34.7148 16.3392C34.6382 16.3481 34.5609 16.3311 34.495 16.291C33.9392 15.9648 33.3409 15.717 32.7171 15.5547C32.6423 15.5366 32.5757 15.494 32.5278 15.4337C32.4799 15.3735 32.4535 15.299 32.4526 15.2221V14.2186C32.437 13.9683 32.323 13.7343 32.1355 13.5677C31.948 13.4012 31.7023 13.3156 31.4519 13.3296H30.4538C30.2034 13.3156 29.9576 13.4012 29.7701 13.5677C29.5826 13.7343 29.4687 13.9683 29.4531 14.2186V15.2221C29.4527 15.2991 29.4264 15.3739 29.3784 15.4342C29.3304 15.4945 29.2636 15.537 29.1886 15.5547C28.5648 15.717 27.9665 15.9648 27.4106 16.291C27.3448 16.331 27.2674 16.3479 27.1909 16.339C27.1143 16.3301 27.0429 16.296 26.988 16.2419L26.279 15.5329C26.0907 15.3675 25.8448 15.283 25.5946 15.2978C25.3445 15.3126 25.1102 15.4255 24.9428 15.612L24.2366 16.3183C24.1436 16.4008 24.0678 16.5008 24.0135 16.6126C23.9592 16.7245 23.9275 16.8459 23.9202 16.97C23.9128 17.094 23.93 17.2184 23.9707 17.3358C24.0114 17.4532 24.0749 17.5615 24.1575 17.6544L24.3075 17.8044C24.4942 17.7309 24.693 17.693 24.8937 17.6926C25.2455 17.6932 25.5878 17.807 25.87 18.0171L28.3814 19.8932C28.8691 19.3782 29.5 19.0214 30.1927 18.869C30.8854 18.7165 31.6078 18.7755 32.2667 19.0381C32.9255 19.3008 33.4903 19.7551 33.8881 20.3422C34.2859 20.9294 34.4983 21.6225 34.4979 22.3317C34.4975 23.041 34.2843 23.7338 33.8859 24.3205C33.4874 24.9072 32.9221 25.3609 32.263 25.6228C31.6039 25.8847 30.8813 25.9428 30.1888 25.7896C29.4963 25.6364 28.8658 25.2789 28.3787 24.7634L25.8727 26.6395C25.5947 26.8522 25.2547 26.9681 24.9046 26.9694C24.7 26.9682 24.4974 26.9284 24.3075 26.8522L24.1575 27.0021C24.0749 27.0951 24.0114 27.2033 23.9707 27.3208C23.93 27.4382 23.9128 27.5625 23.9202 27.6866C23.9275 27.8107 23.9592 27.9321 24.0135 28.0439C24.0678 28.1558 24.1436 28.2558 24.2366 28.3383L24.9428 29.0446C25.1099 29.2317 25.3442 29.345 25.5946 29.3598C25.845 29.3746 26.091 29.2897 26.279 29.1236L26.988 28.4147C27.0426 28.3603 27.1139 28.3256 27.1904 28.3163C27.267 28.3069 27.3444 28.3233 27.4106 28.3628C27.9664 28.6899 28.5647 28.9386 29.1886 29.1018C29.2636 29.1196 29.3304 29.162 29.3784 29.2224C29.4264 29.2827 29.4527 29.3574 29.4531 29.4345V30.438C29.4687 30.6883 29.5826 30.9223 29.7701 31.0888C29.9576 31.2554 30.2034 31.341 30.4538 31.327H31.4519C31.7023 31.341 31.948 31.2554 32.1355 31.0888C32.323 30.9223 32.437 30.6883 32.4526 30.438V29.4345C32.453 29.3574 32.4793 29.2827 32.5273 29.2224C32.5752 29.162 32.6421 29.1196 32.7171 29.1018C33.341 28.9386 33.9393 28.6899 34.495 28.3628C34.5612 28.3232 34.6387 28.3067 34.7153 28.3161C34.7918 28.3255 34.8631 28.3602 34.9177 28.4147L35.6267 29.1236C35.8147 29.2897 36.0607 29.3746 36.3111 29.3598C36.5615 29.345 36.7958 29.2317 36.9629 29.0446L37.6691 28.3383C37.8562 28.1713 37.9695 27.9369 37.9844 27.6865C37.9992 27.4362 37.9143 27.1901 37.7482 27.0021L37.0392 26.2932C36.9847 26.238 36.9501 26.1663 36.9407 26.0893C36.9313 26.0123 36.9477 25.9344 36.9874 25.8678C37.3145 25.313 37.5631 24.7156 37.7264 24.0926C37.7441 24.0176 37.7866 23.9507 37.8469 23.9027C37.9073 23.8547 37.982 23.8284 38.0591 23.8281H39.0625C39.3129 23.8125 39.5468 23.6985 39.7134 23.511C39.8799 23.3235 39.9655 23.0777 39.9515 22.8273V21.8293C39.9655 21.5789 39.8799 21.3331 39.7134 21.1456C39.5468 20.9581 39.3129 20.8441 39.0625 20.8285ZM5.93653 23.8286H6.94002C7.01721 23.8291 7.09202 23.8554 7.15258 23.9033C7.21314 23.9511 7.25599 24.0179 7.27433 24.0928C7.43638 24.7163 7.68416 25.3143 8.01059 25.8697C8.0505 25.9356 8.06726 26.013 8.05822 26.0896C8.04919 26.1661 8.01486 26.2375 7.96068 26.2923L7.2517 27.0013C7.08508 27.1891 6.99979 27.4354 7.01457 27.686C7.02934 27.9366 7.14297 28.1711 7.3305 28.338L8.03676 29.0443C8.20382 29.2314 8.43815 29.3447 8.68853 29.3595C8.93891 29.3744 9.18497 29.2894 9.37293 29.1234L10.0825 28.4138C10.1373 28.3597 10.2087 28.3253 10.2852 28.3163C10.3618 28.3073 10.4392 28.324 10.5051 28.3639C11.0606 28.6906 11.6587 28.9386 12.2822 29.101C12.3571 29.1194 12.4237 29.1622 12.4715 29.2227C12.5194 29.2832 12.5456 29.3579 12.5462 29.4351V30.438C12.5616 30.6884 12.6756 30.9225 12.8632 31.0891C13.0508 31.2557 13.2967 31.3412 13.5472 31.327H14.5458C14.7962 31.341 15.042 31.2554 15.2296 31.0888C15.4171 30.9223 15.5312 30.6883 15.5468 30.438V29.4351C15.5474 29.3579 15.5737 29.2832 15.6215 29.2227C15.6693 29.1622 15.7359 29.1194 15.8108 29.101C16.4346 28.9385 17.033 28.6904 17.5887 28.3637C17.6547 28.3238 17.7321 28.3071 17.8087 28.3162C17.8852 28.3252 17.9566 28.3596 18.0114 28.4138L18.7204 29.1236C18.9083 29.2898 19.1544 29.3748 19.4048 29.3599C19.6553 29.345 19.8896 29.2315 20.0565 29.0443L20.7633 28.338C20.9501 28.1707 21.0633 27.9363 21.0781 27.686C21.0929 27.4356 21.0082 27.1895 20.8424 27.0013L20.1318 26.2926C20.0774 26.2377 20.043 26.1662 20.0339 26.0895C20.0249 26.0127 20.0418 25.9352 20.0819 25.8691C20.2386 25.6024 20.3774 25.3254 20.4972 25.0402C20.2865 24.9535 20.0962 24.8237 19.9385 24.6591C19.7809 24.4946 19.6594 24.2989 19.5819 24.0846C19.5043 23.8703 19.4725 23.6422 19.4883 23.4149C19.5041 23.1876 19.5672 22.9661 19.6737 22.7646H18.9546C18.6791 22.7643 18.4082 22.6944 18.167 22.5614C17.9258 22.4284 17.7221 22.2366 17.5748 22.0038C17.5846 22.1107 17.5912 22.2187 17.5912 22.3283C17.5926 23.2104 17.2656 24.0615 16.6738 24.7157C16.082 25.3699 15.2679 25.7804 14.3901 25.8672C13.5122 25.954 12.6334 25.7108 11.925 25.1852C11.2166 24.6595 10.7293 23.8889 10.558 23.0235C10.3867 22.1582 10.5437 21.26 10.9983 20.5041C11.453 19.7481 12.1728 19.1885 13.0176 18.9343C13.8623 18.6801 14.7714 18.7494 15.5678 19.1288C16.3642 19.5082 16.9908 20.1705 17.3256 20.9867C17.3613 20.5791 17.5484 20.1997 17.8499 19.9231C18.1514 19.6466 18.5455 19.4929 18.9546 19.4923H20.4405C20.3344 19.2507 20.2145 19.0152 20.0816 18.7872C20.0415 18.7211 20.0246 18.6436 20.0337 18.5668C20.0427 18.4901 20.0772 18.4186 20.1315 18.3637L20.8421 17.6542C21.0079 17.4661 21.0925 17.2202 21.0777 16.9701C21.0629 16.7199 20.9498 16.4857 20.7631 16.3185L20.056 15.6115C19.8886 15.425 19.6544 15.3121 19.4043 15.2975C19.1542 15.2828 18.9083 15.3675 18.7204 15.5332L18.0108 16.2422C17.956 16.2963 17.8847 16.3306 17.8082 16.3396C17.7317 16.3487 17.6544 16.3319 17.5884 16.2921C17.0326 15.9657 16.4343 15.7179 15.8105 15.5556C15.7356 15.5371 15.669 15.4942 15.6212 15.4337C15.5734 15.3731 15.5471 15.2984 15.5466 15.2212V14.2188C15.5308 13.9685 15.4168 13.7346 15.2292 13.568C15.0417 13.4014 14.796 13.3157 14.5455 13.3296H13.547C13.2965 13.3157 13.0508 13.4013 12.8633 13.5679C12.6758 13.7345 12.5618 13.9685 12.5462 14.2188V15.2212C12.5457 15.2984 12.5194 15.3732 12.4716 15.4337C12.4238 15.4943 12.3572 15.5372 12.2822 15.5556C11.6587 15.7178 11.0607 15.9656 10.5051 16.2918C10.4392 16.3318 10.3618 16.3486 10.2853 16.3396C10.2087 16.3306 10.1373 16.2963 10.0825 16.2422L9.37293 15.5332C9.18489 15.3674 8.93898 15.2826 8.68874 15.2973C8.43849 15.312 8.20417 15.4249 8.03676 15.6115L7.3305 16.3185C7.143 16.4852 7.02935 16.7195 7.01452 16.97C6.99969 17.2204 7.0849 17.4665 7.25143 17.6542L7.96068 18.364C8.0149 18.4188 8.04928 18.4901 8.05837 18.5667C8.06746 18.6432 8.05074 18.7206 8.01086 18.7866C7.68424 19.3421 7.43645 19.9403 7.2746 20.564C7.25632 20.639 7.21349 20.7058 7.15292 20.7537C7.09236 20.8017 7.01752 20.828 6.94029 20.8285H5.93653C5.68632 20.844 5.4524 20.9578 5.28584 21.1452C5.11928 21.3325 5.03362 21.5782 5.04757 21.8284V22.827C5.03325 23.0776 5.11874 23.3236 5.28533 23.5112C5.45193 23.6989 5.68607 23.8132 5.93653 23.8286Z" fill="white"/>
</svg>
