<svg width="44" height="46" viewBox="0 0 44 46" fill="none" xmlns="http://www.w3.org/2000/svg">
<rect y="0.656738" width="44" height="44.6567" rx="3.28358" fill="#6241D4"/>
<path fill-rule="evenodd" clip-rule="evenodd" d="M36.8125 23.3282V25.2803C36.8125 25.6309 36.5704 25.9254 36.2265 25.9932L34.1194 26.4086L32.6013 30.073L33.7977 31.8569C33.993 32.148 33.9559 32.5275 33.7079 32.7754L30.9473 35.5361C30.6993 35.7841 30.3199 35.8211 30.0287 35.6257L28.2447 34.4295L24.5805 35.9476L24.1651 38.0546C24.0972 38.3986 23.8027 38.6408 23.4521 38.6408H19.5479C19.1973 38.6408 18.9028 38.3986 18.8349 38.0546L18.4194 35.9476L14.7552 34.4295L12.9713 35.6257C12.6801 35.8211 12.3007 35.7841 12.0528 35.5361L9.292 32.7754C9.04413 32.5275 9.00706 32.1481 9.20231 31.8569L10.3986 30.073L8.8805 26.4086L6.77356 25.9932C6.42956 25.9254 6.1875 25.6309 6.1875 25.2803V23.3282H13.6473C13.6473 27.6651 17.1631 31.1809 21.5 31.1809C25.8369 31.1809 29.3527 27.6651 29.3527 23.3282H36.8125ZM17.9559 22.9089C18.5219 23.4416 18.8582 24.0875 18.9563 24.8271V25.0655H21.0972C21.1474 24.1071 20.9965 23.3599 20.8711 22.7396C20.8445 22.6092 20.8187 22.4787 20.7938 22.348C19.9207 22.3504 19.0726 21.9732 18.4923 21.3029C18.1511 20.9089 17.9174 20.4335 17.8138 19.9226C17.7102 19.4118 17.7403 18.8829 17.9011 18.3871L18.1357 17.6634C18.1673 17.566 18.2368 17.4959 18.3338 17.4634C18.4309 17.4309 18.5285 17.4451 18.6123 17.5039L19.2354 17.9404C19.4763 18.1092 19.7833 18.2362 20.0592 18.3338L20.0793 18.3408L20.0989 18.3489C20.4941 18.5105 20.8517 18.7521 21.1491 19.0585C21.227 18.6927 21.3786 18.3465 21.5949 18.0413C21.8111 17.7362 22.0873 17.4783 22.4067 17.2836L22.4249 17.2725L22.4435 17.2623C22.6472 17.1513 22.8757 17.0118 23.0431 16.8493L23.5889 16.3194C23.6624 16.2481 23.7565 16.2186 23.8575 16.2353C23.9585 16.2519 24.0382 16.3101 24.0848 16.4012L24.4314 17.0784C24.8583 17.9125 24.8176 18.9146 24.3244 19.7113C24.0817 20.1034 23.742 20.4262 23.3381 20.6487C22.9342 20.8712 22.4797 20.9857 22.0186 20.9813C22.0179 21.4148 21.8913 21.8388 21.6542 22.2018C21.6751 22.3186 21.6997 22.4406 21.7256 22.5687C21.8594 23.2311 22.0202 24.0268 21.9708 25.0655H24.0437V24.8271C24.1418 24.0874 24.4781 23.4417 25.0441 22.9089C26.0462 21.9658 26.6721 20.6271 26.6721 19.1423C26.6721 16.2858 24.3564 13.9702 21.5 13.9702C18.6436 13.9702 16.3279 16.2858 16.3279 19.1423C16.3279 20.6271 16.9538 21.9657 17.9559 22.9089ZM24.0437 26.8879V25.9404H18.9564V26.8879C18.9564 27.3216 19.3113 27.6766 19.7451 27.6766H23.255C23.6888 27.6766 24.0437 27.3216 24.0437 26.8879ZM20.9688 29.9193H22.0313C22.5277 29.9193 22.9339 29.5131 22.9339 29.0166V28.5515H20.0662V29.0166C20.0662 29.5131 20.4724 29.9193 20.9688 29.9193ZM29.4774 20.0024C29.973 20.5472 30.6876 20.8892 31.4821 20.8892C32.2766 20.8892 32.9913 20.5472 33.4869 20.0024C32.9913 19.4577 32.2766 19.1157 31.4821 19.1157C30.6876 19.1157 29.973 19.4577 29.4774 20.0024ZM30.5881 15.7794C31.2762 15.3821 31.7241 14.7286 31.8809 14.0091C31.1793 13.7851 30.3894 13.8462 29.7014 14.2435C29.0133 14.6407 28.5654 15.2942 28.4086 16.0138C29.1102 16.2378 29.9001 16.1766 30.5881 15.7794ZM27.259 11.8011C27.6562 11.1131 27.7174 10.3232 27.4934 9.62156C26.7738 9.77838 26.1204 10.2263 25.7231 10.9144C25.3259 11.6024 25.2647 12.3923 25.4887 13.0939C26.2083 12.9371 26.8618 12.4892 27.259 11.8011ZM21.5 12.0251C22.0448 11.5295 22.3867 10.8149 22.3867 10.0204C22.3867 9.22588 22.0448 8.51125 21.5 8.01562C20.9552 8.51125 20.6132 9.22588 20.6132 10.0204C20.6132 10.8149 20.9552 11.5295 21.5 12.0251ZM17.5113 13.0939C17.7353 12.3923 17.6741 11.6024 17.2769 10.9144C16.8796 10.2263 16.2261 9.77838 15.5066 9.62156C15.2826 10.3232 15.3438 11.1131 15.741 11.8011C16.1383 12.4892 16.7917 12.937 17.5113 13.0939ZM12.4119 15.7794C13.0999 16.1766 13.8898 16.2378 14.5914 16.0137C14.4346 15.2942 13.9867 14.6407 13.2986 14.2434C12.6106 13.8462 11.8207 13.7851 11.1191 14.009C11.2759 14.7286 11.7238 15.3821 12.4119 15.7794ZM11.5179 20.8892C12.3124 20.8892 13.0271 20.5472 13.5227 20.0024C13.0271 19.4577 12.3124 19.1157 11.5179 19.1157C10.7234 19.1157 10.0088 19.4577 9.51319 20.0024C10.0088 20.5472 10.7234 20.8892 11.5179 20.8892ZM19.7677 19.1587C19.3395 19.0073 18.9948 18.8401 18.7334 18.657C18.6191 19.0095 18.5978 19.3856 18.6714 19.7488C18.745 20.1119 18.9112 20.45 19.1538 20.7301C19.3964 21.0103 19.7072 21.2231 20.0561 21.3479C20.405 21.4727 20.7803 21.5053 21.1455 21.4426C21.2409 20.4606 20.6808 19.5323 19.7677 19.1587ZM23.5805 19.2508C23.7442 18.9864 23.8368 18.6842 23.8495 18.3734C23.8621 18.0627 23.7943 17.7539 23.6526 17.4771C23.4605 17.6636 23.1971 17.848 22.8625 18.0305C22.5183 18.2405 22.2509 18.5559 22.1 18.9298C21.9492 19.3038 21.9229 19.7164 22.0251 20.1064C22.3361 20.1098 22.6427 20.0328 22.9152 19.8829C23.1877 19.733 23.4168 19.5153 23.5805 19.2508Z" fill="white"/>
</svg>
