<svg width="76" height="79" viewBox="0 0 76 79" fill="none" xmlns="http://www.w3.org/2000/svg">
<rect width="76" height="79" rx="38" fill="#F7F6FF"/>
<path d="M21.0597 59.0589C20.7753 59.3239 20.3993 59.4681 20.0106 59.4613C19.622 59.4544 19.2513 59.297 18.9764 59.0221C18.7016 58.7473 18.5442 58.3765 18.5373 57.9879C18.5305 57.5993 18.6747 57.2232 18.9397 56.9389L22.9597 52.9169C21.4117 50.7709 21.1437 48.3869 21.4537 46.3369C21.8097 43.9929 22.9397 41.9369 23.9397 40.9369L26.9397 37.9369C27.2209 37.656 27.6022 37.4982 27.9997 37.4982C28.3972 37.4982 28.7784 37.656 29.0597 37.9369L40.0597 48.9369C40.1991 49.0762 40.3097 49.2416 40.3851 49.4237C40.4605 49.6057 40.4994 49.8008 40.4994 49.9979C40.4994 50.195 40.4605 50.3901 40.3851 50.5721C40.3097 50.7542 40.1991 50.9196 40.0597 51.0589L37.0597 54.0589C36.0597 55.0589 34.0057 56.1889 31.6617 56.5449C29.6117 56.8549 27.2277 56.5849 25.0817 55.0369L21.0597 59.0589ZM36.0597 37.0589C35.9224 37.2063 35.7568 37.3245 35.5728 37.4065C35.3888 37.4884 35.1901 37.5325 34.9887 37.5361C34.7873 37.5396 34.5873 37.5026 34.4005 37.4271C34.2137 37.3517 34.0441 37.2394 33.9016 37.097C33.7592 36.9545 33.6469 36.7849 33.5714 36.5981C33.496 36.4113 33.459 36.2113 33.4625 36.0099C33.4661 35.8085 33.5101 35.6098 33.5921 35.4258C33.6741 35.2418 33.7923 35.0762 33.9397 34.9389L36.8797 31.9989L35.9397 31.0589C35.6588 30.7777 35.501 30.3964 35.501 29.9989C35.501 29.6014 35.6588 29.2202 35.9397 28.9389L38.9397 25.9389C39.9397 24.9389 41.9937 23.8089 44.3377 23.4529C46.3877 23.1429 48.7717 23.4129 50.9177 24.9609L54.9377 20.9389C55.076 20.7956 55.2415 20.6812 55.4244 20.6025C55.6074 20.5238 55.8042 20.4824 56.0034 20.4805C56.2025 20.4787 56.4001 20.5166 56.5845 20.5919C56.7688 20.6672 56.9364 20.7785 57.0773 20.9193C57.2182 21.0601 57.3296 21.2275 57.4051 21.4118C57.4807 21.5961 57.5187 21.7936 57.5171 21.9928C57.5154 22.192 57.4741 22.3888 57.3956 22.5719C57.3171 22.7549 57.2029 22.9205 57.0597 23.0589L53.0397 27.0829C54.5877 29.2269 54.8597 31.6109 54.5477 33.6629C54.1917 36.0049 53.0617 38.0589 52.0617 39.0589L49.0617 42.0589C48.7804 42.3398 48.3992 42.4976 48.0017 42.4976C47.6042 42.4976 47.2229 42.3398 46.9417 42.0589L46.0017 41.1189L43.0617 44.0589C42.9244 44.2063 42.7588 44.3245 42.5748 44.4065C42.3908 44.4884 42.1921 44.5325 41.9907 44.5361C41.7893 44.5396 41.5893 44.5026 41.4025 44.4271C41.2157 44.3517 41.0461 44.2394 40.9036 44.097C40.7612 43.9545 40.6489 43.7849 40.5734 43.5981C40.498 43.4113 40.461 43.2113 40.4645 43.0099C40.4681 42.8085 40.5121 42.6098 40.5941 42.4258C40.6761 42.2418 40.7943 42.0762 40.9417 41.9389L43.8817 38.9989L39.0017 34.1189L36.0597 37.0589Z" fill="#6241D4"/>
</svg>
