<svg width="29" height="28" viewBox="0 0 29 28" fill="none" xmlns="http://www.w3.org/2000/svg">
<g clip-path="url(#clip0_9_595)">
<path d="M27 7.67188V4.15625C27 2.99314 26.0537 2.04688 24.8906 2.04688H5.10938C3.94627 2.04688 3 2.99314 3 4.15625V7.67188H27ZM19.2188 4.85938H23.4375C23.8258 4.85938 24.1406 5.17419 24.1406 5.5625C24.1406 5.95081 23.8258 6.26562 23.4375 6.26562H19.2188C18.8304 6.26562 18.5156 5.95081 18.5156 5.5625C18.5156 5.17419 18.8304 4.85938 19.2188 4.85938ZM12.1875 4.85938C12.5758 4.85938 12.8906 5.17419 12.8906 5.5625C12.8906 5.95081 12.5758 6.26562 12.1875 6.26562C11.7992 6.26562 11.4844 5.95081 11.4844 5.5625C11.4844 5.17419 11.7992 4.85938 12.1875 4.85938ZM9.375 4.85938C9.76331 4.85938 10.0781 5.17419 10.0781 5.5625C10.0781 5.95081 9.76331 6.26562 9.375 6.26562C8.98669 6.26562 8.67188 5.95081 8.67188 5.5625C8.67188 5.17419 8.98669 4.85938 9.375 4.85938ZM6.5625 4.85938C6.95081 4.85938 7.26562 5.17419 7.26562 5.5625C7.26562 5.95081 6.95081 6.26562 6.5625 6.26562C6.17419 6.26562 5.85938 5.95081 5.85938 5.5625C5.85938 5.17419 6.17419 4.85938 6.5625 4.85938ZM3 9.07812V23.8438C3 25.0069 3.94627 25.9531 5.10938 25.9531H24.8906C26.0537 25.9531 27 25.0069 27 23.8438V9.07812H3ZM11.2205 19.076C11.5237 19.3185 11.5729 19.761 11.3303 20.0642C11.0878 20.3674 10.6452 20.4166 10.342 20.174L6.82641 17.3615C6.47489 17.0804 6.47466 16.5448 6.82641 16.2634L10.342 13.4509C10.6451 13.2083 11.0877 13.2575 11.3303 13.5607C11.5729 13.8639 11.5237 14.3064 11.2205 14.549L8.39119 16.8125L11.2205 19.076ZM17.7556 12.1676L13.5369 22.0114C13.3839 22.3682 12.9707 22.5337 12.6136 22.3806C12.2567 22.2277 12.0914 21.8143 12.2444 21.4574L16.4631 11.6136C16.6161 11.2567 17.0295 11.0914 17.3864 11.2444C17.7433 11.3973 17.9086 11.8107 17.7556 12.1676ZM23.1736 17.3615L19.658 20.174C19.3552 20.4163 18.9127 20.3679 18.6697 20.0643C18.4271 19.761 18.4763 19.3185 18.7795 19.076L21.6088 16.8125L18.7795 14.549C18.4763 14.3065 18.4271 13.864 18.6697 13.5608C18.9122 13.2575 19.3547 13.2084 19.658 13.451L23.1736 16.2635C23.5251 16.5446 23.5253 17.0802 23.1736 17.3615Z" fill="#6241D4"/>
</g>
<defs>
<clipPath id="clip0_9_595">
<rect width="28" height="28" fill="white" transform="translate(0.5)"/>
</clipPath>
</defs>
</svg>
