<svg width="29" height="28" viewBox="0 0 29 28" fill="none" xmlns="http://www.w3.org/2000/svg">
<g clip-path="url(#clip0_9_571)">
<path d="M9.96196 26.6C10.3503 26.6 10.7479 26.5977 11.1542 26.5977H18.845C19.2507 26.5977 19.6483 26.6 20.0366 26.6C23.5952 26.6 26.3142 26.418 26.3142 22.6979C26.3142 18.8042 23.3364 15.6077 19.5335 15.2603C19.5032 16.6225 15.0008 19.9841 15.0008 19.9841C15.0008 19.9841 10.4973 16.6227 10.4668 15.2605C6.6644 15.6077 3.68604 18.8042 3.68604 22.6979C3.68604 26.418 6.404 26.6 9.96196 26.6ZM18.36 21.5199C18.36 21.4091 18.46 21.3197 18.5843 21.3197H19.8006V20.104C19.8006 19.9808 19.8894 19.8797 20.0002 19.8797H21.2006C21.3109 19.8797 21.4002 19.9799 21.4002 20.104V21.32H22.616C22.7392 21.32 22.84 21.4093 22.84 21.5202V22.72C22.84 22.8309 22.74 22.9202 22.616 22.9202H21.4V24.136C21.4 24.2597 21.3104 24.36 21.1998 24.36H20C19.8891 24.36 19.7998 24.26 19.7998 24.136V22.9199H18.584C18.4602 22.9199 18.3597 22.8306 18.3597 22.7197L18.36 21.5199Z" fill="#FF6464"/>
<path d="M15.0023 16.2377C18.4418 16.2377 21.2298 11.0658 21.2298 7.62654C21.2298 4.18786 18.4418 1.3999 15.0023 1.3999C11.5634 1.3999 8.77539 4.18786 8.77539 7.62654C8.77539 11.0658 11.5634 16.2377 15.0023 16.2377Z" fill="#FF6464"/>
</g>
<defs>
<clipPath id="clip0_9_571">
<rect width="28" height="28" fill="white" transform="translate(0.5)"/>
</clipPath>
</defs>
</svg>
