<svg width="29" height="28" viewBox="0 0 29 28" fill="none" xmlns="http://www.w3.org/2000/svg">
<g clip-path="url(#clip0_9_601)">
<path fill-rule="evenodd" clip-rule="evenodd" d="M15.6409 18.3358C16.461 18.3358 17.273 18.1743 18.0306 17.8604C18.7883 17.5466 19.4767 17.0866 20.0566 16.5068C20.6364 15.9269 21.0964 15.2385 21.4103 14.4808C21.7241 13.7232 21.8856 12.9112 21.8856 12.0911C21.8856 11.271 21.7241 10.459 21.4103 9.70136C21.0964 8.94371 20.6364 8.2553 20.0566 7.67543C19.4767 7.09555 18.7883 6.63557 18.0306 6.32175C17.273 6.00792 16.461 5.8464 15.6409 5.8464C13.9847 5.8464 12.3963 6.50432 11.2252 7.67543C10.0541 8.84654 9.3962 10.4349 9.3962 12.0911C9.3962 13.7473 10.0541 15.3357 11.2252 16.5068C12.3963 17.6779 13.9847 18.3358 15.6409 18.3358ZM15.6409 24.1822C18.8477 24.1822 21.9231 22.9083 24.1906 20.6408C26.4581 18.3733 27.732 15.2979 27.732 12.0911C27.732 8.88434 26.4581 5.80892 24.1906 3.5414C21.9231 1.27388 18.8477 0 15.6409 0C12.4341 0 9.35873 1.27388 7.09121 3.5414C4.82368 5.80892 3.5498 8.88434 3.5498 12.0911C3.5498 15.2979 4.82368 18.3733 7.09121 20.6408C9.35873 22.9083 12.4341 24.1822 15.6409 24.1822Z" fill="#FFD443"/>
<path fill-rule="evenodd" clip-rule="evenodd" d="M9.41369 19.086C9.96152 19.6342 10.2693 20.3775 10.2693 21.1524C10.2693 21.9274 9.96152 22.6707 9.41369 23.2188L5.48949 27.143C4.93702 27.6692 4.20073 27.9585 3.43785 27.9492C2.67497 27.9399 1.94596 27.6327 1.40648 27.0933C0.867 26.5538 0.559813 25.8248 0.550511 25.0619C0.541208 24.299 0.830529 23.5627 1.35669 23.0102L5.28089 19.086C5.82905 18.5382 6.57231 18.2305 7.34729 18.2305C8.12227 18.2305 8.86554 18.5382 9.41369 19.086Z" fill="#FFD443"/>
</g>
<defs>
<clipPath id="clip0_9_601">
<rect width="28" height="28" fill="white" transform="translate(0.5)"/>
</clipPath>
</defs>
</svg>
