<svg width="116" height="19" viewBox="0 0 116 19" fill="none" xmlns="http://www.w3.org/2000/svg">
<path fill-rule="evenodd" clip-rule="evenodd" d="M4.36671 13.7016C3.4706 16.1733 3.7693 16.8365 5.91995 17.1781V17.781H0.105225V17.1781C1.73813 16.736 2.4351 15.8317 3.33121 13.4806L8.40914 0.43882H10.2611L15.5581 15.1284C16.0758 16.4748 16.4144 16.9169 18.2663 17.1781V17.8211H9.70352V17.1178C12.0334 17.0374 12.4117 16.5552 11.9936 15.249L10.6992 11.4309H5.14333L4.36671 13.7016ZM8.15026 3.8751H8.03079C8.03079 3.8751 5.5416 10.6472 5.48186 10.6472H10.4801L8.15026 3.8751ZM19.7797 13.9629H20.4767C21.8109 16.2738 23.1053 17.359 24.6585 17.359C25.9927 17.359 26.5901 16.5752 26.5901 15.671C26.5901 14.5858 25.8533 14.0232 23.4836 13.3198C20.8949 12.5763 19.8196 11.7524 19.8196 9.92374C19.8196 7.6128 21.6317 6.10566 24.3001 6.10566C25.2958 6.10566 26.3711 6.44728 27.0083 6.88937L27.6057 6.10566H28.2031V9.74289H27.5062C26.2914 7.83384 25.3555 6.82909 23.9815 6.82909C22.9061 6.82909 22.1295 7.53242 22.1295 8.57737C22.1295 9.62232 23.1252 10.0644 24.8776 10.5266C27.4663 11.2299 28.8005 12.1342 28.8005 14.1437C28.8005 16.3542 27.0681 18.1025 24.32 18.1025C23.4239 18.1025 21.8308 17.6604 21.1338 17.2384L20.3572 18.1025H19.7598L19.7797 13.9629ZM30.6923 12.2146C30.6923 8.4367 33.2811 6.04537 36.7261 6.04537C39.9122 6.04537 41.127 7.65299 41.127 8.91898C41.127 9.96393 40.5296 10.7075 39.4941 10.7075C38.3391 10.7075 37.7218 10.0041 37.7218 9.09984C37.7218 8.39651 38.1599 7.79365 38.5382 7.6128C38.2793 7.1707 37.6421 6.7889 36.7659 6.7889C35.0334 6.7889 33.8785 8.57737 33.8785 11.8328C33.8785 14.6059 35.0334 16.736 37.5425 16.736C38.8767 16.736 39.9521 16.0327 40.9079 14.8672L41.3858 15.249C40.3105 16.937 38.7971 18.0824 36.3876 18.0824C32.8828 18.0824 30.6923 15.7513 30.6923 12.2146ZM46.0257 12.094C46.0257 14.9274 47.2404 16.8365 49.6898 16.8365C51.1634 16.8365 52.1391 16.0528 53.1348 14.7868L53.6127 15.1686C52.5374 16.8566 51.0638 18.1226 48.6144 18.1226C45.03 18.1226 42.8395 15.8719 42.8395 12.2548C42.8395 8.51708 45.2889 6.08557 48.6144 6.08557C52.0595 6.08557 53.7919 8.65775 53.6127 11.7725H46.0655C46.0257 11.873 46.0257 11.9935 46.0257 12.094ZM50.4266 11.0491C50.6854 8.57737 50.0482 6.82909 48.3954 6.82909C47.0214 6.82909 46.2049 8.31613 46.0655 11.0893L50.4266 11.0491ZM54.8473 17.1781C56.2612 17.1379 56.6196 16.9571 56.6196 16.2738V8.23575C56.6196 7.49223 56.2811 7.00994 54.8473 6.96975V6.3669L59.5868 6.14585V8.39651C60.7417 7.05013 62.3348 6.08557 63.9279 6.08557C65.9591 6.08557 66.9946 7.39175 66.9946 9.7027V16.2738C66.9946 16.9771 67.2534 17.1379 68.727 17.1781V17.781H62.514V17.1781C63.5495 17.1379 63.9279 16.9571 63.9279 16.2738V10.185C63.9279 8.53718 63.3703 7.75346 62.0759 7.75346C61.0803 7.75346 60.3036 8.27594 59.6664 9.05965V16.2738C59.6664 16.9771 60.0049 17.1379 61.0404 17.1781V17.781H54.8274L54.8473 17.1781ZM70.3998 13.9629H71.0967C72.4309 16.2738 73.7253 17.359 75.2786 17.359C76.6128 17.359 77.2102 16.5752 77.2102 15.671C77.2102 14.5858 76.4734 14.0232 74.1037 13.3198C71.5149 12.5763 70.4396 11.7524 70.4396 9.92374C70.4396 7.6128 72.2517 6.10566 74.9201 6.10566C75.9158 6.10566 76.9911 6.44728 77.6284 6.88937L78.2258 6.10566H78.8232V9.74289H78.1262C76.9115 7.83384 75.9755 6.82909 74.6015 6.82909C73.5262 6.82909 72.7496 7.53242 72.7496 8.57737C72.7496 9.62232 73.7452 10.0644 75.4976 10.5266C78.0864 11.2299 79.4206 12.1342 79.4206 14.1437C79.4206 16.3542 77.6881 18.1025 74.94 18.1025C74.0439 18.1025 72.4509 17.6604 71.7539 17.2384L70.9773 18.1025H70.3799V13.9629H70.3998ZM80.9141 17.1781C82.3279 17.1379 82.7262 16.9571 82.7262 16.2738V8.23575C82.7262 7.49223 82.3877 7.00994 80.9141 6.96975V6.3669L85.7929 6.12576V16.2537C85.7929 16.9571 86.0518 17.1178 87.5652 17.158V17.7609H80.9738V17.158H80.9141V17.1781ZM82.3279 2.16701C82.3279 1.00149 83.0647 0.217773 84.1799 0.217773C85.295 0.217773 86.0318 0.961295 86.0318 2.08662C86.0318 3.25215 85.295 3.99567 84.1799 3.99567C83.0647 3.99567 82.3279 3.31243 82.3279 2.16701ZM88.5409 12.094C88.5409 8.47689 90.9505 6.04537 94.4951 6.04537C98.1193 6.04537 100.389 8.35632 100.389 11.9935C100.389 15.6911 97.9799 18.0824 94.4951 18.0824C90.7712 18.0824 88.5409 15.7513 88.5409 12.094ZM97.1037 12.0538C97.1037 8.49699 96.2076 6.82909 94.3557 6.82909C92.5435 6.82909 91.8665 8.47689 91.8665 12.0538C91.8665 15.671 92.7626 17.359 94.6145 17.359C96.3868 17.2987 97.1037 15.6107 97.1037 12.0538ZM101.584 17.1781C102.998 17.1379 103.357 16.9571 103.357 16.2738V8.23575C103.357 7.49223 103.018 7.00994 101.584 6.96975V6.3669L106.324 6.14585V8.39651C107.479 7.05013 109.072 6.08557 110.665 6.08557C112.696 6.08557 113.731 7.39175 113.731 9.7027V16.2738C113.731 16.9771 113.99 17.1379 115.464 17.1781V17.781H109.251V17.1781C110.286 17.1379 110.665 16.9571 110.665 16.2738V10.185C110.665 8.53718 110.107 7.75346 108.813 7.75346C107.817 7.75346 107.041 8.27594 106.403 9.05965V16.2738C106.403 16.9771 106.742 17.1379 107.777 17.1781V17.781H101.564L101.584 17.1781Z" fill="#767676"/>
</svg>
