<svg width="138" height="30" viewBox="0 0 138 30" fill="none" xmlns="http://www.w3.org/2000/svg">
<g clip-path="url(#clip0_9_187)">
<path d="M39.098 7.40199C38.6345 7.40199 38.2869 7.74844 38.2869 8.21013V24.0264C37.1281 24.2572 35.8534 24.4882 34.5787 24.4882C31.7977 24.4882 30.8706 23.4491 30.8706 20.4475V8.21013C30.8706 7.74836 30.5229 7.40199 30.1754 7.40199H26.0037V20.4475C26.0037 26.5662 29.2484 28.5288 34.4629 28.5288C38.6345 28.5288 42.8061 27.3744 43.1538 27.2589V7.40199H39.098ZM102.947 28.2979C103.295 28.2979 103.758 27.9514 103.758 27.4898V11.5581C104.917 11.3273 106.192 11.0963 107.466 11.0963C110.247 11.0963 111.174 12.1353 111.174 15.1369V27.4898C111.174 27.9516 111.522 28.2979 111.87 28.2979H116.041V15.1369C116.041 9.01824 112.797 7.05564 107.582 7.05564C103.41 7.05564 99.2388 8.21012 98.8912 8.32558V28.2979H102.947ZM86.2605 7.05564C80.8141 7.05564 77.4537 9.94182 77.4537 16.2914V19.4085C77.4537 26.3353 81.1618 28.6443 85.1017 28.6443C87.0716 28.6443 89.1574 27.2589 89.7368 26.4508V27.7207C89.7368 28.0671 90.0846 28.4134 90.4321 28.4134C90.4321 28.4134 94.4878 28.4134 94.6037 28.4134V8.21013C94.7198 8.21013 90.6638 7.05564 86.2605 7.05564ZM89.8527 23.2183C88.9257 24.0264 88.2304 24.4882 86.2605 24.4882C83.4794 24.6038 82.3206 22.8719 82.3206 19.293V16.4069C82.3206 12.3662 83.827 11.2117 86.2605 11.2117C88.2304 11.2117 89.3892 11.3274 89.8527 11.4426V23.2183ZM128.324 7.05564C122.878 7.05564 119.518 9.94182 119.518 16.2914V19.4085C119.518 26.3353 123.226 28.6443 127.281 28.6443C129.251 28.6443 131.337 27.2589 131.917 26.4508V27.7207C131.917 28.0671 132.264 28.4134 132.612 28.4134C132.612 28.4134 136.668 28.4134 136.783 28.4134V8.21013C136.783 8.21013 132.728 7.05564 128.324 7.05564ZM131.917 23.2183C130.989 24.0264 130.294 24.4882 128.324 24.4882C125.543 24.4882 124.384 22.8719 124.384 19.293V16.4069C124.384 12.2508 125.891 11.2117 128.324 11.2117C130.294 11.2117 131.453 11.3274 131.917 11.4426V23.2183ZM1.20581 28.2979C1.90108 28.2979 5.6092 28.2979 5.6092 28.2979C5.95695 28.2979 6.30447 27.9514 6.30447 27.6052V16.0605H14.4159C15.8065 16.0605 16.7335 17.0996 16.7335 18.254V27.6052C16.7335 27.9517 17.0813 28.2979 17.4288 28.2979C17.4288 28.2979 21.6004 28.2979 21.8321 28.2979C21.8321 28.2979 21.8321 1.05244 21.8321 0.821533H17.4288C17.081 0.821533 16.7335 1.16793 16.7335 1.51416V11.9044H8.39027C7.23146 11.9044 6.42031 10.9809 6.42031 9.94186V1.51416C6.30425 1.28334 6.07257 0.821533 5.6092 0.821533H1.20581C1.20581 1.05235 1.20581 28.2979 1.20581 28.2979ZM66.4453 7.05564C64.1277 7.05564 61.926 7.97924 60.8831 8.67192C59.3767 7.51742 57.2909 7.05564 54.7416 7.05564C50.9176 7.05564 47.673 8.21012 47.2095 8.44103V28.4134H51.3811C51.8446 28.4134 52.0764 28.0669 52.0764 27.6052V11.5581C53.1193 11.3273 53.9304 11.2116 54.6257 11.2116C57.5226 11.2116 58.2179 12.3661 58.2179 15.2522V27.6051C58.2179 27.9515 58.4496 28.4132 58.9132 28.4132H62.3895C62.853 28.4132 63.0848 28.0668 63.0848 27.6051V12.1352C63.896 11.5579 64.9388 11.2116 65.9818 11.2116C68.1834 11.2116 69.1105 12.2506 69.1105 14.906V27.6051C69.1105 27.9515 69.3421 28.4132 69.8057 28.4132C69.8057 28.4132 73.6297 28.4132 73.9773 28.4132V14.2133C74.0934 8.90268 70.7328 7.05564 66.4453 7.05564Z" fill="#767676"/>
</g>
<defs>
<clipPath id="clip0_9_187">
<rect width="136.736" height="28.9772" fill="white" transform="translate(0.626465 0.244385)"/>
</clipPath>
</defs>
</svg>
