<svg width="29" height="29" viewBox="0 0 29 29" fill="none" xmlns="http://www.w3.org/2000/svg">
<path d="M15.7914 0.0712891C17.3817 0.07553 18.1889 0.0840119 18.8858 0.103803L19.1601 0.113698C19.4767 0.125008 19.7892 0.139144 20.1666 0.156108C21.6707 0.22679 22.697 0.464283 23.5975 0.813454C24.5305 1.17252 25.3165 1.65881 26.1025 2.44339C26.8216 3.14983 27.3779 4.00472 27.7324 4.94837C28.0816 5.84886 28.3191 6.87517 28.3898 8.3807C28.4067 8.75673 28.4209 9.06915 28.4322 9.38722L28.4407 9.66147C28.4619 10.357 28.4704 11.1642 28.4732 12.7545L28.4746 13.8091V15.661C28.478 16.6921 28.4672 17.7232 28.4421 18.754L28.4336 19.0283C28.4223 19.3464 28.4082 19.6588 28.3912 20.0348C28.3205 21.5403 28.0802 22.5652 27.7324 23.4671C27.3779 24.4108 26.8216 25.2657 26.1025 25.9721C25.3961 26.6912 24.5412 27.2475 23.5975 27.6021C22.697 27.9512 21.6707 28.1887 20.1666 28.2594L19.1601 28.3018L18.8858 28.3103C18.1889 28.3301 17.3817 28.34 15.7914 28.3428L14.7368 28.3442H12.8863C11.8547 28.3479 10.8231 28.337 9.79185 28.3117L9.5176 28.3032C9.18202 28.2905 8.8465 28.2759 8.51108 28.2594C7.00696 28.1887 5.98066 27.9512 5.07875 27.6021C4.13561 27.2473 3.28122 26.6911 2.57518 25.9721C1.85556 25.2658 1.29881 24.4109 0.943835 23.4671C0.594665 22.5666 0.357172 21.5403 0.286489 20.0348L0.24408 19.0283L0.237012 18.754C0.210953 17.7232 0.199171 16.6921 0.201671 15.661V12.7545C0.197758 11.7234 0.208126 10.6923 0.232771 9.66147L0.242667 9.38722C0.253976 9.06915 0.268112 8.75673 0.285076 8.3807C0.355758 6.87517 0.593251 5.85028 0.942421 4.94837C1.29823 4.00433 1.85595 3.14941 2.5766 2.44339C3.28222 1.72462 4.13611 1.16838 5.07875 0.813454C5.98066 0.464283 7.00555 0.22679 8.51108 0.156108C8.88711 0.139144 9.20094 0.125008 9.5176 0.113698L9.79185 0.105216C10.8227 0.0800999 11.8538 0.0692609 12.8849 0.0727026L15.7914 0.0712891ZM14.3381 7.13952C12.4635 7.13952 10.6657 7.88421 9.34014 9.20976C8.01459 10.5353 7.2699 12.3331 7.2699 14.2078C7.2699 16.0824 8.01459 17.8802 9.34014 19.2057C10.6657 20.5313 12.4635 21.276 14.3381 21.276C16.2127 21.276 18.0106 20.5313 19.3361 19.2057C20.6617 17.8802 21.4064 16.0824 21.4064 14.2078C21.4064 12.3331 20.6617 10.5353 19.3361 9.20976C18.0106 7.88421 16.2127 7.13952 14.3381 7.13952ZM14.3381 9.96681C14.8951 9.96672 15.4466 10.0763 15.9611 10.2894C16.4757 10.5024 16.9433 10.8147 17.3371 11.2085C17.731 11.6022 18.0435 12.0697 18.2567 12.5842C18.4699 13.0987 18.5797 13.6501 18.5798 14.207C18.5799 14.764 18.4703 15.3155 18.2572 15.83C18.0442 16.3446 17.7319 16.8122 17.3381 17.2061C16.9444 17.5999 16.4769 17.9124 15.9624 18.1256C15.4479 18.3388 14.8965 18.4486 14.3395 18.4487C13.2148 18.4487 12.1361 18.0019 11.3408 17.2066C10.5454 16.4112 10.0986 15.3325 10.0986 14.2078C10.0986 13.083 10.5454 12.0043 11.3408 11.209C12.1361 10.4136 13.2148 9.96681 14.3395 9.96681M21.7612 5.01905C21.2925 5.01905 20.8431 5.20522 20.5117 5.53661C20.1803 5.868 19.9941 6.31746 19.9941 6.78611C19.9941 7.25476 20.1803 7.70422 20.5117 8.03561C20.8431 8.367 21.2925 8.55317 21.7612 8.55317C22.2298 8.55317 22.6793 8.367 23.0107 8.03561C23.3421 7.70422 23.5282 7.25476 23.5282 6.78611C23.5282 6.31746 23.3421 5.868 23.0107 5.53661C22.6793 5.20522 22.2298 5.01905 21.7612 5.01905Z" fill="#7A7A7A"/>
</svg>
