<svg width="28" height="27" viewBox="0 0 28 27" fill="none" xmlns="http://www.w3.org/2000/svg">
<path fill-rule="evenodd" clip-rule="evenodd" d="M18.7524 26.9985V16.571H22.253L22.7767 12.5076H18.7511V9.9132C18.7511 8.73648 19.0783 7.93405 20.7666 7.93405H22.9181V4.29887C21.8762 4.18692 20.8289 4.13299 19.7811 4.1373C16.6791 4.1373 14.5558 6.03164 14.5558 9.50929V12.5076H11.0445V16.571H14.5545V26.9985H1.76001C0.938724 26.9985 0.273621 26.3334 0.273621 25.5122V1.55767C0.273621 0.736392 0.938724 0.0712891 1.76001 0.0712891H25.7145C26.5358 0.0712891 27.2009 0.736392 27.2009 1.55767V25.5122C27.2009 26.3334 26.5358 26.9985 25.7145 26.9985H18.7524Z" fill="#5B47FB"/>
</svg>
