<svg width="29" height="29" viewBox="0 0 29 29" fill="none" xmlns="http://www.w3.org/2000/svg">
<path d="M4.03909 0.0712891C1.81128 0.0712891 0 1.88257 0 4.11038V24.3058C0 26.5336 1.81128 28.3449 4.03909 28.3449H24.2345C26.4623 28.3449 28.2736 26.5336 28.2736 24.3058V4.11038C28.2736 1.88257 26.4623 0.0712891 24.2345 0.0712891H4.03909ZM22.7893 5.37259L16.2384 12.8575L23.9442 23.0436H17.9108L13.1901 16.8651L7.78156 23.0436H4.78379L11.7891 15.0348L4.39882 5.37259H10.5837L14.8563 11.021L19.7915 5.37259H22.7893ZM20.4037 21.2513L9.68119 7.07027H7.89515L18.7376 21.2513H20.3974H20.4037Z" fill="#7A7A7A"/>
</svg>
