<svg width="20" height="20" viewBox="0 0 20 20" fill="none" xmlns="http://www.w3.org/2000/svg">
<g clip-path="url(#clip0_601_125)">
<path d="M12.2008 4.34788C12.2008 6.7491 10.2542 8.69559 7.85294 8.69559C5.45172 8.69559 3.50522 6.7491 3.50522 4.34788C3.50522 1.94666 5.45172 0 7.85294 0C10.2542 0 12.2008 1.94666 12.2008 4.34788ZM10.0564 18.087C9.60341 17.3027 9.69386 16.3365 10.233 15.6522C9.69386 14.9678 9.60341 14.0026 10.0564 13.2174L10.76 11.9999C11.1469 11.3296 11.8687 10.9131 12.6434 10.9131C12.7495 10.9131 12.8538 10.9209 12.9573 10.9357C12.9861 10.8644 13.0226 10.7973 13.0582 10.7295C12.5887 10.5443 12.0817 10.4348 11.5486 10.4348H4.1574C1.87988 10.4348 0.0268555 12.2878 0.0268555 14.5652V17.6087C0.0268555 17.9687 0.319029 18.2609 0.679029 18.2609H10.1564L10.0564 18.087Z" fill="#4B5FF7"/>
<path d="M18.8991 16.0607C18.9164 15.926 18.9398 15.7921 18.9398 15.6529C18.9398 15.513 18.9155 15.3798 18.8991 15.2452L19.6825 14.6521C19.8573 14.5199 19.906 14.2782 19.7965 14.0878L19.093 12.8704C18.9833 12.6807 18.7494 12.6016 18.5476 12.6868L17.646 13.0669C17.4259 12.899 17.192 12.7512 16.9338 12.6434L16.8137 11.6859C16.786 11.4686 16.6017 11.3051 16.3826 11.3051H14.9765C14.7572 11.3051 14.5721 11.4686 14.5452 11.6859L14.4251 12.6433C14.1668 12.7512 13.9322 12.8998 13.7129 13.0668L12.8112 12.6868C12.7136 12.6455 12.6043 12.6415 12.5039 12.6753C12.4034 12.7091 12.3189 12.7785 12.2661 12.8704L11.5624 14.0878C11.4529 14.2773 11.5016 14.519 11.6765 14.652L12.4598 15.2452C12.4425 15.3799 12.419 15.5138 12.419 15.6529C12.419 15.7929 12.4434 15.926 12.4598 16.0607L11.6765 16.6538C11.5016 16.786 11.4529 17.0277 11.5624 17.2181L12.2661 18.4364C12.3756 18.6259 12.6095 18.7051 12.8112 18.6199L13.7129 18.239C13.933 18.4069 14.1668 18.5546 14.4251 18.6625L14.5452 19.62C14.5721 19.8373 14.7564 20.0008 14.9755 20.0008H16.3816C16.6007 20.0008 16.786 19.8373 16.8129 19.6199L16.933 18.6625C17.1913 18.5546 17.4259 18.406 17.645 18.239L18.5469 18.6191C18.6445 18.6603 18.7538 18.6644 18.8542 18.6306C18.9546 18.5968 19.0392 18.5274 19.092 18.4355L19.7955 17.2173C19.905 17.0277 19.8565 16.786 19.6816 16.653L18.8991 16.0607ZM15.679 17.3921C14.7182 17.3921 13.9399 16.6138 13.9399 15.6529C13.9399 14.692 14.7182 13.9137 15.679 13.9137C16.6399 13.9137 17.4181 14.692 17.4181 15.6529C17.4181 16.6138 16.6399 17.3921 15.679 17.3921Z" fill="#4B5FF7"/>
</g>
<defs>
<clipPath id="clip0_601_125">
<rect width="20" height="20" fill="white"/>
</clipPath>
</defs>
</svg>
