<svg width="24" height="24" viewBox="0 0 24 24" fill="none" xmlns="http://www.w3.org/2000/svg">
<g clip-path="url(#clip0_601_110)">
<path d="M8.63649 3.10727C8.46602 3.00486 8.26185 2.97435 8.06888 3.02245C7.87592 3.07055 7.70996 3.19333 7.60749 3.36377L3.10749 10.8585C3.01194 11.0287 2.98647 11.2294 3.0365 11.418C3.08652 11.6066 3.20809 11.7683 3.3754 11.8688C3.54271 11.9692 3.74258 12.0005 3.93258 11.956C4.12258 11.9114 4.28774 11.7946 4.39299 11.6303L8.89299 4.13627C8.9954 3.96579 9.02591 3.76162 8.97781 3.56866C8.92971 3.37569 8.80694 3.20973 8.63649 3.10727ZM3.00024 12.75H1.50024V21.75H3.00024C3.19916 21.75 3.38992 21.671 3.53057 21.5303C3.67123 21.3897 3.75024 21.1989 3.75024 21V13.5C3.75024 13.3011 3.67123 13.1103 3.53057 12.9697C3.38992 12.829 3.19916 12.75 3.00024 12.75ZM21.6407 13.7535C21.3775 13.5946 21.0772 13.5075 20.7698 13.5008C20.4624 13.494 20.1587 13.568 19.8887 13.7153L14.977 16.3553C14.922 16.8081 14.7034 17.2253 14.3624 17.5283C14.0214 17.8313 13.5814 17.9993 13.1252 18.0008H10.1102C10.0108 18.0008 9.91541 17.9613 9.84508 17.8909C9.77475 17.8206 9.73524 17.7252 9.73524 17.6258C9.73524 17.5263 9.77475 17.4309 9.84508 17.3606C9.91541 17.2903 10.0108 17.2508 10.1102 17.2508H13.1252C13.7455 17.2508 14.2502 16.746 14.2502 16.1258C14.2494 15.8339 14.1352 15.5538 13.9317 15.3446C13.7283 15.1354 13.4514 15.0135 13.1597 15.0045C12.9347 15.0023 9.31074 15.0008 9.31074 15.0008L8.03049 13.7213C7.88987 13.5806 7.69914 13.5016 7.50024 13.5015H4.50024V21.0015H5.82474L8.25024 21.75C9.25824 22.074 10.336 22.5 11.5307 22.5C12.6107 22.5 13.6742 22.1423 14.593 21.438L21.7352 16.7108C21.9708 16.5497 22.1636 16.3336 22.2969 16.0813C22.4302 15.8289 22.5 15.5479 22.5002 15.2625C22.5002 14.6378 22.1792 14.0738 21.6407 13.7535Z" fill="#00C48C"/>
<path d="M16.5002 13.5C19.8085 13.5 22.5002 10.8082 22.5002 7.5C22.5002 4.19175 19.8085 1.5 16.5002 1.5C13.192 1.5 10.5002 4.19175 10.5002 7.5C10.5002 10.8082 13.192 13.5 16.5002 13.5ZM16.5002 7.875C15.2597 7.875 14.2502 6.8655 14.2502 5.625C14.2514 5.09423 14.4402 4.58098 14.7834 4.17606C15.1265 3.77114 15.6019 3.50066 16.1252 3.4125V2.625C16.1252 2.52554 16.1648 2.43016 16.2351 2.35984C16.3054 2.28951 16.4008 2.25 16.5002 2.25C16.5997 2.25 16.6951 2.28951 16.7654 2.35984C16.8357 2.43016 16.8752 2.52554 16.8752 2.625V3.4125C17.3986 3.50066 17.874 3.77114 18.2171 4.17606C18.5603 4.58098 18.7491 5.09423 18.7502 5.625C18.7502 5.72446 18.7107 5.81984 18.6404 5.89016C18.5701 5.96049 18.4747 6 18.3752 6C18.2758 6 18.1804 5.96049 18.1101 5.89016C18.0398 5.81984 18.0002 5.72446 18.0002 5.625C18.0002 4.79775 17.3275 4.125 16.5002 4.125C15.673 4.125 15.0002 4.79775 15.0002 5.625C15.0002 6.45225 15.673 7.125 16.5002 7.125C17.7407 7.125 18.7502 8.1345 18.7502 9.375C18.7491 9.90577 18.5603 10.419 18.2171 10.8239C17.874 11.2289 17.3986 11.4993 16.8752 11.5875V12.375C16.8752 12.4745 16.8357 12.5698 16.7654 12.6402C16.6951 12.7105 16.5997 12.75 16.5002 12.75C16.4008 12.75 16.3054 12.7105 16.2351 12.6402C16.1648 12.5698 16.1252 12.4745 16.1252 12.375V11.5875C15.6019 11.4993 15.1265 11.2289 14.7834 10.8239C14.4402 10.419 14.2514 9.90577 14.2502 9.375C14.2502 9.27554 14.2898 9.18016 14.3601 9.10983C14.4304 9.03951 14.5258 9 14.6252 9C14.7247 9 14.8201 9.03951 14.8904 9.10983C14.9607 9.18016 15.0002 9.27554 15.0002 9.375C15.0002 10.2023 15.673 10.875 16.5002 10.875C17.3275 10.875 18.0002 10.2023 18.0002 9.375C18.0002 8.54775 17.3275 7.875 16.5002 7.875Z" fill="#00C48C"/>
<path d="M8.62524 12C9.66078 12 10.5002 11.1605 10.5002 10.125C10.5002 9.08947 9.66078 8.25 8.62524 8.25C7.58971 8.25 6.75024 9.08947 6.75024 10.125C6.75024 11.1605 7.58971 12 8.62524 12Z" fill="#00C48C"/>
<path d="M3.37524 6.75C4.41078 6.75 5.25024 5.91053 5.25024 4.875C5.25024 3.83947 4.41078 3 3.37524 3C2.33971 3 1.50024 3.83947 1.50024 4.875C1.50024 5.91053 2.33971 6.75 3.37524 6.75Z" fill="#00C48C"/>
</g>
<defs>
<clipPath id="clip0_601_110">
<rect width="24" height="24" fill="white"/>
</clipPath>
</defs>
</svg>
