<svg width="20" height="20" viewBox="0 0 20 20" fill="none" xmlns="http://www.w3.org/2000/svg">
<g clip-path="url(#clip0_601_131)">
<path d="M17.2728 17.5467V15.7285C17.2728 15.5164 17.2425 15.3043 17.1819 15.1224C17.3334 15.0012 17.4546 14.88 17.5758 14.7588C19.9091 12.4255 19.8788 8.60729 17.5455 6.27396C16.5455 5.27396 15.2425 4.6679 13.8182 4.57699L14.394 3.30426C14.4546 3.15275 14.394 2.97093 14.2425 2.91032L14.697 1.88002L14.9697 2.00123C15.0001 2.03153 15.0607 2.03153 15.091 2.03153C15.2122 2.03153 15.3334 1.97093 15.3637 1.84971C15.4243 1.6982 15.3637 1.51638 15.2122 1.45578L14.6667 1.21335L13.9697 0.910321L12.7273 0.334563C12.5758 0.273957 12.394 0.334563 12.3334 0.486078C12.2728 0.637594 12.3334 0.819412 12.4849 0.880018L12.7576 1.00123L12.3031 2.03153C12.2425 2.00123 12.1516 2.00123 12.091 2.03153C12.0304 2.06184 11.9697 2.12244 11.9091 2.18305L8.90914 8.91032C8.87884 8.97093 8.87884 9.06184 8.90914 9.15275C8.93945 9.21335 9.00005 9.30426 9.06066 9.33456L9.15157 9.36487L8.66672 10.4558C8.63642 10.5164 8.63642 10.6073 8.66672 10.6982C8.69702 10.7588 8.75763 10.8194 8.81823 10.88L10.0001 11.4255C10.0304 11.4558 10.091 11.4558 10.1213 11.4558C10.2425 11.4558 10.3637 11.3952 10.394 11.274L10.8788 10.183L10.9697 10.2134C11.0001 10.2437 11.0607 10.2437 11.091 10.2437C11.2122 10.2437 11.3334 10.183 11.3637 10.0618L13.5455 5.21335C14.8788 5.27396 16.1516 5.81941 17.091 6.75881C19.2122 8.84971 19.2122 12.274 17.1213 14.3649C17.0304 14.4558 16.9394 14.5467 16.8485 14.6073C16.5152 14.2134 16.0304 13.9406 15.4546 13.9406C14.4546 13.9406 13.6667 14.7588 13.6667 15.7285V15.9103C12.394 16.0012 11.1213 15.6376 10.1213 14.88H11.7879C11.9697 14.88 12.091 14.7588 12.091 14.577V13.0315C12.091 12.8497 11.9697 12.7285 11.7879 12.7285H6.12126C5.93945 12.7285 5.81823 12.8497 5.81823 13.0315V14.577C5.81823 14.7588 5.93945 14.88 6.12126 14.88H9.18187C10.3031 15.9406 11.7576 16.5164 13.2728 16.5164C13.394 16.5164 13.5455 16.5164 13.6667 16.4861V17.4861H7.57581C6.5152 17.4861 5.69702 18.3346 5.69702 19.3952C5.69702 19.577 5.81823 19.6982 6.00005 19.6982H18.4849C18.6364 19.6982 18.7879 19.577 18.7879 19.3952C18.7879 18.4861 18.1516 17.7285 17.2728 17.5467ZM15.7273 16.3346H15.2122C15.0304 16.3346 14.9091 16.183 14.9091 16.0315C14.9091 15.8497 15.0304 15.7285 15.2122 15.7285H15.7273C15.8788 15.7285 16.0304 15.8497 16.0304 16.0315C16.0304 16.183 15.9091 16.3346 15.7273 16.3346ZM4.96975 0.30426C2.60611 0.30426 0.697021 2.21335 0.697021 4.57699C0.697021 6.94062 2.60611 8.84972 4.96975 8.84972C7.33339 8.84972 9.24248 6.94062 9.24248 4.57699C9.24248 2.21335 7.33339 0.30426 4.96975 0.30426ZM6.09096 2.42547H6.5152C6.66672 2.42547 6.81823 2.54668 6.81823 2.7285C6.81823 2.91032 6.66672 3.03153 6.5152 3.03153H6.09096C5.90914 3.03153 5.78793 2.91032 5.78793 2.7285C5.78793 2.54668 5.93945 2.42547 6.09096 2.42547ZM3.03035 2.97093C3.09096 2.97093 3.57581 2.94062 3.66672 2.48608C3.75763 2.12244 3.96975 2.00123 4.12126 1.97093C4.4849 1.91032 4.78793 2.30426 4.87884 2.45578C4.96975 2.60729 4.93945 2.78911 4.78793 2.88002C4.63642 2.97093 4.4546 2.94062 4.36369 2.78911C4.33339 2.7285 4.30308 2.6679 4.24248 2.63759C4.06066 3.33456 3.36369 3.54668 3.03035 3.57699C2.87884 3.57699 2.72732 3.45578 2.72732 3.27396C2.72732 3.12244 2.84854 2.97093 3.03035 2.97093ZM2.36369 4.6982C2.36369 4.51638 2.5152 4.39517 2.66672 4.39517H3.09096C3.27278 4.39517 3.39399 4.51638 3.39399 4.6982C3.39399 4.88002 3.27278 5.00123 3.09096 5.00123H2.66672C2.5152 5.00123 2.36369 4.88002 2.36369 4.6982ZM5.4849 7.00123C5.36369 7.21335 5.12126 7.30426 4.78793 7.30426H4.54551C3.27278 7.15275 2.93945 6.12244 2.90914 6.09214C2.84854 5.94062 2.93945 5.75881 3.09096 5.6982C3.24248 5.63759 3.42429 5.7285 3.4849 5.88002C3.4849 5.91032 3.72732 6.57699 4.60611 6.6679C4.90914 6.6982 4.96975 6.6679 4.96975 6.6679C4.96975 6.63759 4.93945 6.51638 4.87884 6.42547C4.78793 6.27396 4.84854 6.09214 4.96975 6.00123C5.12126 5.91032 5.30308 5.97093 5.39399 6.09214C5.4546 6.21335 5.72732 6.6679 5.4849 7.00123ZM6.96975 6.91032H6.54551C6.36369 6.91032 6.24248 6.78911 6.24248 6.60729C6.24248 6.42547 6.36369 6.30426 6.54551 6.30426H6.96975C7.12126 6.30426 7.27278 6.42547 7.27278 6.60729C7.27278 6.78911 7.15157 6.91032 6.96975 6.91032ZM7.81823 4.81941C7.78793 5.00123 7.69702 5.12244 7.54551 5.24365C7.4849 5.27396 7.4546 5.27396 7.39399 5.27396C7.30308 5.27396 7.18187 5.21335 7.12126 5.12244C7.03036 5.00123 7.06066 4.81941 7.21217 4.7285C7.21217 4.6982 7.18187 4.6679 7.15157 4.60729C6.84854 4.6679 6.30308 4.7285 5.75763 4.36487C5.75763 4.36487 5.72732 4.36487 5.72732 4.33456C5.69702 4.42547 5.60611 4.51638 5.5152 4.54668C5.36369 4.57699 5.18187 4.48608 5.15157 4.33456C5.09096 4.12244 5.12126 3.88002 5.30308 3.7285C5.60611 3.51638 5.96975 3.75881 6.09096 3.84971C6.57581 4.18305 7.12126 3.97093 7.15157 3.97093C7.27278 3.94062 7.39399 3.94062 7.4849 4.03153C7.5152 4.12244 7.84854 4.48608 7.81823 4.81941Z" fill="#FF6464"/>
</g>
<defs>
<clipPath id="clip0_601_131">
<rect width="20" height="20" fill="white"/>
</clipPath>
</defs>
</svg>
