<svg width="44" height="46" viewBox="0 0 44 46" fill="none" xmlns="http://www.w3.org/2000/svg">
<rect y="0.5" width="44" height="44.6567" rx="3.28358" fill="#6241D4"/>
<path d="M24.9891 33.3382H18.97C17.8743 33.3382 17.8743 31.6993 18.97 31.6993H24.9891C26.0848 31.6993 26.0848 33.3382 24.9891 33.3382ZM29.3418 36.6192H14.6169C13.5212 36.6192 13.5212 34.9803 14.6169 34.9803H29.3418C30.4375 34.9803 30.4375 36.6192 29.3418 36.6192ZM21.1519 9.03711C17.5026 9.23268 14.2166 10.6927 11.6885 12.9479L14.8436 16.0708C16.5247 14.6243 18.6782 13.6438 21.1519 13.4625V9.03711ZM11.0413 23.4739C11.2171 21.0866 12.1675 18.9713 13.6742 17.2312L10.5118 14.1009C8.21808 16.6226 6.75957 19.8042 6.56714 23.4739H11.0413ZM11.0339 25.1128H6.56714C6.74007 28.3352 7.90276 31.2976 9.78366 33.6881C10.071 34.0531 10.6178 34.0928 10.9743 33.7934L13.1113 32.0015C13.4586 31.7102 13.4929 31.2083 13.218 30.8489C11.9462 29.1854 11.1877 27.1933 11.0339 25.1128ZM35.1998 16.3859C34.4529 17.2938 33.3443 18.6403 32.105 20.1426C32.6455 21.4231 32.9623 22.8183 32.9623 24.2933C32.9661 26.6756 32.1758 28.9925 30.7139 30.8849C30.4475 31.2302 30.5229 31.7273 30.8585 32.007L32.9859 33.7796C33.3468 34.0804 33.8995 34.0392 34.189 33.6703C36.2965 30.99 37.4382 27.6893 37.4328 24.293C37.4332 21.3532 36.6016 18.6672 35.1998 16.3859ZM34.2144 14.9863C31.5082 11.5297 27.3697 9.28185 22.8076 9.0382V13.4665C25.6448 13.6806 28.5592 14.9895 30.6285 17.6088C30.6285 17.6088 20.7714 24.8513 20.4208 25.1987C20.0376 25.5828 19.8234 26.1013 19.8251 26.641C19.8268 27.1808 20.0442 27.698 20.4298 28.0797C20.8154 28.4614 21.3379 28.6765 21.8832 28.6782C22.4285 28.6799 22.9524 28.4679 23.3404 28.0886C23.8628 27.5711 34.2144 14.9863 34.2144 14.9863Z" fill="white"/>
</svg>
