<svg width="20" height="20" viewBox="0 0 20 20" fill="none" xmlns="http://www.w3.org/2000/svg">
<path fill-rule="evenodd" clip-rule="evenodd" d="M18.0484 17.9344V10.5102H7.77305C7.73387 10.5102 7.69516 10.5018 7.65951 10.4855C7.62386 10.4693 7.59211 10.4456 7.56641 10.416L5.17656 7.66055C4.96211 7.41328 4.6875 7.28828 4.36055 7.28828H3.11836C2.47461 7.28828 1.95117 7.81172 1.95117 8.45547V17.9352C1.95117 18.5789 2.47461 19.1023 3.11836 19.1023H16.8812C17.525 19.1016 18.0484 18.5781 18.0484 17.9344ZM12.7539 13.5664V16.2934H11.3633V17.6836H8.63633V16.2934H7.24609V13.5664H8.63633V12.1758H11.3633V13.566H12.7539V13.5664ZM14.8852 9.96328V2.66875C14.8852 2.51758 14.7629 2.39531 14.6117 2.39531H5.66172V0.898438H16.2992V9.96289H14.8852V9.96328ZM14.3383 9.96328V2.94219H3.70078V6.74062H4.36055C4.84648 6.74062 5.27148 6.93477 5.58984 7.30156L7.89805 9.96289H14.3383V9.96328ZM8.04141 8.2625H12.4664C12.6176 8.2625 12.7398 8.38477 12.7398 8.53594C12.7398 8.68711 12.6176 8.80938 12.4664 8.80938H8.04141C7.89023 8.80938 7.76797 8.68711 7.76797 8.53594C7.76758 8.38477 7.89023 8.2625 8.04141 8.2625ZM12.466 6.82187H6.7457C6.59453 6.82187 6.47227 6.69961 6.47227 6.54844C6.47227 6.39727 6.59453 6.275 6.7457 6.275H12.466C12.6172 6.275 12.7395 6.39727 12.7395 6.54844C12.7395 6.69961 12.6172 6.82187 12.466 6.82187ZM12.466 4.83477H5.38828C5.23711 4.83477 5.11484 4.7125 5.11484 4.56133C5.11484 4.41016 5.23711 4.28789 5.38828 4.28789H12.466C12.6172 4.28789 12.7395 4.41016 12.7395 4.56133C12.7395 4.7125 12.6172 4.83477 12.466 4.83477ZM16.984 8.81367C17.5773 8.86602 18.0414 9.36836 18.0484 9.96328H16.8461V8.81289C16.9066 8.81328 16.9641 8.81367 16.984 8.81367ZM12.207 14.1129V15.7465H10.8164V17.1367H9.1832V15.7465H7.79297V14.1129H9.1832V12.7227H10.8164V14.1129H12.207Z" fill="#AD8CFF"/>
</svg>
