<svg width="28" height="28" viewBox="0 0 28 28" fill="none" xmlns="http://www.w3.org/2000/svg">
<g clip-path="url(#clip0_601_103)">
<path d="M9.46196 26.6C9.85032 26.6 10.2479 26.5978 10.6542 26.5978H18.345C18.7507 26.5978 19.1483 26.6 19.5366 26.6C23.0952 26.6 25.8142 26.418 25.8142 22.6979C25.8142 18.8042 22.8364 15.6078 19.0335 15.2603C19.0032 16.6225 14.5008 19.9842 14.5008 19.9842C14.5008 19.9842 9.99732 16.6228 9.9668 15.2606C6.1644 15.6078 3.18604 18.8042 3.18604 22.6979C3.18604 26.418 5.904 26.6 9.46196 26.6ZM17.86 21.52C17.86 21.4091 17.96 21.3198 18.0843 21.3198H19.3006V20.104C19.3006 19.9808 19.3894 19.8797 19.5002 19.8797H20.7006C20.8109 19.8797 20.9002 19.98 20.9002 20.104V21.32H22.116C22.2392 21.32 22.34 21.4094 22.34 21.5202V22.72C22.34 22.8309 22.24 22.9202 22.116 22.9202H20.9V24.136C20.9 24.2598 20.8104 24.36 20.6998 24.36H19.5C19.3891 24.36 19.2998 24.26 19.2998 24.136V22.92H18.084C17.9602 22.92 17.8597 22.8306 17.8597 22.7198L17.86 21.52Z" fill="#FF6464"/>
<path d="M14.5023 16.2378C17.9418 16.2378 20.7298 11.0659 20.7298 7.62663C20.7298 4.18795 17.9418 1.39999 14.5023 1.39999C11.0634 1.39999 8.27539 4.18795 8.27539 7.62663C8.27539 11.0659 11.0634 16.2378 14.5023 16.2378Z" fill="#FF6464"/>
</g>
<defs>
<clipPath id="clip0_601_103">
<rect width="28" height="28" fill="white"/>
</clipPath>
</defs>
</svg>
