<svg width="29" height="28" viewBox="0 0 29 28" fill="none" xmlns="http://www.w3.org/2000/svg">
<g clip-path="url(#clip0_601_205)">
<path d="M17.0883 11.1803C16.6424 10.4481 15.8653 10.011 15.0095 10.011C14.3239 10.011 13.6898 10.2883 13.224 10.792C12.808 11.2408 12.5773 11.8304 12.5781 12.4424C12.5781 13.7831 13.6688 14.8739 15.0095 14.8739C16.3502 14.8739 17.441 13.7831 17.441 12.4424C17.441 12.1928 17.4035 11.9469 17.3294 11.7116C17.2707 11.5255 17.1898 11.3471 17.0883 11.1803ZM15.6272 16.4507H14.3917C13.0482 16.4507 11.8136 17.1263 11.0894 18.258C10.6852 18.8888 10.4705 19.6223 10.4709 20.3715V23.0798H19.5481V20.3715C19.5484 19.6223 19.3338 18.8888 18.9296 18.258C18.2053 17.1263 16.9708 16.4507 15.6272 16.4507Z" fill="#FF6464"/>
<path d="M10.307 12.0233C12.1914 11.2435 13.0869 9.08373 12.3071 7.19929C11.5273 5.31486 9.36755 4.41937 7.48311 5.19915C5.59868 5.97894 4.70319 8.13872 5.48297 10.0232C6.26276 11.9076 8.42254 12.8031 10.307 12.0233Z" fill="#FF6464"/>
<path d="M8.94149 20.3717C8.94149 19.3283 9.23876 18.3124 9.80117 17.4337C10.4147 16.475 11.2919 15.7524 12.3061 15.3337C11.6641 14.733 11.2222 13.9217 11.0905 13.0113C10.5107 13.5135 9.81744 13.8347 8.89179 13.8347C7.71592 13.8347 6.62973 13.444 5.75588 12.7856C4.63095 13.2636 3.65819 14.073 2.97449 15.1413C2.3376 16.1353 1.99938 17.2911 2 18.4716V21.4818H8.94149V20.3717Z" fill="#FF6464"/>
<path d="M23.7164 11.2249C25.1585 9.7828 25.1585 7.44474 23.7164 6.00266C22.2743 4.56059 19.9362 4.56059 18.4942 6.00266C17.0521 7.44474 17.0521 9.7828 18.4942 11.2249C19.9362 12.667 22.2743 12.667 23.7164 11.2249Z" fill="#FF6464"/>
<path d="M27.0256 15.1413C26.3419 14.0731 25.3692 13.2637 24.2442 12.7856C23.3703 13.444 22.2841 13.8348 21.1083 13.8348C20.1873 13.8348 19.504 13.4886 18.9351 12.9617C18.8125 13.8923 18.3665 14.7222 17.7129 15.3337C18.727 15.7524 19.6043 16.4751 20.2178 17.4338C20.7797 18.3106 21.078 19.3303 21.0775 20.3717V21.4818H28.0001V18.4716C28.0001 17.289 27.6631 16.1375 27.0256 15.1413Z" fill="#FF6464"/>
</g>
<defs>
<clipPath id="clip0_601_205">
<rect width="26" height="26" fill="white" transform="translate(2 1)"/>
</clipPath>
</defs>
</svg>
