<svg width="49" height="44" viewBox="0 0 49 44" fill="none" xmlns="http://www.w3.org/2000/svg">
<path fill-rule="evenodd" clip-rule="evenodd" d="M17.4774 22.4463C16.9597 22.6271 16.4818 22.7879 15.964 22.9688C15.745 21.6626 15.6255 20.3162 15.6255 18.9296C15.6255 11.3739 19.0705 4.5013 24.4073 0.0200806V2.71283C20.2255 6.79215 17.6367 12.5796 17.6367 18.9296C17.6367 19.8339 17.6766 20.7985 17.816 21.6626L17.4774 22.4463ZM39.9597 41.4362C34.6628 41.4362 29.784 39.5272 25.9208 36.3923C25.403 35.9502 24.8853 35.5282 24.4073 35.046C21.6991 32.3934 19.6679 29.0978 18.5528 25.4003L17.338 28.0328C18.5926 31.2078 20.4844 34.0412 22.8541 36.3722C23.332 36.8545 23.8498 37.3368 24.3675 37.7588C28.5892 41.3157 34.0255 43.4457 39.9199 43.4457C42.887 43.4457 45.7745 42.9233 48.4031 41.8783L46.0732 40.5319C44.1814 41.1348 42.1104 41.4362 39.9597 41.4362Z" fill="#767676"/>
<path fill-rule="evenodd" clip-rule="evenodd" d="M22.9338 36.4326C23.4117 36.9148 23.9294 37.3971 24.4472 37.8191C20.2255 41.3358 14.7891 43.4659 8.89476 43.4659C5.92765 43.4659 3.0402 42.9434 0.411621 41.8984L2.7415 40.5521C4.73284 41.1147 6.7441 41.4162 8.89476 41.4162C14.1917 41.4362 19.1104 39.5674 22.9338 36.4326ZM33.229 18.9096C33.229 11.3538 29.784 4.48122 24.4472 0V2.69275C28.6688 6.77207 31.2576 12.5595 31.2576 18.9096C31.2576 19.7335 31.2178 20.5574 31.1381 21.3411C30.9191 23.431 30.4013 25.3802 29.6645 27.2491C28.5095 30.203 26.6974 32.8556 24.487 35.0259C24.9649 35.5082 25.4827 35.9302 26.0004 36.3723C27.932 34.4632 29.5849 32.1925 30.7797 29.6806C31.8152 27.5907 32.552 25.2998 32.9303 22.9085C33.1095 21.6626 33.229 20.3162 33.229 18.9096Z" fill="#767676"/>
<path fill-rule="evenodd" clip-rule="evenodd" d="M48.4827 41.9185L46.1529 40.5721C44.4204 33.5388 39.3823 27.7916 32.8905 25.139L36.0766 32.1723C37.5502 35.3473 38.4065 36.0909 39.9199 36.3521C40.0992 36.3923 40.0992 37.3167 39.9199 37.3569H30.8394C30.6602 37.3167 30.6602 36.3923 30.8394 36.3521C32.6117 36.131 33.2489 35.1866 32.1338 32.735L30.7598 29.7408C31.7953 27.6509 32.532 25.36 32.9104 22.9687C40.9554 26.0031 47.0291 33.1771 48.4827 41.9185ZM31.1182 21.3611C30.8991 23.451 30.3814 25.4002 29.6446 27.2691L27.9719 23.7524C26.8169 23.5716 25.642 23.451 24.4472 23.451C22.6351 23.451 20.9225 23.672 19.19 24.094L18.5926 25.4002L17.3779 28.0528L15.8246 31.5293C14.2714 35.0861 15.048 36.0909 16.8601 36.4325C17.0394 36.5129 16.9796 37.2966 16.8203 37.3368H9.37268C9.19346 37.2966 9.15363 36.5129 9.33286 36.4325C10.6272 35.9502 11.6627 35.2067 13.4749 31.2077L16.2827 24.9983C9.65147 27.6509 4.57354 33.4383 2.76141 40.552L0.411621 41.9185C1.88522 33.1771 7.95883 25.9629 15.964 22.9687C16.442 22.7879 16.9597 22.6271 17.4775 22.4462L17.816 21.7027L24.029 8.05809C24.2082 7.97771 24.8454 7.97771 25.0247 8.05809L31.1182 21.3611ZM26.9961 21.562L23.6307 14.2072L20.2255 21.763C21.5996 21.542 22.9736 21.3812 24.4472 21.3812C25.3035 21.4415 26.1797 21.4817 26.9961 21.562Z" fill="#767676"/>
</svg>
