<svg width="28" height="28" viewBox="0 0 28 28" fill="none" xmlns="http://www.w3.org/2000/svg">
<path fill-rule="evenodd" clip-rule="evenodd" d="M18.7525 27.6851V17.2575H22.2531L22.7768 13.1942H18.7512V10.5997C18.7512 9.423 19.0783 8.62057 20.7667 8.62057H22.9182V4.98539C21.8763 4.87345 20.829 4.81951 19.7811 4.82383C16.6791 4.82383 14.5559 6.71816 14.5559 10.1958V13.1942H11.0446V17.2575H14.5546V27.6851H1.76007C0.938785 27.6851 0.273682 27.02 0.273682 26.1987V2.2442C0.273682 1.42292 0.938785 0.757812 1.76007 0.757812H25.7146C26.5358 0.757812 27.2009 1.42292 27.2009 2.2442V26.1987C27.2009 27.02 26.5358 27.6851 25.7146 27.6851H18.7525Z" fill="#5B47FB"/>
</svg>
