<svg width="2655" height="1989" viewBox="0 0 2655 1989" fill="none" xmlns="http://www.w3.org/2000/svg">
<path d="M2576.7 4C2520.3 23.1945 2409.06 106.797 2415.32 287.653C2423.14 513.722 2593.76 655.192 2636.41 868.465C2667.9 1025.88 2663.43 1420.13 2471.48 1585.77" stroke="url('#paint0_linear_601_297')" stroke-width="7.78561"></path>
<path d="M2499.87 50.6555C2443.48 69.8501 2332.24 153.453 2338.5 334.308C2346.32 560.377 2516.94 701.848 2559.59 915.121C2591.07 1072.53 2586.61 1466.79 2394.66 1632.43" stroke="url('#paint1_linear_601_297')" stroke-width="7.78561"></path>
<path d="M2421.88 95.3423C2365.48 114.537 2254.25 198.14 2260.51 378.995C2268.33 605.064 2438.94 746.535 2481.6 959.807C2513.08 1117.22 2508.61 1511.47 2316.67 1677.11" stroke="url('#paint2_linear_601_297')" stroke-width="7.78561"></path>
<path d="M2342.8 138.074C2286.4 157.269 2175.17 240.872 2181.43 421.727C2189.25 647.796 2359.86 789.267 2402.52 1002.54C2434 1159.95 2429.53 1554.2 2237.59 1719.85" stroke="url('#paint3_linear_601_297')" stroke-width="7.78561"></path>
<path d="M2262.65 178.765C2206.25 197.96 2095.02 281.563 2101.28 462.418C2109.1 688.487 2279.71 829.958 2322.37 1043.23C2353.85 1200.64 2349.38 1594.9 2157.44 1760.54" stroke="url('#paint4_linear_601_297')" stroke-width="7.78561"></path>
<path d="M2181.43 217.265C2125.03 236.46 2013.79 320.063 2020.05 500.918C2027.87 726.987 2198.49 868.458 2241.14 1081.73C2272.62 1239.14 2268.16 1633.4 2076.21 1799.04" stroke="url('#paint5_linear_601_297')" stroke-width="7.78561"></path>
<path d="M2099.11 253.363C2042.71 272.558 1931.47 356.161 1937.73 537.016C1945.55 763.085 2116.17 904.556 2158.82 1117.83C2190.3 1275.24 2185.84 1669.49 1993.89 1835.14" stroke="url('#paint6_linear_601_297')" stroke-width="7.78561"></path>
<path d="M2015.66 286.787C1959.27 305.982 1848.03 389.585 1854.29 570.44C1862.11 796.509 2032.73 937.98 2075.38 1151.25C2106.86 1308.66 2102.4 1702.92 1910.45 1868.56" stroke="url('#paint7_linear_601_297')" stroke-width="7.78561"></path>
<path d="M1931.07 317.189C1874.68 336.384 1763.44 419.987 1769.7 600.842C1777.52 826.911 1948.14 968.382 1990.79 1181.65C2022.27 1339.07 2017.81 1733.32 1825.86 1898.96" stroke="url('#paint8_linear_601_297')" stroke-width="7.78561"></path>
<path d="M1845.32 344.127C1788.92 363.321 1677.69 446.924 1683.94 627.78C1691.76 853.848 1862.38 995.319 1905.04 1208.59C1936.52 1366 1932.05 1760.26 1740.1 1925.9" stroke="url('#paint9_linear_601_297')" stroke-width="7.78561"></path>
<path d="M1758.4 367.043C1702 386.238 1590.77 469.84 1597.03 650.696C1604.85 876.765 1775.46 1018.24 1818.12 1231.51C1849.6 1388.92 1845.13 1783.17 1653.19 1948.81" stroke="url('#paint10_linear_601_297')" stroke-width="7.78561"></path>
<path d="M1670.37 385.227C1613.97 404.422 1502.74 488.024 1509 668.88C1516.82 894.949 1687.44 1036.42 1730.09 1249.69C1761.57 1407.1 1757.1 1801.36 1565.16 1967" stroke="url('#paint11_linear_601_297')" stroke-width="7.78561"></path>
<path d="M1581.37 397.779C1524.97 416.974 1413.74 500.577 1419.99 681.432C1427.81 907.501 1598.43 1048.97 1641.08 1262.24C1672.57 1419.66 1668.1 1813.91 1476.15 1979.55" stroke="url('#paint12_linear_601_297')" stroke-width="7.78561"></path>
<path d="M1491.67 403.571C1435.27 422.766 1324.03 506.368 1330.29 687.224C1338.11 913.293 1508.73 1054.76 1551.38 1268.04C1582.87 1425.45 1578.4 1819.7 1386.45 1985.34" stroke="url('#paint13_linear_601_297')" stroke-width="7.78561"></path>
<path d="M1401.81 401.215C1345.41 420.409 1234.18 504.012 1240.43 684.867C1248.25 910.936 1418.87 1052.41 1461.53 1265.68C1493.01 1423.09 1488.54 1817.34 1296.59 1982.99" stroke="url('#paint14_linear_601_297')" stroke-width="7.78561"></path>
<path d="M1312.74 389.108C1256.34 408.303 1145.11 491.906 1151.37 672.761C1159.19 898.83 1329.8 1040.3 1372.46 1253.57C1403.94 1410.98 1399.47 1805.24 1207.53 1970.88" stroke="url('#paint15_linear_601_297')" stroke-width="7.78561"></path>
<path d="M1225.98 365.622C1169.58 384.816 1058.34 468.419 1064.6 649.274C1072.42 875.343 1243.04 1016.81 1285.69 1230.09C1317.17 1387.5 1312.71 1781.75 1120.76 1947.39" stroke="url('#paint16_linear_601_297')" stroke-width="7.78561"></path>
<path d="M1128.73 323.181C1072.34 342.375 961.103 425.978 967.359 606.833C975.179 832.902 1145.8 974.373 1188.45 1187.65C1219.93 1345.06 1215.47 1739.31 1023.52 1904.95" stroke="url('#paint17_linear_601_297')" stroke-width="7.78561"></path>
<path d="M1045.42 289.441C989.02 308.635 877.786 392.238 884.042 573.093C891.862 799.162 1062.48 940.633 1105.13 1153.91C1136.62 1311.32 1132.15 1705.57 940.204 1871.21" stroke="url('#paint18_linear_601_297')" stroke-width="7.78561"></path>
<path d="M959.602 262.7C903.203 281.895 791.97 365.498 798.226 546.353C806.046 772.422 976.664 913.893 1019.32 1127.17C1050.8 1284.58 1046.33 1678.83 854.388 1844.47" stroke="url('#paint19_linear_601_297')" stroke-width="7.78561"></path>
<path d="M871.872 243.123C815.473 262.318 704.239 345.92 710.495 526.776C718.315 752.845 888.933 894.315 931.588 1107.59C963.07 1265 958.603 1659.25 766.657 1824.89" stroke="url('#paint20_linear_601_297')" stroke-width="7.78561"></path>
<path d="M782.846 230.707C726.447 249.902 615.214 333.504 621.47 514.36C629.29 740.429 799.908 881.899 842.563 1095.17C874.045 1252.58 869.577 1646.84 677.632 1812.48" stroke="url('#paint21_linear_601_297')" stroke-width="7.78561"></path>
<path d="M693.122 225.297C636.723 244.491 525.489 328.094 531.745 508.949C539.565 735.018 710.183 876.489 752.838 1089.76C784.32 1247.17 779.853 1641.43 587.907 1807.07" stroke="url('#paint22_linear_601_297')" stroke-width="7.78561"></path>
<path d="M603.245 226.614C546.846 245.809 435.612 329.412 441.868 510.267C449.688 736.336 620.307 877.807 662.961 1091.08C694.443 1248.49 689.976 1642.74 498.03 1808.39" stroke="url('#paint23_linear_601_297')" stroke-width="7.78561"></path>
<path d="M513.688 234.305C457.289 253.499 346.056 337.102 352.312 517.957C360.132 744.026 530.75 885.497 573.404 1098.77C604.887 1256.18 600.419 1650.43 408.474 1816.08" stroke="url('#paint24_linear_601_297')" stroke-width="7.78561"></path>
<path d="M424.846 247.975C368.447 267.169 257.214 350.772 263.47 531.627C271.29 757.696 441.908 899.167 484.563 1112.44C516.045 1269.85 511.577 1664.1 319.632 1829.75" stroke="url('#paint25_linear_601_297')" stroke-width="7.78561"></path>
<path d="M337.045 267.229C280.647 286.424 169.413 370.027 175.669 550.882C183.489 776.951 354.107 918.422 396.762 1131.69C428.244 1289.11 423.776 1683.36 231.831 1849" stroke="url('#paint26_linear_601_297')" stroke-width="7.78561"></path>
<path d="M250.553 291.707C194.155 310.902 82.921 394.504 89.177 575.36C96.997 801.429 267.615 942.899 310.27 1156.17C341.752 1313.58 337.284 1707.84 145.339 1873.48" stroke="url('#paint27_linear_601_297')" stroke-width="7.78561"></path>
<path d="M165.629 321.101C109.231 340.295 -2.00281 423.898 4.25319 604.753C12.0732 830.822 182.691 972.293 225.346 1185.57C256.828 1342.98 252.36 1737.23 60.415 1902.87" stroke="url('#paint28_linear_601_297')" stroke-width="7.78561"></path>
<defs>
<linearGradient id="paint0_linear_601_297" x1="2533.07" y1="4" x2="2533.07" y2="1585.77" gradientUnits="userSpaceOnUse">
<stop stop-color="white" stop-opacity="0"></stop>
<stop offset="1" stop-color="white"></stop>
</linearGradient>
<linearGradient id="paint1_linear_601_297" x1="2456.25" y1="50.6555" x2="2456.25" y2="1632.43" gradientUnits="userSpaceOnUse">
<stop stop-color="white" stop-opacity="0"></stop>
<stop offset="1" stop-color="white"></stop>
</linearGradient>
<linearGradient id="paint2_linear_601_297" x1="2378.26" y1="95.3423" x2="2378.26" y2="1677.11" gradientUnits="userSpaceOnUse">
<stop stop-color="white" stop-opacity="0"></stop>
<stop offset="1" stop-color="white"></stop>
</linearGradient>
<linearGradient id="paint3_linear_601_297" x1="2299.18" y1="138.074" x2="2299.18" y2="1719.85" gradientUnits="userSpaceOnUse">
<stop stop-color="white" stop-opacity="0"></stop>
<stop offset="1" stop-color="white"></stop>
</linearGradient>
<linearGradient id="paint4_linear_601_297" x1="2219.03" y1="178.765" x2="2219.03" y2="1760.54" gradientUnits="userSpaceOnUse">
<stop stop-color="white" stop-opacity="0"></stop>
<stop offset="1" stop-color="white"></stop>
</linearGradient>
<linearGradient id="paint5_linear_601_297" x1="2137.8" y1="217.265" x2="2137.8" y2="1799.04" gradientUnits="userSpaceOnUse">
<stop stop-color="white" stop-opacity="0"></stop>
<stop offset="1" stop-color="white"></stop>
</linearGradient>
<linearGradient id="paint6_linear_601_297" x1="2055.48" y1="253.363" x2="2055.48" y2="1835.14" gradientUnits="userSpaceOnUse">
<stop stop-color="white" stop-opacity="0"></stop>
<stop offset="1" stop-color="white"></stop>
</linearGradient>
<linearGradient id="paint7_linear_601_297" x1="1972.04" y1="286.787" x2="1972.04" y2="1868.56" gradientUnits="userSpaceOnUse">
<stop stop-color="white" stop-opacity="0"></stop>
<stop offset="1" stop-color="white"></stop>
</linearGradient>
<linearGradient id="paint8_linear_601_297" x1="1887.45" y1="317.189" x2="1887.45" y2="1898.96" gradientUnits="userSpaceOnUse">
<stop stop-color="white" stop-opacity="0"></stop>
<stop offset="1" stop-color="white"></stop>
</linearGradient>
<linearGradient id="paint9_linear_601_297" x1="1801.7" y1="344.127" x2="1801.7" y2="1925.9" gradientUnits="userSpaceOnUse">
<stop stop-color="white" stop-opacity="0"></stop>
<stop offset="1" stop-color="white"></stop>
</linearGradient>
<linearGradient id="paint10_linear_601_297" x1="1714.78" y1="367.043" x2="1714.78" y2="1948.81" gradientUnits="userSpaceOnUse">
<stop stop-color="white" stop-opacity="0"></stop>
<stop offset="1" stop-color="white"></stop>
</linearGradient>
<linearGradient id="paint11_linear_601_297" x1="1626.75" y1="385.227" x2="1626.75" y2="1967" gradientUnits="userSpaceOnUse">
<stop stop-color="white" stop-opacity="0"></stop>
<stop offset="1" stop-color="white"></stop>
</linearGradient>
<linearGradient id="paint12_linear_601_297" x1="1537.74" y1="397.779" x2="1537.74" y2="1979.55" gradientUnits="userSpaceOnUse">
<stop stop-color="white" stop-opacity="0"></stop>
<stop offset="1" stop-color="white"></stop>
</linearGradient>
<linearGradient id="paint13_linear_601_297" x1="1448.04" y1="403.571" x2="1448.04" y2="1985.34" gradientUnits="userSpaceOnUse">
<stop stop-color="white" stop-opacity="0"></stop>
<stop offset="1" stop-color="white"></stop>
</linearGradient>
<linearGradient id="paint14_linear_601_297" x1="1358.19" y1="401.215" x2="1358.19" y2="1982.99" gradientUnits="userSpaceOnUse">
<stop stop-color="white" stop-opacity="0"></stop>
<stop offset="1" stop-color="white"></stop>
</linearGradient>
<linearGradient id="paint15_linear_601_297" x1="1269.12" y1="389.108" x2="1269.12" y2="1970.88" gradientUnits="userSpaceOnUse">
<stop stop-color="white" stop-opacity="0"></stop>
<stop offset="1" stop-color="white"></stop>
</linearGradient>
<linearGradient id="paint16_linear_601_297" x1="1182.35" y1="365.622" x2="1182.35" y2="1947.39" gradientUnits="userSpaceOnUse">
<stop stop-color="white" stop-opacity="0"></stop>
<stop offset="1" stop-color="white"></stop>
</linearGradient>
<linearGradient id="paint17_linear_601_297" x1="1085.11" y1="323.181" x2="1085.11" y2="1904.95" gradientUnits="userSpaceOnUse">
<stop stop-color="white" stop-opacity="0"></stop>
<stop offset="1" stop-color="white"></stop>
</linearGradient>
<linearGradient id="paint18_linear_601_297" x1="1001.79" y1="289.441" x2="1001.79" y2="1871.21" gradientUnits="userSpaceOnUse">
<stop stop-color="white" stop-opacity="0"></stop>
<stop offset="1" stop-color="white"></stop>
</linearGradient>
<linearGradient id="paint19_linear_601_297" x1="915.979" y1="262.7" x2="915.979" y2="1844.47" gradientUnits="userSpaceOnUse">
<stop stop-color="white" stop-opacity="0"></stop>
<stop offset="1" stop-color="white"></stop>
</linearGradient>
<linearGradient id="paint20_linear_601_297" x1="828.248" y1="243.123" x2="828.248" y2="1824.89" gradientUnits="userSpaceOnUse">
<stop stop-color="white" stop-opacity="0"></stop>
<stop offset="1" stop-color="white"></stop>
</linearGradient>
<linearGradient id="paint21_linear_601_297" x1="739.223" y1="230.707" x2="739.223" y2="1812.48" gradientUnits="userSpaceOnUse">
<stop stop-color="white" stop-opacity="0"></stop>
<stop offset="1" stop-color="white"></stop>
</linearGradient>
<linearGradient id="paint22_linear_601_297" x1="649.498" y1="225.297" x2="649.498" y2="1807.07" gradientUnits="userSpaceOnUse">
<stop stop-color="white" stop-opacity="0"></stop>
<stop offset="1" stop-color="white"></stop>
</linearGradient>
<linearGradient id="paint23_linear_601_297" x1="559.621" y1="226.614" x2="559.621" y2="1808.39" gradientUnits="userSpaceOnUse">
<stop stop-color="white" stop-opacity="0"></stop>
<stop offset="1" stop-color="white"></stop>
</linearGradient>
<linearGradient id="paint24_linear_601_297" x1="470.065" y1="234.305" x2="470.065" y2="1816.08" gradientUnits="userSpaceOnUse">
<stop stop-color="white" stop-opacity="0"></stop>
<stop offset="1" stop-color="white"></stop>
</linearGradient>
<linearGradient id="paint25_linear_601_297" x1="381.223" y1="247.975" x2="381.223" y2="1829.75" gradientUnits="userSpaceOnUse">
<stop stop-color="white" stop-opacity="0"></stop>
<stop offset="1" stop-color="white"></stop>
</linearGradient>
<linearGradient id="paint26_linear_601_297" x1="293.422" y1="267.229" x2="293.422" y2="1849" gradientUnits="userSpaceOnUse">
<stop stop-color="white" stop-opacity="0"></stop>
<stop offset="1" stop-color="white"></stop>
</linearGradient>
<linearGradient id="paint27_linear_601_297" x1="206.93" y1="291.707" x2="206.93" y2="1873.48" gradientUnits="userSpaceOnUse">
<stop stop-color="white" stop-opacity="0"></stop>
<stop offset="1" stop-color="white"></stop>
</linearGradient>
<linearGradient id="paint28_linear_601_297" x1="122.006" y1="321.101" x2="122.006" y2="1902.87" gradientUnits="userSpaceOnUse">
<stop stop-color="white" stop-opacity="0"></stop>
<stop offset="1" stop-color="white"></stop>
</linearGradient>
</defs>
</svg>
