<svg width="611" height="565" viewBox="0 0 611 565" fill="none" xmlns="http://www.w3.org/2000/svg">
<mask id="mask0_601_277" style="mask-type: luminance" maskUnits="userSpaceOnUse" x="0" y="0" width="611" height="565">
<path d="M0.5 0H610.5V565H0.5V0Z" fill="white"></path>
</mask>
<g mask="url('#mask0_601_277')">
<path d="M510.183 330.496C508.16 354.392 502.902 377.478 494.812 399.754C477.418 446.736 446.675 488.858 405.011 518.424C342.716 562.571 257.769 573.101 184.148 559.331C111.741 545.965 29.626 501.413 5.75998 426.08C-7.99302 381.933 7.37799 337.381 31.244 300.119C53.492 265.288 76.144 236.126 78.976 192.789C81.808 147.427 48.638 96.3949 66.841 53.4629C100.01 -22.6801 233.903 -2.42909 301.456 22.2769C351.615 40.9069 392.875 70.4739 426.45 108.546C438.989 124.341 456.788 147.832 463.664 158.363C470.137 168.893 476.204 179.424 481.867 190.359C498.452 221.951 507.756 256.377 510.183 291.209C511.396 304.574 511.396 317.535 510.183 330.496Z" fill="#6944BA" fill-opacity="0.1"></path>
<path d="M463.664 158.768C457.191 158.768 451.124 159.578 444.652 160.793C421.999 165.248 400.156 176.588 382.762 194.004C372.244 204.535 354.85 204.535 344.333 194.004C333.816 183.474 333.816 166.058 344.333 155.528C362.941 136.897 384.784 123.126 408.246 114.621C414.313 112.596 419.976 110.571 426.044 109.355C440.202 124.341 452.742 140.947 463.664 158.768Z" fill="#171F5E"></path>
<path d="M123.066 457.266C105.267 475.087 84.233 488.452 61.176 496.958C59.153 497.768 57.131 498.173 55.513 498.983C50.7281 494.597 46.1389 490.002 41.759 485.212C39.737 483.187 38.119 481.162 36.501 479.137L34.478 477.112C32.86 475.492 31.647 473.872 30.433 471.847C29.624 470.632 28.815 469.821 28.006 468.606C27.197 467.391 26.388 466.581 25.984 465.366C24.366 463.341 23.152 461.316 21.534 458.886C21.13 458.076 20.725 457.266 19.916 456.456C41.76 452.001 69.671 436.61 86.256 420.004C96.368 409.879 112.953 409.879 123.47 420.004C133.583 430.535 133.583 447.14 123.066 457.266Z" fill="#6241D4"></path>
<path d="M85.4479 390.438C87.8759 388.008 91.5159 388.008 93.9429 390.438L151.788 448.355C154.215 450.785 154.215 454.431 151.788 456.861C149.882 458.786 147.614 460.314 145.115 461.356C142.615 462.399 139.934 462.936 137.225 462.936C134.517 462.936 131.836 462.399 129.336 461.356C126.836 460.314 124.568 458.786 122.663 456.861L85.4479 419.599C83.525 417.689 81.999 415.417 80.9576 412.915C79.9162 410.412 79.3801 407.729 79.3801 405.018C79.3801 402.308 79.9162 399.624 80.9576 397.122C81.999 394.62 83.525 392.348 85.4479 390.438Z" fill="#5B47FB"></path>
<path d="M296.6 285.538L254.531 327.254L294.982 367.756L336.647 326.039C347.973 314.699 347.973 296.473 336.647 285.538C325.725 274.197 307.522 274.197 296.6 285.538ZM215.698 204.534L174.033 246.656L214.484 287.158L256.149 245.441C267.475 234.101 267.475 215.875 256.149 204.94C245.227 193.599 227.024 193.599 215.698 204.534Z" fill="#5E64A5"></path>
<path d="M157.45 230.051L84.639 303.359C61.581 326.445 61.581 364.112 84.639 387.603L154.214 457.671C177.271 480.757 214.89 480.757 238.352 457.671L311.568 384.363L157.45 230.051Z" fill="#6241D4"></path>
<path d="M595.129 313.484C576.926 350.34 540.925 383.147 494.811 399.752C502.901 377.476 508.16 353.985 510.182 330.494C526.362 319.559 538.498 304.573 546.183 289.587C560.746 260.426 559.128 226.81 542.138 200.078C527.576 176.992 504.114 162.412 476.203 159.577C472.158 159.172 468.113 158.767 463.663 159.172C457.191 159.172 451.124 159.982 444.652 161.197C421.999 165.652 400.156 176.992 382.762 194.408C372.244 204.939 354.85 204.939 344.333 194.408C333.816 183.878 333.816 166.462 344.333 155.932C362.941 137.301 384.784 123.53 408.246 115.025C414.313 113 419.976 110.975 426.044 109.759C444.247 105.304 462.854 104.089 481.462 106.114C525.958 110.975 563.577 134.061 587.443 171.322C615.355 213.444 618.186 266.906 595.129 313.484Z" fill="#6944BA"></path>
<path d="M331.391 144.186C328.964 146.617 328.964 150.262 331.391 152.692L388.831 210.204C391.258 212.634 394.899 212.634 397.326 210.204C399.249 208.294 400.775 206.022 401.816 203.52C402.857 201.017 403.393 198.334 403.393 195.623C403.393 192.913 402.857 190.23 401.816 187.727C400.775 185.225 399.249 182.953 397.326 181.043L360.111 143.781C352.021 136.086 339.076 136.086 331.391 144.186Z" fill="#5B47FB"></path>
<path d="M171.203 216.685L244.419 143.377C267.476 120.291 305.096 120.291 328.557 143.377L398.537 213.445C421.594 236.531 421.594 274.198 398.537 297.689L325.321 370.592L171.203 216.685ZM390.446 428.509C390.041 428.509 389.232 428.104 388.828 427.699L384.783 423.649C383.974 422.839 383.974 421.624 384.783 420.814C385.592 420.004 386.805 420.004 387.614 420.814L391.659 424.864C392.468 425.674 392.468 426.889 391.659 427.699C391.659 428.509 390.85 428.509 390.446 428.509ZM386.401 417.573C385.996 417.573 385.187 417.168 384.783 416.763C383.974 415.953 383.974 414.738 384.783 413.928L388.828 409.878C389.637 409.068 390.85 409.068 391.659 409.878C392.468 410.688 392.468 411.903 391.659 412.713L387.614 416.763C387.614 417.573 386.805 417.573 386.401 417.573ZM379.526 417.573C379.121 417.573 378.312 417.168 377.908 416.763L373.863 412.713C373.054 411.903 373.054 410.688 373.863 409.878C374.672 409.068 375.885 409.068 376.694 409.878L380.739 413.928C381.548 414.738 381.548 415.953 380.739 416.763C380.335 417.573 379.93 417.573 379.526 417.573ZM375.481 428.509C375.076 428.509 374.267 428.104 373.863 427.699C373.054 426.889 373.054 425.674 373.863 424.864L377.908 420.814C378.717 420.004 379.93 420.004 380.739 420.814C381.548 421.624 381.548 422.839 380.739 423.649L376.694 427.699C376.29 428.509 375.885 428.509 375.481 428.509Z" fill="#6944BA"></path>
<path d="M180.1 104.9C179.291 104.9 178.482 104.495 178.077 104.09L172.414 98.4199C171.201 97.2039 171.201 95.5839 172.414 94.3699C173.628 93.1539 175.246 93.1539 176.459 94.3699L182.122 100.04C183.336 101.255 183.336 102.875 182.122 104.09C181.313 104.495 180.909 104.9 180.1 104.9ZM174.437 89.5099C173.628 89.5099 172.819 89.1039 172.414 88.6999C171.201 87.4839 171.201 85.8639 172.414 84.6489L178.077 78.9789C179.291 77.7639 180.909 77.7639 182.122 78.9789C183.336 80.1939 183.336 81.8139 182.122 83.0289L176.459 88.6989C175.65 89.1039 175.246 89.5099 174.437 89.5099ZM164.731 89.5099C163.922 89.5099 163.113 89.1039 162.708 88.6999L157.045 83.0289C155.831 81.8139 155.831 80.1939 157.045 78.9789C158.258 77.7639 159.876 77.7639 161.09 78.9789L166.753 84.6489C167.967 85.8639 167.967 87.4839 166.753 88.6989C165.944 89.1039 165.135 89.5099 164.731 89.5099ZM159.067 104.9C158.258 104.9 157.449 104.495 157.045 104.09C155.831 102.875 155.831 101.255 157.045 100.04L162.708 94.3699C163.922 93.1539 165.54 93.1539 166.753 94.3699C167.967 95.5839 167.967 97.2039 166.753 98.4199L161.09 104.09C160.281 104.495 159.876 104.9 159.067 104.9Z" fill="#6241D4"></path>
<path d="M26.2489 209.877C21.3949 209.877 17.3489 205.827 17.3489 200.966C17.3489 196.106 21.3949 192.461 26.2489 192.461C31.1029 192.461 35.1479 196.511 35.1479 200.966C35.1479 205.422 30.6989 209.877 26.2489 209.877ZM26.2489 195.701C23.0129 195.701 20.5859 198.131 20.5859 201.371C20.5859 204.611 23.0129 207.042 26.2489 207.042C29.4849 207.042 31.9119 204.611 31.9119 201.371C31.5069 198.131 29.0799 195.701 26.2489 195.701Z" fill="#6944BA"></path>
</g>
</svg>
