<svg width="171" height="34" viewBox="0 0 171 34" fill="none" xmlns="http://www.w3.org/2000/svg">
<path d="M164.442 3.53711C165.118 3.53711 165.766 3.8055 166.244 4.28325C166.721 4.76099 166.99 5.40895 166.99 6.08458V23.9169C166.99 24.5925 166.721 25.2405 166.244 25.7182C165.766 26.196 165.118 26.4644 164.442 26.4644H146.61C145.934 26.4644 145.286 26.196 144.809 25.7182C144.331 25.2405 144.062 24.5925 144.062 23.9169V6.08458C144.062 5.40895 144.331 4.76099 144.809 4.28325C145.286 3.8055 145.934 3.53711 146.61 3.53711H164.442ZM163.805 23.28V16.5292C163.805 15.4279 163.368 14.3718 162.589 13.593C161.81 12.8143 160.754 12.3768 159.653 12.3768C158.57 12.3768 157.309 13.0392 156.698 14.0327V12.6188H153.144V23.28H156.698V17.0005C156.698 16.0197 157.488 15.2173 158.468 15.2173C158.941 15.2173 159.395 15.4051 159.729 15.7396C160.064 16.074 160.252 16.5276 160.252 17.0005V23.28H163.805ZM149.005 10.6191C149.572 10.6191 150.116 10.3936 150.518 9.99233C150.919 9.59102 151.144 9.04674 151.144 8.47921C151.144 7.29463 150.189 6.32659 149.005 6.32659C148.434 6.32659 147.886 6.55338 147.482 6.95708C147.079 7.36077 146.852 7.9083 146.852 8.47921C146.852 9.66378 147.82 10.6191 149.005 10.6191ZM150.775 23.28V12.6188H147.247V23.28H150.775Z" fill="#7A7A7A"></path>
<path fill-rule="evenodd" clip-rule="evenodd" d="M112.673 26.4644V17.5858H115.654L116.1 14.1261H112.672V11.917C112.672 10.9151 112.951 10.2319 114.388 10.2319H116.22V7.13669C115.333 7.04137 114.441 6.99545 113.549 6.99912C110.908 6.99912 109.1 8.61206 109.1 11.5731V14.1261H106.11V17.5858H109.099V26.4644H98.205C97.5058 26.4644 96.9395 25.8981 96.9395 25.1988V4.80269C96.9395 4.10341 97.5058 3.53711 98.205 3.53711H118.601C119.3 3.53711 119.867 4.10341 119.867 4.80269V25.1988C119.867 25.8981 119.3 26.4644 118.601 26.4644H112.673Z" fill="#7A7A7A"></path>
<path d="M61.8556 3.53711C63.221 3.54075 63.914 3.54803 64.5123 3.56502L64.7477 3.57352C65.0196 3.58323 65.2878 3.59536 65.6119 3.60993C66.9032 3.67061 67.7843 3.87451 68.5574 4.17428C69.3584 4.48255 70.0332 4.90005 70.708 5.57363C71.3254 6.18013 71.803 6.91408 72.1074 7.72422C72.4071 8.49732 72.611 9.37844 72.6717 10.671C72.6863 10.9938 72.6984 11.262 72.7081 11.5351L72.7154 11.7706C72.7336 12.3677 72.7409 13.0607 72.7433 14.426L72.7445 15.3314V16.9213C72.7475 17.8066 72.7382 18.6918 72.7166 19.5768L72.7093 19.8122C72.6996 20.0853 72.6875 20.3535 72.6729 20.6764C72.6122 21.9689 72.4059 22.8488 72.1074 23.6231C71.803 24.4333 71.3254 25.1672 70.708 25.7737C70.1015 26.3911 69.3676 26.8687 68.5574 27.1731C67.7843 27.4728 66.9032 27.6767 65.6119 27.7374L64.7477 27.7738L64.5123 27.7811C63.914 27.7981 63.221 27.8066 61.8556 27.809L60.9502 27.8102H59.3615C58.4759 27.8134 57.5902 27.8041 56.7048 27.7823L56.4694 27.775C56.1813 27.7641 55.8932 27.7516 55.6053 27.7374C54.3139 27.6767 53.4328 27.4728 52.6585 27.1731C51.8488 26.8685 51.1153 26.391 50.5091 25.7737C49.8913 25.1673 49.4133 24.4334 49.1086 23.6231C48.8088 22.85 48.6049 21.9689 48.5442 20.6764L48.5078 19.8122L48.5017 19.5768C48.4794 18.6918 48.4692 17.8066 48.4714 16.9213V14.426C48.468 13.5408 48.4769 12.6556 48.4981 11.7706L48.5066 11.5351C48.5163 11.262 48.5284 10.9938 48.543 10.671C48.6037 9.37844 48.8076 8.49854 49.1073 7.72422C49.4128 6.91374 49.8916 6.17977 50.5103 5.57363C51.1161 4.95654 51.8492 4.479 52.6585 4.17428C53.4328 3.87451 54.3127 3.67061 55.6053 3.60993C55.9281 3.59536 56.1975 3.58323 56.4694 3.57352L56.7048 3.56624C57.5898 3.54467 58.4751 3.53537 59.3603 3.53832L61.8556 3.53711ZM60.608 9.60539C58.9985 9.60539 57.4551 10.2447 56.317 11.3828C55.179 12.5208 54.5397 14.0643 54.5397 15.6737C54.5397 17.2831 55.179 18.8266 56.317 19.9646C57.4551 21.1026 58.9985 21.742 60.608 21.742C62.2174 21.742 63.7609 21.1026 64.8989 19.9646C66.0369 18.8266 66.6762 17.2831 66.6762 15.6737C66.6762 14.0643 66.0369 12.5208 64.8989 11.3828C63.7609 10.2447 62.2174 9.60539 60.608 9.60539ZM60.608 12.0327C61.0861 12.0326 61.5596 12.1267 62.0013 12.3096C62.4431 12.4925 62.8445 12.7607 63.1827 13.0987C63.5208 13.4367 63.7891 13.8381 63.9721 14.2798C64.1552 14.7215 64.2495 15.1949 64.2495 15.6731C64.2496 16.1512 64.1555 16.6247 63.9726 17.0665C63.7897 17.5082 63.5216 17.9096 63.1835 18.2478C62.8455 18.586 62.4442 18.8542 62.0025 19.0373C61.5608 19.2203 61.0873 19.3146 60.6092 19.3146C59.6435 19.3146 58.7174 18.931 58.0346 18.2482C57.3518 17.5654 56.9682 16.6393 56.9682 15.6737C56.9682 14.708 57.3518 13.7819 58.0346 13.0991C58.7174 12.4163 59.6435 12.0327 60.6092 12.0327M66.9809 7.78491C66.5785 7.78491 66.1926 7.94474 65.9081 8.22925C65.6236 8.51375 65.4638 8.89963 65.4638 9.30198C65.4638 9.70433 65.6236 10.0902 65.9081 10.3747C66.1926 10.6592 66.5785 10.819 66.9809 10.819C67.3832 10.819 67.7691 10.6592 68.0536 10.3747C68.3381 10.0902 68.4979 9.70433 68.4979 9.30198C68.4979 8.89963 68.3381 8.51375 68.0536 8.22925C67.7691 7.94474 67.3832 7.78491 66.9809 7.78491Z" fill="#7A7A7A"></path>
<path d="M3.46766 2.86328C1.55503 2.86328 0 4.41831 0 6.33094V23.6692C0 25.5819 1.55503 27.1369 3.46766 27.1369H20.806C22.7186 27.1369 24.2736 25.5819 24.2736 23.6692V6.33094C24.2736 4.41831 22.7186 2.86328 20.806 2.86328H3.46766ZM19.5652 7.41458L13.9411 13.8406L20.5567 22.5856H15.3769L11.3241 17.2812L6.68066 22.5856H4.10701L10.1212 15.7099L3.7765 7.41458H9.08635L12.7545 12.2639L16.9915 7.41458H19.5652ZM17.5171 21.0468L8.31155 8.87208H6.77819L16.0867 21.0468H17.5117H17.5171Z" fill="#6241D4"></path>
</svg>
