<svg width="76" height="79" viewBox="0 0 76 79" fill="none" xmlns="http://www.w3.org/2000/svg">
<rect width="76" height="79" rx="38" fill="#F7F6FF"></rect>
<path d="M57.1663 27.5391V53.4141C57.1663 56.59 48.5854 59.1641 37.9997 59.1641C27.4139 59.1641 18.833 56.59 18.833 53.4141V27.5391" stroke="#6241D4" stroke-width="2" stroke-linecap="round" stroke-linejoin="round"></path>
<path d="M57.1663 44.7891C57.1663 47.965 48.5854 50.5391 37.9997 50.5391C27.4139 50.5391 18.833 47.965 18.833 44.7891M57.1663 36.1641C57.1663 39.34 48.5854 41.9141 37.9997 41.9141C27.4139 41.9141 18.833 39.34 18.833 36.1641" stroke="#6241D4" stroke-width="2" stroke-linecap="round" stroke-linejoin="round"></path>
<path d="M37.9997 32.332C48.5851 32.332 57.1663 29.7577 57.1663 26.582C57.1663 23.4064 48.5851 20.832 37.9997 20.832C27.4142 20.832 18.833 23.4064 18.833 26.582C18.833 29.7577 27.4142 32.332 37.9997 32.332Z" fill="#6241D4" stroke="#6241D4" stroke-width="2" stroke-linecap="round" stroke-linejoin="round"></path>
</svg>
