<svg width="76" height="79" viewBox="0 0 76 79" fill="none" xmlns="http://www.w3.org/2000/svg">
<rect width="76" height="79" rx="38" fill="#6241D4"></rect>
<path d="M42.9602 55.0548H33.039C31.233 55.0548 31.233 52.3535 33.039 52.3535H42.9602C44.7662 52.3535 44.7662 55.0548 42.9602 55.0548ZM50.1347 60.4629H25.8639C24.0579 60.4629 24.0579 57.7616 25.8639 57.7616H50.1347C51.9407 57.7616 51.9407 60.4629 50.1347 60.4629ZM36.6354 15C30.6204 15.3224 25.2041 17.729 21.0371 21.446L26.2375 26.5935C29.0085 24.2092 32.5581 22.5932 36.6354 22.2942V15ZM19.9703 38.7958C20.2602 34.8608 21.8267 31.3743 24.3102 28.5061L19.0976 23.3465C15.3169 27.503 12.9129 32.7472 12.5957 38.7958H19.9703ZM19.9582 41.4971H12.5957C12.8807 46.8085 14.7972 51.6914 17.8974 55.6317C18.3711 56.2332 19.2723 56.2986 19.8599 55.8052L23.3823 52.8517C23.9548 52.3715 24.0112 51.5443 23.5582 50.9518C21.4619 48.2099 20.2117 44.9264 19.9582 41.4971ZM59.7902 27.1128C58.5591 28.6093 56.7318 30.8286 54.6892 33.3049C55.5801 35.4155 56.1023 37.7152 56.1023 40.1464C56.1085 44.0731 54.8058 47.892 52.3962 51.0112C51.9571 51.5803 52.0814 52.3997 52.6345 52.8607L56.1411 55.7824C56.736 56.2782 57.6469 56.2104 58.1242 55.6023C61.5978 51.1844 63.4797 45.744 63.4708 40.1458C63.4714 35.3002 62.1008 30.8731 59.7902 27.1128ZM58.1661 24.8059C53.7055 19.1084 46.884 15.4034 39.3644 15.0018V22.3008C44.0409 22.6538 48.8447 24.8113 52.2555 29.1286C52.2555 29.1286 36.0083 41.0661 35.4303 41.6388C34.7987 42.2718 34.4457 43.1264 34.4485 44.0161C34.4513 44.9058 34.8096 45.7583 35.4452 46.3874C36.0808 47.0165 36.942 47.3712 37.8408 47.374C38.7397 47.3767 39.6031 47.0273 40.2426 46.4021C41.1038 45.5491 58.1661 24.8059 58.1661 24.8059Z" fill="white"></path>
</svg>
