<svg width="44" height="46" viewBox="0 0 44 46" fill="none" xmlns="http://www.w3.org/2000/svg">
<rect y="0.656738" width="44" height="44.6567" rx="3.28358" fill="#6241D4"></rect>
<g clip-path="url('#clip0_9_338')">
<path d="M23.7859 34.3302C23.794 34.34 23.8015 34.3504 23.8084 34.3611C24.9822 36.1877 26.979 37.2782 29.15 37.2782C32.6513 37.2782 35.5001 34.4279 35.5001 30.9245C35.5001 28.8561 34.4889 26.9121 32.7955 25.7239C32.7837 25.7158 32.7725 25.7069 32.762 25.6972C32.7496 25.6909 32.7376 25.6837 32.7262 25.6757C31.6682 24.9553 30.4316 24.5745 29.15 24.5745C28.7177 24.5745 28.285 24.6181 27.8647 24.7037C25.3422 25.2226 23.3985 27.1911 22.9135 29.7185C22.8356 30.101 22.7966 30.5056 22.7966 30.9246C22.7966 32.1261 23.1325 33.2925 23.7679 34.2977C23.7745 34.308 23.7806 34.3191 23.7859 34.3302ZM18.5107 36.0031L23.0622 36.0119L23.1472 34.5617C22.4811 33.4712 22.1299 32.2159 22.1299 30.9245C22.1299 30.6387 22.1465 30.3581 22.1794 30.086C19.7409 30.5388 17.2753 29.7793 15.5041 28.0078C14.0835 26.5891 13.3012 24.7024 13.3012 22.695C13.3012 20.6875 14.0835 18.8005 15.5041 17.3816C16.9228 15.9627 18.8099 15.1813 20.8171 15.1813C22.8243 15.1813 24.7114 15.9627 26.1303 17.3817C27.8729 19.1241 28.6389 21.5594 28.2225 23.9683C28.53 23.9279 28.8398 23.9077 29.15 23.9077C30.5279 23.9077 31.859 24.3062 33.0068 25.0614L34.1224 25.0015L34.1341 20.45L31.3498 20.2889C31.2794 20.2848 31.2121 20.2584 31.1576 20.2137C31.1031 20.1689 31.0641 20.108 31.0464 20.0397C30.8058 19.1127 30.4364 18.219 29.9484 17.3835C29.9127 17.3225 29.8974 17.2517 29.9046 17.1814C29.9118 17.1111 29.9411 17.0449 29.9884 16.9924L31.8566 14.9152L28.6446 11.6915L26.5613 13.5478C26.5087 13.5948 26.4425 13.6239 26.3723 13.6308C26.3021 13.6377 26.2315 13.6221 26.1707 13.5862C25.3334 13.0938 24.4411 12.7213 23.518 12.4788C23.4496 12.4608 23.3887 12.4215 23.3441 12.3667C23.2994 12.3119 23.2734 12.2443 23.2696 12.1737L23.1234 9.38947L18.5722 9.37793L18.411 12.1622C18.407 12.2326 18.3807 12.2999 18.336 12.3545C18.2912 12.409 18.2303 12.4479 18.162 12.4656C17.2349 12.7062 16.341 13.0756 15.506 13.5636C15.4449 13.5992 15.3742 13.6146 15.3038 13.6074C15.2335 13.6003 15.1673 13.571 15.1147 13.5237L13.0375 11.6552L9.81388 14.8641L11.6704 16.9507C11.7172 17.0034 11.7462 17.0696 11.753 17.1398C11.7599 17.21 11.7444 17.2805 11.7087 17.3414C11.2162 18.1783 10.8435 19.0707 10.601 19.9941C10.5831 20.0625 10.544 20.1234 10.4892 20.168C10.4344 20.2126 10.3668 20.2386 10.2963 20.2423L7.5088 20.3886L7.5 24.9396L10.2846 25.1008C10.355 25.1048 10.4224 25.1311 10.4769 25.1758C10.5314 25.2206 10.5703 25.2815 10.588 25.3499C10.8276 26.2734 11.1957 27.1676 11.683 28.0068C11.7184 28.0677 11.7336 28.1383 11.7263 28.2083C11.7191 28.2784 11.6898 28.3444 11.6427 28.3968L9.77741 30.4743L12.9868 33.698L15.0728 31.8415C15.1256 31.7947 15.192 31.7657 15.2623 31.7589C15.3326 31.7521 15.4032 31.7677 15.4641 31.8035C16.292 32.2929 17.1836 32.6656 18.1136 32.9109C18.1818 32.9288 18.2426 32.968 18.2872 33.0227C18.3318 33.0774 18.3578 33.1448 18.3616 33.2153L18.5107 36.0031ZM20.8171 15.848C18.9879 15.848 17.2685 16.5601 15.9755 17.8531C14.6809 19.1463 13.9679 20.8657 13.9679 22.6949C13.9679 24.524 14.6809 26.2434 15.9755 27.5361C17.649 29.21 20.0016 29.8933 22.3028 29.3803C22.8874 26.7614 24.9034 24.7187 27.519 24.0976C27.995 21.8243 27.3051 19.4994 25.6589 17.8532C24.366 16.5601 22.6462 15.848 20.8171 15.848ZM29.1483 36.4627C26.0954 36.4627 23.6117 33.9789 23.6117 30.9262C23.6117 27.8734 26.0955 25.3896 29.1483 25.3896C32.201 25.3896 34.6848 27.8734 34.6848 30.9262C34.6848 33.9789 32.2011 36.4627 29.1483 36.4627ZM29.1483 26.0562C26.463 26.0562 24.2783 28.2409 24.2783 30.9262C24.2783 33.6115 26.4629 35.7961 29.1483 35.7961C31.8336 35.7961 34.0182 33.6115 34.0182 30.9262C34.0182 28.2409 31.8336 26.0562 29.1483 26.0562ZM27.8657 32.9336C27.811 32.9337 27.7571 32.9203 27.7088 32.8947C27.6605 32.869 27.6193 32.8318 27.5887 32.7865L26.4917 31.1559C26.4424 31.0825 26.4242 30.9925 26.4412 30.9058C26.4581 30.819 26.5088 30.7425 26.5822 30.693C26.6556 30.6437 26.7455 30.6255 26.8323 30.6425C26.9191 30.6594 26.9956 30.7102 27.045 30.7835L27.9565 32.1384L31.6949 29.6387C31.8476 29.5365 32.0546 29.5775 32.1572 29.7305C32.2597 29.8835 32.2184 30.0905 32.0654 30.1928L28.0506 32.8774C27.996 32.9141 27.9316 32.9337 27.8657 32.9336ZM20.8164 29.1266C20.7726 29.1267 20.7293 29.1181 20.6888 29.1013C20.6484 29.0846 20.6116 29.06 20.5806 29.0291C20.5497 28.9981 20.5251 28.9613 20.5084 28.9209C20.4917 28.8804 20.4831 28.8371 20.4831 28.7933V27.7249C20.4831 27.5407 20.6322 27.3916 20.8164 27.3916C21.0006 27.3916 21.1497 27.5407 21.1497 27.7249V28.7933C21.1497 28.8371 21.1411 28.8804 21.1244 28.9209C21.1077 28.9613 21.0831 28.9981 21.0521 29.029C21.0212 29.06 20.9844 29.0846 20.944 29.1013C20.9035 29.118 20.8602 29.1266 20.8164 29.1266ZM16.4748 27.3284C16.431 27.3284 16.3877 27.3198 16.3472 27.3031C16.3068 27.2863 16.27 27.2617 16.2391 27.2307C16.2082 27.1998 16.1836 27.163 16.1668 27.1226C16.1501 27.0822 16.1415 27.0388 16.1415 26.995C16.1415 26.9513 16.1501 26.9079 16.1668 26.8675C16.1836 26.8271 16.2082 26.7903 16.2391 26.7594L16.9947 26.0038C17.1249 25.8736 17.3358 25.8736 17.466 26.0038C17.5962 26.134 17.5962 26.3449 17.466 26.4752L16.7105 27.2307C16.6796 27.2617 16.6428 27.2863 16.6024 27.3031C16.562 27.3199 16.5186 27.3285 16.4748 27.3284ZM20.8164 22.9868L19.0673 22.9826C18.9797 22.9814 18.896 22.9457 18.8345 22.8832C18.7729 22.8208 18.7385 22.7366 18.7385 22.6489C18.7386 22.5612 18.7733 22.4771 18.8349 22.4148C18.8966 22.3525 18.9803 22.3169 19.068 22.3159L20.4831 22.3192V19.5254C20.4831 19.3413 20.6322 19.192 20.8164 19.192C21.0006 19.192 21.1497 19.3413 21.1497 19.5254V22.6534C21.1497 22.6972 21.1411 22.7406 21.1243 22.7811C21.1075 22.8216 21.0828 22.8583 21.0517 22.8892C20.9893 22.9516 20.9047 22.9867 20.8164 22.9868ZM26.9562 22.9868H25.8878C25.7036 22.9868 25.5545 22.8374 25.5545 22.6533C25.5545 22.4692 25.7036 22.32 25.8878 22.32H26.9562C27.1404 22.32 27.2895 22.4692 27.2895 22.6533C27.2895 22.8374 27.1404 22.9868 26.9562 22.9868ZM15.745 22.9868H14.6766C14.4923 22.9868 14.3433 22.8374 14.3433 22.6533C14.3433 22.4692 14.4923 22.32 14.6766 22.32H15.745C15.9292 22.32 16.0783 22.4692 16.0783 22.6533C16.0783 22.8374 15.9293 22.9868 15.745 22.9868ZM24.4024 19.4006C24.3586 19.4007 24.3153 19.3921 24.2748 19.3753C24.2344 19.3585 24.1976 19.334 24.1667 19.3029C24.1358 19.272 24.1112 19.2353 24.0945 19.1948C24.0777 19.1544 24.0691 19.111 24.0691 19.0673C24.0691 19.0235 24.0777 18.9802 24.0945 18.9397C24.1112 18.8993 24.1358 18.8625 24.1667 18.8316L24.9223 18.0762C25.0525 17.946 25.2634 17.946 25.3936 18.0762C25.5239 18.2064 25.5239 18.4175 25.3936 18.5475L24.6381 19.3029C24.6072 19.334 24.5704 19.3585 24.53 19.3753C24.4896 19.3921 24.4462 19.4007 24.4024 19.4006ZM17.2304 19.4006C17.1866 19.4007 17.1432 19.3921 17.1028 19.3753C17.0623 19.3585 17.0256 19.334 16.9947 19.3029L16.2391 18.5475C16.1089 18.4175 16.1089 18.2064 16.2391 18.0762C16.3693 17.946 16.5803 17.946 16.7105 18.0762L17.466 18.8316C17.497 18.8625 17.5216 18.8993 17.5383 18.9397C17.5551 18.9802 17.5637 19.0235 17.5637 19.0673C17.5637 19.111 17.5551 19.1544 17.5383 19.1948C17.5216 19.2353 17.497 19.272 17.466 19.3029C17.4351 19.334 17.3984 19.3585 17.358 19.3753C17.3175 19.3921 17.2742 19.4007 17.2304 19.4006ZM20.8164 17.9152C20.7726 17.9153 20.7293 17.9067 20.6888 17.8899C20.6484 17.8732 20.6116 17.8486 20.5807 17.8177C20.5497 17.7867 20.5252 17.75 20.5084 17.7095C20.4917 17.6691 20.4831 17.6257 20.4831 17.5819V16.5136C20.4831 16.3295 20.6322 16.1802 20.8164 16.1802C21.0006 16.1802 21.1497 16.3295 21.1497 16.5136V17.5819C21.1497 17.6257 21.1411 17.6691 21.1244 17.7095C21.1076 17.75 21.0831 17.7867 21.0521 17.8177C21.0212 17.8486 20.9844 17.8732 20.944 17.8899C20.9035 17.9067 20.8602 17.9153 20.8164 17.9152Z" fill="white"></path>
</g>
<defs>
<clipPath id="clip0_9_338">
<rect width="28" height="28" fill="white" transform="translate(7.5 9.32812)"></rect>
</clipPath>
</defs>
</svg>
