<svg width="44" height="45" viewBox="0 0 44 45" fill="none" xmlns="http://www.w3.org/2000/svg">
<rect width="44" height="44.6567" rx="3.28358" fill="#6241D4"></rect>
<path d="M27.8404 14.8975C27.5432 11.8759 24.9673 9.39914 21.698 9.34961C18.2306 9.34961 15.4566 12.1731 15.5061 15.5415C15.5061 17.0771 16.1006 18.5631 17.1408 19.7024C17.8343 20.495 18.2306 21.5352 18.2801 22.6745C17.9334 22.8232 17.7352 23.1699 17.7352 23.5166V26.1915C17.7352 26.7364 18.181 27.1327 18.6764 27.1327H19.2213C19.469 28.3215 20.5092 29.2132 21.7476 29.2132C22.9859 29.2132 24.0262 28.3215 24.2739 27.1327H24.8187C25.3636 27.1327 25.7599 26.6869 25.7599 26.1915V23.5166C25.7599 23.1699 25.5618 22.8232 25.215 22.6745C25.215 21.5352 25.6608 20.4455 26.3543 19.6529C27.4936 18.365 28.0385 16.6808 27.8404 14.8975ZM18.6764 23.6652H24.6701V24.4578H18.6764V23.6652ZM21.698 28.272C21.0045 28.272 20.4101 27.8262 20.212 27.1822H23.1841C22.9859 27.8262 22.3915 28.272 21.698 28.272ZM18.6764 26.2411V25.4485H24.6701V26.2411H18.6764ZM24.1252 22.625H19.2213C19.1717 21.238 18.6764 19.9997 17.8343 19.0585C16.9427 18.1173 16.4473 16.8294 16.4473 15.5415C16.4473 12.718 18.7259 10.3403 21.6485 10.3403C24.4225 10.3403 26.5525 12.4208 26.8497 14.9966C26.9983 16.4827 26.5525 17.9192 25.5618 19.0585C24.6701 19.9997 24.1748 21.2876 24.1252 22.625Z" fill="white"></path>
<path d="M23.4318 14.9472C24.3234 14.9472 25.0169 14.2537 25.0169 13.3621C25.0169 12.4705 24.3234 11.777 23.4318 11.777C22.5401 11.777 21.8467 12.4705 21.8467 13.3621V13.6098L20.1625 14.4519C19.8652 14.1547 19.469 13.9565 19.0232 13.9565C18.1315 13.9565 17.438 14.65 17.438 15.5416C17.438 16.4333 18.1315 17.1268 19.0232 17.1268C19.469 17.1268 19.8652 16.9286 20.1625 16.681L21.8467 17.5231V17.7707C21.8467 18.6624 22.5401 19.3559 23.4318 19.3559C24.3234 19.3559 25.0169 18.6624 25.0169 17.7707C25.0169 16.8791 24.3234 16.1856 23.4318 16.1856C22.986 16.1856 22.5897 16.3837 22.2925 16.6314L20.6083 15.7893C20.6578 15.5912 20.6578 15.5416 20.6083 15.3435L22.2925 14.5014C22.5897 14.7986 22.986 14.9472 23.4318 14.9472ZM23.4318 17.1763C23.7785 17.1763 24.0262 17.424 24.0262 17.7707C24.0262 18.1175 23.729 18.3651 23.4318 18.3651C23.1346 18.3651 22.8374 18.1175 22.8374 17.7707C22.8374 17.424 23.085 17.1763 23.4318 17.1763ZM19.0232 16.1361C18.6764 16.1361 18.4287 15.8884 18.4287 15.5416C18.4287 15.1949 18.6764 14.9472 19.0232 14.9472C19.3699 14.9472 19.6176 15.1949 19.6176 15.5416C19.6176 15.8884 19.3699 16.1361 19.0232 16.1361ZM23.4318 12.7677C23.7785 12.7677 24.0262 13.0154 24.0262 13.3621C24.0262 13.7089 23.7785 13.9565 23.4318 13.9565C23.085 13.9565 22.8374 13.7089 22.8374 13.3621C22.8374 13.0154 23.085 12.7677 23.4318 12.7677ZM32.0509 12.4209C31.8527 12.2228 31.5555 12.1733 31.3574 12.3714C31.1592 12.5695 31.1097 12.8668 31.3079 13.0649C33.0416 15.1454 33.0416 18.1175 31.4565 20.1979V18.811C31.4565 18.5138 31.2583 18.3156 30.9611 18.3156C30.6639 18.3156 30.4658 18.5138 30.4658 18.811V21.4363C30.4658 21.684 30.6639 21.9317 30.9611 21.9317H33.5865C33.8837 21.9317 34.0818 21.7335 34.0818 21.4363C34.0818 21.1391 33.8837 20.941 33.5865 20.941H32.1499C34.0818 18.5138 34.1314 14.8977 32.0509 12.4209ZM9.9087 21.4363C9.9087 21.7335 10.1068 21.9317 10.404 21.9317H13.0294C13.3266 21.9317 13.5248 21.684 13.5248 21.4363V18.811C13.5248 18.5138 13.3266 18.3156 13.0294 18.3156C12.7322 18.3156 12.5341 18.5138 12.5341 18.811V20.1979C11.8901 19.3559 11.4443 18.3156 11.3452 17.2258C11.1966 15.7398 11.692 14.2537 12.6827 13.1144C12.8808 12.9163 12.8313 12.5695 12.6331 12.4209C12.435 12.2228 12.0882 12.2723 11.9396 12.4705C10.8003 13.8079 10.2554 15.5416 10.404 17.3249C10.5031 18.6624 11.048 19.9503 11.8901 20.9905H10.4536C10.1564 20.941 9.9087 21.1391 9.9087 21.4363ZM22.4906 7.66557V6.82348C22.4906 6.52627 22.2925 6.32812 21.9953 6.32812C21.698 6.32812 21.4999 6.52627 21.4999 6.82348V7.66557C21.4999 7.96278 21.698 8.16092 21.9953 8.16092C22.2925 8.16092 22.4906 7.96278 22.4906 7.66557ZM17.2894 9.79558C17.4876 9.59744 17.4876 9.30023 17.2894 9.10209L16.695 8.50767C16.4969 8.30953 16.1997 8.30953 16.0015 8.50767C15.8034 8.70581 15.8034 9.00302 16.0015 9.20116L16.5959 9.79558C16.7941 9.99372 17.0913 9.99372 17.2894 9.79558ZM27.989 8.50767C27.7909 8.30953 27.4937 8.30953 27.2955 8.50767L26.7011 9.10209C26.5029 9.30023 26.5029 9.59744 26.7011 9.79558C26.8992 9.99372 27.1964 9.99372 27.3946 9.79558L27.989 9.20116C28.1871 9.00302 28.1871 8.70581 27.989 8.50767ZM9.21521 30.9471C7.2338 31.0461 5.64868 32.7303 5.64868 34.7613V37.8324C5.64868 38.1296 5.84682 38.3278 6.14403 38.3278H17.339C17.6362 38.3278 17.8343 38.1296 17.8343 37.8324V34.7613C17.8343 32.7303 16.2492 31.0957 14.2678 30.9471C14.0696 30.7489 13.822 30.5012 13.7724 30.3031C14.2678 29.8078 14.6145 29.0647 14.6145 28.2722V26.9843C14.9613 26.687 15.209 26.2412 15.209 25.7459C15.209 24.8047 14.4659 24.0617 13.5248 24.0617C13.2275 24.0617 12.9303 24.1608 12.6827 24.3094C12.3359 24.1608 11.9396 24.0617 11.5929 24.0617C10.0078 24.0617 8.71986 25.3496 8.71986 26.9347C8.71986 27.331 8.81893 27.6777 8.918 28.0245V28.2722C8.918 29.0647 9.26474 29.8078 9.76009 30.3031C9.66102 30.5012 9.41335 30.7489 9.21521 30.9471ZM16.8436 34.7613V37.3371H15.308V35.3557C15.308 35.0585 15.1099 34.8603 14.8127 34.8603C14.5155 34.8603 14.3173 35.0585 14.3173 35.3557V37.3371H9.16567V35.3557C9.16567 35.0585 8.96753 34.8603 8.67032 34.8603C8.37311 34.8603 8.17497 35.0585 8.17497 35.3557V37.3371H6.63938V34.7613C6.63938 33.2752 7.77869 32.0368 9.21521 31.9378L11.3948 34.1173C11.5929 34.3154 11.8901 34.3154 12.0882 34.1173L14.2678 31.9378C15.7043 32.0368 16.8436 33.2752 16.8436 34.7613ZM13.6238 28.2722C13.6238 29.3124 12.7817 30.1545 11.7415 30.1545C10.7013 30.1545 9.85916 29.3124 9.85916 28.2722V27.9254C9.80963 27.1329 10.8003 26.4394 11.6424 26.8852C12.7322 27.4796 13.4257 27.4301 13.4752 27.4301H13.6238V28.2722ZM11.5434 25.0524C12.0882 25.0524 12.5341 25.3001 12.4845 25.3001C12.6331 25.3991 12.8808 25.3496 13.0294 25.2505C13.0789 25.201 13.2275 25.0524 13.5248 25.0524C13.921 25.0524 14.2182 25.3496 14.2182 25.7459C14.2182 26.1422 13.921 26.4394 13.4752 26.4394C13.4752 26.4394 12.9303 26.4394 12.1378 25.9936C11.4443 25.5973 10.5527 25.5973 9.85916 26.0926C10.1068 25.4982 10.7508 25.0524 11.5434 25.0524ZM11.7415 31.1452C12.1873 31.1452 12.5836 31.0461 12.9799 30.848C13.0789 31.0461 13.2275 31.2443 13.3762 31.3929L11.7415 33.0275L10.1068 31.4424C10.2554 31.2938 10.404 31.0957 10.5031 30.8975C10.8994 31.0461 11.2957 31.1452 11.7415 31.1452ZM37.3511 34.7613C37.3511 32.7303 35.766 31.0461 33.7846 30.9471C33.5865 30.7985 33.3883 30.5012 33.2893 30.3526C34.0323 29.5601 34.4781 28.3712 34.4781 27.331C34.4781 25.5477 33.0416 24.1112 31.2583 24.1112C29.4751 24.1112 28.0385 25.5477 28.0385 27.331C28.0385 28.3712 28.4844 29.5601 29.2274 30.3526C29.1283 30.5508 28.9302 30.7985 28.732 30.9471C26.7506 31.0957 25.1655 32.7799 25.1655 34.7613V37.8324C25.1655 38.1296 25.3636 38.3278 25.6609 38.3278H36.8558C37.153 38.3278 37.3511 38.1296 37.3511 37.8324V34.7613ZM31.2583 31.3433C31.7041 31.3433 32.1499 31.1947 32.4967 30.9471C32.5958 31.0957 32.7444 31.2938 32.8434 31.3929L31.2088 33.0275L29.5741 31.3929C29.6732 31.2443 29.8218 31.0957 29.9209 30.9471C30.3667 31.1947 30.8125 31.3433 31.2583 31.3433ZM31.2583 25.0524C32.4967 25.0524 33.4874 26.0431 33.4874 27.2815C33.4874 28.6189 32.3976 30.3526 31.2583 30.3526C30.119 30.3526 29.0292 28.6189 29.0292 27.2815C29.0292 26.0431 30.0199 25.0524 31.2583 25.0524ZM36.3604 37.3371H34.8248V35.3557C34.8248 35.0585 34.6267 34.8603 34.3295 34.8603C34.0323 34.8603 33.8341 35.0585 33.8341 35.3557V37.3371H28.6825V35.3557C28.6825 35.0585 28.4844 34.8603 28.1871 34.8603C27.8899 34.8603 27.6918 35.0585 27.6918 35.3557V37.3371H26.1562V34.7613C26.1562 33.2752 27.2955 32.0368 28.732 31.9378L30.9116 34.1173C31.1097 34.3154 31.4069 34.3154 31.6051 34.1173L33.7846 31.9378C35.2211 32.0864 36.3604 33.3247 36.3604 34.7613V37.3371Z" fill="white"></path>
</svg>
