<svg width="44" height="45" viewBox="0 0 44 45" fill="none" xmlns="http://www.w3.org/2000/svg">
<rect width="44" height="44.6567" rx="3.28358" fill="#6241D4"></rect>
<path d="M24.9891 32.8382H18.97C17.8743 32.8382 17.8743 31.1993 18.97 31.1993H24.9891C26.0848 31.1993 26.0848 32.8382 24.9891 32.8382ZM29.3418 36.1192H14.6169C13.5212 36.1192 13.5212 34.4803 14.6169 34.4803H29.3418C30.4375 34.4803 30.4375 36.1192 29.3418 36.1192ZM21.1519 8.53711C17.5026 8.73268 14.2166 10.1927 11.6885 12.4479L14.8436 15.5708C16.5247 14.1243 18.6782 13.1438 21.1519 12.9625V8.53711ZM11.0413 22.9739C11.2171 20.5866 12.1675 18.4713 13.6742 16.7312L10.5118 13.6009C8.21808 16.1226 6.75957 19.3042 6.56714 22.9739H11.0413ZM11.0339 24.6128H6.56714C6.74007 27.8352 7.90276 30.7976 9.78366 33.1881C10.071 33.5531 10.6178 33.5928 10.9743 33.2934L13.1113 31.5016C13.4586 31.2102 13.4929 30.7083 13.218 30.3489C11.9462 28.6854 11.1877 26.6933 11.0339 24.6128ZM35.1998 15.8859C34.4529 16.7938 33.3443 18.1403 32.105 19.6426C32.6455 20.9231 32.9623 22.3183 32.9623 23.7933C32.9661 26.1756 32.1758 28.4925 30.7139 30.3849C30.4475 30.7302 30.5229 31.2273 30.8585 31.507L32.9859 33.2796C33.3468 33.5804 33.8995 33.5392 34.189 33.1703C36.2965 30.49 37.4382 27.1893 37.4328 23.793C37.4332 20.8532 36.6016 18.1672 35.1998 15.8859ZM34.2144 14.4863C31.5082 11.0297 27.3697 8.78185 22.8076 8.5382V12.9665C25.6448 13.1806 28.5592 14.4895 30.6285 17.1088C30.6285 17.1088 20.7714 24.3513 20.4208 24.6987C20.0376 25.0828 19.8234 25.6013 19.8251 26.141C19.8268 26.6808 20.0442 27.198 20.4298 27.5797C20.8154 27.9614 21.3379 28.1765 21.8832 28.1782C22.4285 28.1799 22.9524 27.9679 23.3404 27.5886C23.8628 27.0711 34.2144 14.4863 34.2144 14.4863Z" fill="white"></path>
</svg>
