<svg width="24" height="24" viewBox="0 0 24 24" fill="none" xmlns="http://www.w3.org/2000/svg">
<g clip-path="url('#clip0_601_120')">
<path fill-rule="evenodd" clip-rule="evenodd" d="M17.4034 10.014H13.9862V6.59679C13.9862 6.5222 13.9565 6.45067 13.9038 6.39792C13.8511 6.34518 13.7795 6.31554 13.7049 6.31554H10.2952C10.2206 6.31554 10.1491 6.34518 10.0964 6.39792C10.0436 6.45067 10.014 6.5222 10.014 6.59679V10.014H6.5968C6.52221 10.014 6.45068 10.0436 6.39793 10.0964C6.34519 10.1491 6.31555 10.2206 6.31555 10.2952V13.705C6.31555 13.7796 6.34519 13.8511 6.39793 13.9038C6.45068 13.9566 6.52221 13.9862 6.5968 13.9862H10.014V17.4034C10.014 17.478 10.0436 17.5495 10.0964 17.6023C10.1491 17.655 10.2206 17.6847 10.2952 17.6847H13.7048C13.7794 17.6847 13.8509 17.655 13.9037 17.6023C13.9564 17.5495 13.986 17.478 13.986 17.4034V13.9862H17.4032C17.4778 13.9862 17.5494 13.9566 17.6021 13.9038C17.6548 13.8511 17.6845 13.7796 17.6845 13.705V10.295C17.6845 10.2205 17.6548 10.1489 17.6021 10.0962C17.5494 10.0434 17.4778 10.0138 17.4032 10.0138L17.4034 10.014ZM2.65738 4.90409C2.87752 4.90398 3.09315 4.96642 3.27916 5.08414C3.46517 5.20186 3.6139 5.37002 3.70802 5.56902C3.80214 5.76802 3.83778 5.98966 3.81077 6.20813C3.78377 6.4266 3.69525 6.6329 3.55551 6.803L5.81774 9.00748H8.8318C8.9064 9.00748 8.97793 9.03711 9.03068 9.08986C9.08342 9.1426 9.11305 9.21414 9.11305 9.28873C9.11305 9.36332 9.08342 9.43486 9.03068 9.48761C8.97793 9.54035 8.9064 9.56998 8.8318 9.56998H5.70341C5.62993 9.56994 5.55938 9.54113 5.50687 9.48973L3.09716 7.14153C2.93834 7.20647 2.76711 7.23543 2.59577 7.22633C2.42442 7.21723 2.25722 7.17029 2.10617 7.0889C1.95512 7.0075 1.82398 6.89365 1.72216 6.75554C1.62033 6.61744 1.55036 6.45849 1.51727 6.29013C1.48418 6.12176 1.48878 5.94816 1.53076 5.78179C1.57273 5.61541 1.65103 5.4604 1.76004 5.32789C1.86904 5.19538 2.00604 5.08865 2.16119 5.01537C2.31634 4.9421 2.4858 4.90409 2.65738 4.90409ZM6.10607 2.98222C6.10607 3.14564 6.07154 3.30721 6.00474 3.45636C5.93794 3.60551 5.84039 3.73885 5.71846 3.84767L6.91687 5.92325H8.83195C8.90654 5.92325 8.97807 5.95288 9.03082 6.00562C9.08356 6.05837 9.1132 6.12991 9.1132 6.2045C9.1132 6.27909 9.08356 6.35063 9.03082 6.40337C8.97807 6.45612 8.90654 6.48575 8.83195 6.48575H6.75473C6.70533 6.48578 6.65679 6.4728 6.614 6.44811C6.57121 6.42343 6.53568 6.3879 6.51098 6.34512L5.22093 4.1105C5.13038 4.13296 5.03742 4.14424 4.94413 4.14411C4.71426 4.14415 4.48953 4.07603 4.29838 3.94834C4.10722 3.82066 3.95823 3.63916 3.87024 3.42679C3.78225 3.21442 3.75921 2.98073 3.80405 2.75526C3.84888 2.5298 3.95957 2.3227 4.12212 2.16016C4.28467 1.99761 4.49177 1.88692 4.71723 1.84208C4.94269 1.79725 5.17638 1.82028 5.38875 1.90827C5.60112 1.99626 5.78262 2.14526 5.91031 2.33641C6.03799 2.52757 6.10612 2.75234 6.10607 2.98222ZM1.16221 13.162C1.42143 13.1617 1.67313 13.0749 1.87745 12.9154C2.08176 12.7558 2.22699 12.5327 2.29012 12.2813H5.44316C5.51776 12.2813 5.58929 12.2516 5.64204 12.1989C5.69478 12.1462 5.72441 12.0746 5.72441 12C5.72441 11.9254 5.69478 11.8539 5.64204 11.8012C5.58929 11.7484 5.51776 11.7188 5.44316 11.7188H2.29012C2.23751 11.5074 2.12655 11.315 1.96989 11.1636C1.81323 11.0122 1.61717 10.9078 1.40407 10.8624C1.19098 10.8171 0.969424 10.8325 0.764675 10.907C0.559926 10.9814 0.380224 11.112 0.246062 11.2836C0.111901 11.4553 0.0286797 11.6612 0.00588975 11.8779C-0.0169002 12.0945 0.0216582 12.3133 0.117168 12.5091C0.212677 12.7049 0.361294 12.8699 0.546069 12.9854C0.730844 13.1008 0.94434 13.162 1.16221 13.162ZM8.83195 14.4303C8.90654 14.4303 8.97807 14.4599 9.03082 14.5126C9.08356 14.5654 9.1132 14.6369 9.1132 14.7115C9.1132 14.7861 9.08356 14.8576 9.03082 14.9104C8.97807 14.9631 8.90654 14.9928 8.83195 14.9928H5.81788L3.55551 17.1971C3.73529 17.4162 3.8288 17.6935 3.81847 17.9768C3.80814 18.26 3.69466 18.5297 3.49939 18.7352C3.30412 18.9407 3.04051 19.0677 2.75814 19.0924C2.47577 19.1172 2.19409 19.0379 1.96609 18.8695C1.73808 18.7011 1.57946 18.4552 1.52006 18.178C1.46065 17.9008 1.50456 17.6115 1.64352 17.3645C1.78248 17.1174 2.00692 16.9296 2.27462 16.8365C2.54232 16.7433 2.83484 16.7511 3.09716 16.8585L5.50687 14.5101C5.55951 14.4589 5.63002 14.4304 5.70341 14.4304L8.83195 14.4303ZM8.83195 18.0769H6.91687L5.71846 20.1524C5.92052 20.3336 6.05272 20.5799 6.09211 20.8484C6.1315 21.117 6.07558 21.3908 5.93407 21.6224C5.79255 21.854 5.57439 22.0287 5.31746 22.1162C5.06054 22.2037 4.78109 22.1984 4.52765 22.1013C4.27421 22.0042 4.0628 21.8214 3.93013 21.5846C3.79746 21.3478 3.75191 21.072 3.80141 20.8052C3.8509 20.5383 3.9923 20.2972 4.20106 20.1238C4.40981 19.9503 4.67272 19.8555 4.94413 19.8557C5.0374 19.8559 5.13032 19.8672 5.22093 19.8893L6.51093 17.655C6.53558 17.6122 6.5711 17.5766 6.6139 17.5519C6.65671 17.5272 6.70527 17.5143 6.75468 17.5144H8.8318C8.9064 17.5144 8.97793 17.544 9.03068 17.5967C9.08342 17.6495 9.11305 17.721 9.11305 17.7956C9.11305 17.8702 9.08342 17.9417 9.03068 17.9945C8.97793 18.0472 8.9064 18.0769 8.8318 18.0769H8.83195ZM18.4932 9.48973C18.4407 9.54113 18.3701 9.56994 18.2967 9.56998H15.1684C15.0938 9.56998 15.0222 9.54035 14.9695 9.48761C14.9167 9.43486 14.8871 9.36332 14.8871 9.28873C14.8871 9.21414 14.9167 9.1426 14.9695 9.08986C15.0222 9.03711 15.0938 9.00748 15.1684 9.00748H18.1824L20.4446 6.803C20.2648 6.58385 20.1713 6.30657 20.1816 6.02331C20.1919 5.74004 20.3054 5.47031 20.5007 5.26485C20.696 5.05938 20.9596 4.93234 21.2419 4.90762C21.5243 4.88289 21.806 4.96219 22.034 5.13059C22.262 5.299 22.4206 5.5449 22.48 5.82206C22.5394 6.09922 22.4955 6.38853 22.3566 6.63559C22.2176 6.88264 21.9932 7.07042 21.7255 7.16359C21.4578 7.25676 21.1652 7.24892 20.9029 7.14153L18.4932 9.48997V9.48973ZM15.1684 5.9232H17.0832L18.2816 3.84762C18.0795 3.66646 17.9471 3.4202 17.9076 3.15162C17.8682 2.88304 17.924 2.60912 18.0655 2.37743C18.2069 2.14575 18.4251 1.97093 18.682 1.88336C18.939 1.79578 19.2185 1.80098 19.472 1.89805C19.7255 1.99512 19.937 2.17793 20.0698 2.41472C20.2025 2.6515 20.2482 2.92731 20.1987 3.19424C20.1493 3.46116 20.0079 3.70233 19.7991 3.87585C19.5904 4.04937 19.3274 4.14429 19.0559 4.14411C18.9627 4.14424 18.8697 4.13296 18.7791 4.1105L17.4891 6.34508C17.4644 6.38786 17.4289 6.42338 17.3861 6.44807C17.3433 6.47275 17.2948 6.48573 17.2454 6.4857H15.1684C15.0938 6.4857 15.0222 6.45607 14.9695 6.40332C14.9167 6.35058 14.8871 6.27904 14.8871 6.20445C14.8871 6.12986 14.9167 6.05832 14.9695 6.00558C15.0222 5.95283 15.0938 5.9232 15.1684 5.9232ZM22.8379 10.8381C22.5787 10.8384 22.327 10.9251 22.1227 11.0847C21.9184 11.2442 21.7733 11.4674 21.7102 11.7188H18.5569C18.4823 11.7188 18.4108 11.7484 18.358 11.8012C18.3053 11.8539 18.2757 11.9254 18.2757 12C18.2757 12.0746 18.3053 12.1462 18.358 12.1989C18.4108 12.2516 18.4823 12.2813 18.5569 12.2813H21.7102C21.7628 12.4926 21.8738 12.6849 22.0304 12.8362C22.187 12.9875 22.383 13.0918 22.596 13.1371C22.809 13.1825 23.0305 13.167 23.2352 13.0926C23.4398 13.0181 23.6194 12.8876 23.7535 12.7161C23.8877 12.5445 23.9708 12.3386 23.9936 12.122C24.0164 11.9055 23.9779 11.6868 23.8824 11.4911C23.787 11.2953 23.6384 11.1303 23.4537 11.0149C23.2691 10.8995 23.0557 10.8383 22.8379 10.8383V10.8381ZM21.3427 16.7719C21.6069 16.7717 21.8634 16.8615 22.0698 17.0264C22.2762 17.1914 22.4203 17.4217 22.4783 17.6795C22.5364 17.9373 22.5049 18.2071 22.3891 18.4447C22.2734 18.6822 22.0802 18.8732 21.8413 18.9863C21.6025 19.0993 21.3323 19.1277 21.0752 19.0667C20.8181 19.0057 20.5894 18.859 20.4268 18.6508C20.2642 18.4425 20.1774 18.185 20.1806 17.9208C20.1838 17.6566 20.2769 17.4014 20.4446 17.1971L18.1823 14.993H15.1683C15.0937 14.993 15.0221 14.9634 14.9694 14.9107C14.9167 14.8579 14.887 14.7864 14.887 14.7118C14.887 14.6372 14.9167 14.5657 14.9694 14.5129C15.0221 14.4602 15.0937 14.4305 15.1683 14.4305H18.2966C18.37 14.4305 18.4405 14.4591 18.4931 14.5102L20.9028 16.8587C21.0424 16.8014 21.1918 16.7719 21.3426 16.772L21.3427 16.7719ZM17.894 21.0181C17.894 20.8547 17.9285 20.6931 17.9953 20.5439C18.0621 20.3947 18.1597 20.2613 18.2816 20.1525L17.0832 18.0769H15.1684C15.0938 18.0769 15.0222 18.0473 14.9695 17.9945C14.9167 17.9418 14.8871 17.8702 14.8871 17.7957C14.8871 17.7211 14.9167 17.6495 14.9695 17.5968C15.0222 17.544 15.0938 17.5144 15.1684 17.5144H17.2454C17.2948 17.5143 17.3433 17.5273 17.3861 17.552C17.4289 17.5767 17.4644 17.6122 17.4891 17.655L18.7791 19.8894C18.8697 19.8672 18.9626 19.856 19.0559 19.8558C19.2858 19.8557 19.5107 19.9237 19.7019 20.0514C19.8931 20.1791 20.0422 20.3606 20.1303 20.573C20.2184 20.7854 20.2415 21.0192 20.1967 21.2447C20.1519 21.4703 20.0412 21.6774 19.8787 21.8401C19.7161 22.0027 19.509 22.1135 19.2835 22.1584C19.0579 22.2033 18.8242 22.1803 18.6117 22.0923C18.3993 22.0044 18.2177 21.8554 18.0899 21.6642C17.9622 21.473 17.894 21.2482 17.894 21.0183L17.894 21.0181Z" fill="#FFD443"></path>
</g>
<defs>
<clipPath id="clip0_601_120">
<rect width="24" height="24" fill="white"></rect>
</clipPath>
</defs>
</svg>
