<svg width="45" height="46" viewBox="0 0 45 46" fill="none" xmlns="http://www.w3.org/2000/svg">
<rect x="0.5" y="0.656738" width="44" height="44.6567" rx="3.28358" fill="#6241D4"></rect>
<path fill-rule="evenodd" clip-rule="evenodd" d="M37.3125 23.3282V25.2803C37.3125 25.6309 37.0704 25.9254 36.7265 25.9932L34.6194 26.4086L33.1013 30.073L34.2977 31.8569C34.493 32.148 34.4559 32.5275 34.2079 32.7754L31.4473 35.5361C31.1993 35.7841 30.8199 35.8211 30.5287 35.6257L28.7447 34.4295L25.0805 35.9476L24.6651 38.0546C24.5972 38.3986 24.3028 38.6408 23.9521 38.6408H20.0479C19.6973 38.6408 19.4028 38.3986 19.3349 38.0546L18.9194 35.9476L15.2552 34.4295L13.4713 35.6257C13.1801 35.8211 12.8007 35.7841 12.5528 35.5361L9.792 32.7754C9.54413 32.5275 9.50706 32.1481 9.70231 31.8569L10.8986 30.073L9.3805 26.4086L7.27356 25.9932C6.92956 25.9254 6.6875 25.6309 6.6875 25.2803V23.3282H14.1473C14.1473 27.6651 17.6631 31.1809 22 31.1809C26.3369 31.1809 29.8527 27.6651 29.8527 23.3282H37.3125ZM18.4559 22.9089C19.0219 23.4416 19.3582 24.0875 19.4563 24.8271V25.0655H21.5972C21.6474 24.1071 21.4965 23.3599 21.3711 22.7396C21.3445 22.6092 21.3187 22.4787 21.2938 22.348C20.4207 22.3504 19.5726 21.9732 18.9923 21.3029C18.6511 20.9089 18.4174 20.4335 18.3138 19.9226C18.2102 19.4118 18.2403 18.8829 18.4011 18.3871L18.6357 17.6634C18.6673 17.566 18.7368 17.4959 18.8338 17.4634C18.9309 17.4309 19.0285 17.4451 19.1123 17.5039L19.7354 17.9404C19.9763 18.1092 20.2833 18.2362 20.5592 18.3338L20.5793 18.3408L20.5989 18.3489C20.9941 18.5105 21.3517 18.7521 21.6491 19.0585C21.727 18.6927 21.8786 18.3465 22.0949 18.0413C22.3111 17.7362 22.5873 17.4783 22.9067 17.2836L22.9249 17.2725L22.9435 17.2623C23.1472 17.1513 23.3757 17.0118 23.5431 16.8493L24.0889 16.3194C24.1624 16.2481 24.2565 16.2186 24.3575 16.2353C24.4585 16.2519 24.5382 16.3101 24.5848 16.4012L24.9314 17.0784C25.3583 17.9125 25.3176 18.9146 24.8244 19.7113C24.5817 20.1034 24.242 20.4262 23.8381 20.6487C23.4342 20.8711 22.9797 20.9857 22.5186 20.9813C22.5179 21.4148 22.3913 21.8388 22.1542 22.2018C22.1751 22.3186 22.1997 22.4406 22.2256 22.5687C22.3594 23.2311 22.5202 24.0268 22.4708 25.0655H24.5437V24.8271C24.6418 24.0874 24.9781 23.4417 25.5441 22.9089C26.5462 21.9658 27.1721 20.6271 27.1721 19.1423C27.1721 16.2858 24.8564 13.9702 22 13.9702C19.1436 13.9702 16.8279 16.2858 16.8279 19.1423C16.8279 20.6271 17.4538 21.9657 18.4559 22.9089ZM24.5437 26.8879V25.9404H19.4564V26.8879C19.4564 27.3216 19.8113 27.6766 20.2451 27.6766H23.755C24.1888 27.6766 24.5437 27.3216 24.5437 26.8879ZM21.4688 29.9193H22.5313C23.0277 29.9193 23.4339 29.5131 23.4339 29.0166V28.5515H20.5662V29.0166C20.5662 29.5131 20.9724 29.9193 21.4688 29.9193ZM29.9774 20.0024C30.473 20.5472 31.1876 20.8892 31.9821 20.8892C32.7766 20.8892 33.4913 20.5472 33.9869 20.0024C33.4913 19.4577 32.7766 19.1157 31.9821 19.1157C31.1876 19.1157 30.473 19.4577 29.9774 20.0024ZM31.0881 15.7794C31.7762 15.3821 32.2241 14.7286 32.3809 14.0091C31.6793 13.7851 30.8894 13.8462 30.2014 14.2435C29.5133 14.6407 29.0654 15.2942 28.9086 16.0138C29.6102 16.2378 30.4001 16.1766 31.0881 15.7794ZM27.759 11.8011C28.1563 11.1131 28.2174 10.3232 27.9934 9.62156C27.2738 9.77837 26.6204 10.2263 26.2231 10.9144C25.8259 11.6024 25.7648 12.3923 25.9887 13.0939C26.7082 12.9371 27.3618 12.4892 27.759 11.8011ZM22 12.0251C22.5447 11.5295 22.8867 10.8149 22.8867 10.0204C22.8867 9.22588 22.5447 8.51125 22 8.01562C21.4552 8.51125 21.1132 9.22588 21.1132 10.0204C21.1132 10.8149 21.4553 11.5295 22 12.0251ZM18.0113 13.0939C18.2353 12.3923 18.1741 11.6024 17.7769 10.9144C17.3796 10.2263 16.7261 9.77837 16.0066 9.62156C15.7826 10.3232 15.8438 11.1131 16.241 11.8011C16.6383 12.4892 17.2917 12.937 18.0113 13.0939ZM12.9119 15.7794C13.5999 16.1766 14.3898 16.2377 15.0914 16.0137C14.9346 15.2942 14.4867 14.6407 13.7986 14.2434C13.1106 13.8462 12.3207 13.7851 11.6191 14.009C11.7759 14.7286 12.2238 15.3821 12.9119 15.7794ZM12.0179 20.8892C12.8124 20.8892 13.5271 20.5472 14.0227 20.0024C13.5271 19.4577 12.8124 19.1157 12.0179 19.1157C11.2234 19.1157 10.5088 19.4577 10.0132 20.0024C10.5088 20.5472 11.2234 20.8892 12.0179 20.8892ZM20.2677 19.1587C19.8395 19.0073 19.4948 18.8401 19.2334 18.657C19.1191 19.0095 19.0978 19.3856 19.1714 19.7488C19.245 20.1119 19.4112 20.45 19.6538 20.7301C19.8964 21.0103 20.2072 21.2231 20.5561 21.3479C20.905 21.4727 21.2803 21.5053 21.6455 21.4426C21.7409 20.4606 21.1808 19.5323 20.2677 19.1587ZM24.0805 19.2508C24.2442 18.9864 24.3368 18.6842 24.3495 18.3734C24.3621 18.0627 24.2943 17.7539 24.1526 17.4771C23.9605 17.6636 23.6971 17.848 23.3625 18.0305C23.0183 18.2405 22.7509 18.5559 22.6 18.9298C22.4492 19.3038 22.4229 19.7164 22.5251 20.1064C22.8361 20.1098 23.1427 20.0328 23.4152 19.8829C23.6877 19.733 23.9168 19.5153 24.0805 19.2508Z" fill="white"></path>
</svg>
