<svg width="45" height="46" viewBox="0 0 45 46" fill="none" xmlns="http://www.w3.org/2000/svg">
<rect x="0.5" y="0.5" width="44" height="44.6567" rx="3.28358" fill="#6241D4"></rect>
<path d="M25.1483 26.3122C25.2376 26.362 25.3398 26.3838 25.4417 26.3748C25.5436 26.3657 25.6404 26.3263 25.7195 26.2615L29.734 23.262C29.802 23.2112 29.8571 23.1452 29.8951 23.0694C29.9331 22.9935 29.9529 22.9098 29.9529 22.825C29.9529 22.7402 29.9331 22.6565 29.8951 22.5806C29.8571 22.5048 29.802 22.4388 29.734 22.388L25.7195 19.3885C25.6385 19.3278 25.5421 19.2909 25.4413 19.2819C25.3405 19.2729 25.2391 19.2922 25.1486 19.3375C25.0581 19.3829 24.982 19.4525 24.9288 19.5387C24.8756 19.6248 24.8475 19.7241 24.8475 19.8253V21.0797H19.4546C19.3099 21.0797 19.1712 21.1371 19.0689 21.2394C18.9666 21.3417 18.9092 21.4804 18.9092 21.625C18.9092 21.7697 18.9666 21.9084 19.0689 22.0107C19.1712 22.1129 19.3099 22.1704 19.4546 22.1704H25.3929C25.5375 22.1704 25.6762 22.1129 25.7785 22.0107C25.8808 21.9084 25.9382 21.7697 25.9382 21.625V20.9139L28.4963 22.8249L25.9385 24.7364V24.0247C25.9385 23.88 25.881 23.7413 25.7788 23.639C25.6765 23.5368 25.5378 23.4793 25.3931 23.4793H21.62C21.4753 23.4793 21.3366 23.5368 21.2343 23.639C21.132 23.7413 21.0746 23.88 21.0746 24.0247C21.0746 24.1693 21.132 24.308 21.2343 24.4103C21.3366 24.5126 21.4753 24.5701 21.62 24.5701H24.8472V25.8244C24.8467 25.9258 24.8746 26.0252 24.9278 26.1115C24.981 26.1977 25.0574 26.2673 25.1483 26.3122Z" fill="white"></path>
<path d="M39.5624 21.3285H38.5589C38.482 21.3277 38.4074 21.3013 38.3472 21.2534C38.2869 21.2055 38.2444 21.1388 38.2263 21.064C38.063 20.4401 37.8144 19.8418 37.4873 19.2861C37.4476 19.2199 37.4312 19.1424 37.4405 19.0658C37.4499 18.9893 37.4846 18.918 37.5391 18.8634L38.2481 18.1544C38.4142 17.9665 38.4991 17.7204 38.4842 17.47C38.4694 17.2196 38.3561 16.9853 38.169 16.8183L37.4627 16.112C37.2953 15.9255 37.0611 15.8126 36.8109 15.7978C36.5607 15.783 36.3148 15.8675 36.1266 16.0329L35.4176 16.7419C35.3627 16.796 35.2913 16.8303 35.2147 16.8392C35.1381 16.8481 35.0608 16.8311 34.9949 16.791C34.4391 16.4648 33.8407 16.217 33.217 16.0547C33.1422 16.0366 33.0756 15.994 33.0277 15.9337C32.9798 15.8735 32.9533 15.799 32.9525 15.7221V14.7186C32.9369 14.4683 32.8229 14.2343 32.6354 14.0677C32.4479 13.9012 32.2021 13.8156 31.9517 13.8296H30.9537C30.7033 13.8156 30.4575 13.9012 30.27 14.0677C30.0825 14.2343 29.9685 14.4683 29.9529 14.7186V15.7221C29.9526 15.7991 29.9263 15.8739 29.8783 15.9342C29.8303 15.9945 29.7634 16.037 29.6884 16.0547C29.0647 16.217 28.4664 16.4648 27.9105 16.791C27.8446 16.831 27.7673 16.8479 27.6908 16.839C27.6142 16.8301 27.5428 16.796 27.4878 16.7419L26.7789 16.0329C26.5906 15.8675 26.3447 15.783 26.0945 15.7978C25.8443 15.8126 25.6101 15.9255 25.4427 16.112L24.7364 16.8183C24.6435 16.9008 24.5677 17.0008 24.5134 17.1126C24.4591 17.2245 24.4274 17.3459 24.4201 17.47C24.4127 17.594 24.4299 17.7184 24.4706 17.8358C24.5113 17.9532 24.5748 18.0615 24.6574 18.1544L24.8073 18.3044C24.9941 18.2309 25.1929 18.193 25.3936 18.1926C25.7454 18.1932 26.0877 18.307 26.3698 18.5171L28.8813 20.3932C29.3689 19.8782 29.9999 19.5214 30.6926 19.369C31.3853 19.2165 32.1077 19.2755 32.7665 19.5381C33.4253 19.8008 33.9902 20.2551 34.388 20.8422C34.7858 21.4294 34.9982 22.1225 34.9978 22.8317C34.9974 23.541 34.7842 24.2338 34.3858 24.8205C33.9873 25.4072 33.422 25.8609 32.7629 26.1228C32.1037 26.3847 31.3812 26.4428 30.6887 26.2896C29.9962 26.1364 29.3656 25.7789 28.8785 25.2634L26.3726 27.1395C26.0945 27.3522 25.7546 27.4681 25.4045 27.4694C25.1999 27.4682 24.9973 27.4284 24.8073 27.3522L24.6574 27.5021C24.5748 27.5951 24.5113 27.7033 24.4706 27.8208C24.4299 27.9382 24.4127 28.0625 24.4201 28.1866C24.4274 28.3107 24.4591 28.4321 24.5134 28.5439C24.5677 28.6558 24.6435 28.7558 24.7364 28.8383L25.4427 29.5446C25.6097 29.7317 25.8441 29.845 26.0945 29.8598C26.3448 29.8746 26.5909 29.7897 26.7789 29.6236L27.4878 28.9147C27.5425 28.8603 27.6137 28.8256 27.6903 28.8163C27.7668 28.8069 27.8443 28.8233 27.9105 28.8628C28.4663 29.1899 29.0646 29.4386 29.6884 29.6018C29.7634 29.6196 29.8303 29.662 29.8783 29.7224C29.9263 29.7827 29.9526 29.8574 29.9529 29.9345V30.938C29.9685 31.1883 30.0825 31.4223 30.27 31.5888C30.4575 31.7554 30.7033 31.841 30.9537 31.827H31.9517C32.2021 31.841 32.4479 31.7554 32.6354 31.5888C32.8229 31.4223 32.9369 31.1883 32.9525 30.938V29.9345C32.9529 29.8574 32.9792 29.7827 33.0271 29.7224C33.0751 29.662 33.142 29.6196 33.217 29.6018C33.8409 29.4386 34.4392 29.1899 34.9949 28.8628C35.0611 28.8232 35.1386 28.8067 35.2152 28.8161C35.2917 28.8255 35.363 28.8602 35.4176 28.9147L36.1266 29.6236C36.3145 29.7897 36.5606 29.8746 36.811 29.8598C37.0614 29.845 37.2957 29.7317 37.4627 29.5446L38.169 28.8383C38.3561 28.6713 38.4694 28.4369 38.4842 28.1865C38.4991 27.9362 38.4142 27.6901 38.2481 27.5021L37.5391 26.7932C37.4846 26.738 37.45 26.6663 37.4406 26.5893C37.4312 26.5123 37.4476 26.4344 37.4873 26.3678C37.8143 25.813 38.063 25.2156 38.2263 24.5926C38.244 24.5176 38.2865 24.4507 38.3468 24.4027C38.4071 24.3547 38.4819 24.3284 38.5589 24.3281H39.5624C39.8127 24.3125 40.0467 24.1985 40.2133 24.011C40.3798 23.8235 40.4654 23.5777 40.4514 23.3273V22.3293C40.4654 22.0789 40.3798 21.8331 40.2133 21.6456C40.0467 21.4581 39.8127 21.3441 39.5624 21.3285ZM6.43641 24.3286H7.43989C7.51709 24.3291 7.5919 24.3554 7.65246 24.4033C7.71302 24.4511 7.75587 24.5179 7.77421 24.5928C7.93625 25.2163 8.18403 25.8143 8.51046 26.3697C8.55038 26.4356 8.56714 26.513 8.5581 26.5896C8.54906 26.6661 8.51474 26.7375 8.46056 26.7923L7.75158 27.5013C7.58496 27.6891 7.49967 27.9354 7.51445 28.186C7.52922 28.4366 7.64285 28.6711 7.83038 28.838L8.53664 29.5443C8.7037 29.7314 8.93803 29.8447 9.18841 29.8595C9.43879 29.8744 9.68485 29.7894 9.87281 29.6234L10.5823 28.9138C10.6372 28.8597 10.7085 28.8253 10.7851 28.8163C10.8617 28.8073 10.939 28.824 11.005 28.8639C11.5605 29.1906 12.1585 29.4386 12.7821 29.601C12.857 29.6194 12.9236 29.6622 12.9714 29.7227C13.0192 29.7832 13.0455 29.8579 13.0461 29.9351V30.938C13.0615 31.1884 13.1755 31.4225 13.3631 31.5891C13.5507 31.7557 13.7966 31.8412 14.0471 31.827H15.0457C15.2961 31.841 15.5419 31.7554 15.7295 31.5888C15.917 31.4223 16.031 31.1883 16.0467 30.938V29.9351C16.0473 29.8579 16.0736 29.7832 16.1214 29.7227C16.1692 29.6622 16.2358 29.6194 16.3107 29.601C16.9345 29.4385 17.5328 29.1904 18.0886 28.8637C18.1546 28.8238 18.232 28.8071 18.3085 28.8162C18.3851 28.8252 18.4564 28.8596 18.5113 28.9138L19.2202 29.6236C19.4082 29.7898 19.6543 29.8748 19.9047 29.8599C20.1551 29.845 20.3895 29.7315 20.5564 29.5443L21.2632 28.838C21.45 28.6707 21.5631 28.4363 21.578 28.186C21.5928 27.9356 21.5081 27.6895 21.3423 27.5013L20.6317 26.7926C20.5773 26.7377 20.5429 26.6662 20.5338 26.5895C20.5248 26.5127 20.5417 26.4352 20.5818 26.3691C20.7385 26.1024 20.8772 25.8254 20.9971 25.5402C20.7863 25.4535 20.596 25.3237 20.4384 25.1591C20.2808 24.9946 20.1593 24.7989 20.0818 24.5846C20.0042 24.3703 19.9723 24.1422 19.9881 23.9149C20.0039 23.6876 20.0671 23.4661 20.1736 23.2646H19.4545C19.179 23.2643 18.9081 23.1944 18.6669 23.0614C18.4257 22.9284 18.222 22.7366 18.0747 22.5038C18.0845 22.6107 18.0911 22.7187 18.0911 22.8283C18.0925 23.7104 17.7655 24.5615 17.1737 25.2157C16.5819 25.8699 15.7678 26.2804 14.8899 26.3672C14.0121 26.454 13.1333 26.2108 12.4249 25.6852C11.7165 25.1595 11.2292 24.3889 11.0579 23.5235C10.8866 22.6582 11.0435 21.76 11.4982 21.0041C11.9529 20.2481 12.6727 19.6885 13.5174 19.4343C14.3622 19.1801 15.2713 19.2494 16.0677 19.6288C16.8641 20.0082 17.4907 20.6705 17.8255 21.4867C17.8612 21.0791 18.0483 20.6997 18.3498 20.4231C18.6513 20.1466 19.0454 19.9929 19.4545 19.9923H20.9404C20.8342 19.7507 20.7144 19.5152 20.5815 19.2872C20.5414 19.2211 20.5245 19.1436 20.5335 19.0668C20.5426 18.9901 20.577 18.9186 20.6314 18.8637L21.342 18.1542C21.5077 17.9661 21.5924 17.7202 21.5776 17.4701C21.5628 17.2199 21.4497 16.9857 21.2629 16.8185L20.5559 16.1115C20.3885 15.925 20.1543 15.8121 19.9042 15.7975C19.654 15.7828 19.4082 15.8675 19.2202 16.0332L18.5107 16.7422C18.4559 16.7963 18.3846 16.8306 18.3081 16.8396C18.2316 16.8487 18.1543 16.8319 18.0883 16.7921C17.5325 16.4657 16.9342 16.2179 16.3104 16.0556C16.2355 16.0371 16.1689 15.9942 16.1211 15.9337C16.0733 15.8731 16.047 15.7984 16.0464 15.7212V14.7188C16.0307 14.4685 15.9166 14.2346 15.7291 14.068C15.5416 13.9014 15.2958 13.8157 15.0454 13.8296H14.0468C13.7964 13.8157 13.5506 13.9013 13.3631 14.0679C13.1756 14.2345 13.0617 14.4685 13.0461 14.7188V15.7212C13.0456 15.7984 13.0193 15.8732 12.9715 15.9337C12.9237 15.9943 12.857 16.0372 12.7821 16.0556C12.1586 16.2178 11.5606 16.4656 11.005 16.7918C10.9391 16.8318 10.8617 16.8486 10.7851 16.8396C10.7086 16.8306 10.6372 16.7963 10.5823 16.7422L9.87281 16.0332C9.68477 15.8674 9.43886 15.7826 9.18862 15.7973C8.93837 15.812 8.70404 15.9249 8.53664 16.1115L7.83038 16.8185C7.64288 16.9852 7.52923 17.2195 7.5144 17.47C7.49957 17.7204 7.58478 17.9665 7.7513 18.1542L8.46056 18.864C8.51478 18.9188 8.54916 18.9901 8.55825 19.0667C8.56733 19.1432 8.55062 19.2206 8.51074 19.2866C8.18412 19.8421 7.93632 20.4403 7.77448 21.064C7.75619 21.139 7.71337 21.2058 7.6528 21.2537C7.59223 21.3017 7.5174 21.328 7.44017 21.3285H6.43641C6.1862 21.344 5.95227 21.4578 5.78572 21.6452C5.61916 21.8325 5.5335 22.0782 5.54745 22.3284V23.327C5.53313 23.5776 5.61862 23.8236 5.78521 24.0112C5.95181 24.1989 6.18595 24.3132 6.43641 24.3286Z" fill="white"></path>
</svg>
