<svg width="44" height="46" viewBox="0 0 44 46" fill="none" xmlns="http://www.w3.org/2000/svg">
<rect y="0.656738" width="44" height="44.6567" rx="3.28358" fill="#6241D4"></rect>
<path d="M33.5473 24.714C32.4593 24.4348 31.4048 24.0384 30.4023 23.5316C30.0928 23.3768 29.808 23.2282 29.548 23.0858C29.0342 22.801 28.6256 22.5472 28.3594 22.3739C28.3442 22.3632 28.3275 22.3548 28.3098 22.3491C28.1136 22.2347 27.8896 22.1765 27.6625 22.1809C27.4354 22.1853 27.2139 22.252 27.0222 22.3739C25.4248 23.4185 23.6745 24.208 21.8342 24.714C21.5633 24.7798 21.3223 24.9345 21.1495 25.1533C20.9767 25.3721 20.8821 25.6424 20.8809 25.9212V26.9798C20.8802 28.5087 21.2574 30.014 21.9789 31.362C22.7004 32.7099 23.7438 33.8586 25.0163 34.706L25.5921 35.0898L27.0036 36.0308C27.1155 36.1045 27.2389 36.1589 27.3688 36.1918H27.375C27.4765 36.2268 27.5834 36.2435 27.6908 36.2413C27.9354 36.2392 28.1741 36.1661 28.3779 36.0308L30.3652 34.706C31.6377 33.8586 32.6812 32.7099 33.4026 31.362C34.1241 30.014 34.5013 28.5087 34.5007 26.9798V25.9212C34.4994 25.6424 34.4049 25.3721 34.2321 25.1533C34.0593 24.9345 33.8182 24.7798 33.5473 24.714ZM29.9876 28.1004L27.5112 30.5767C27.3939 30.6918 27.2361 30.7563 27.0717 30.7563C26.9073 30.7563 26.7495 30.6918 26.6321 30.5767L25.394 29.3386C25.2774 29.222 25.2119 29.0639 25.2119 28.899C25.2119 28.7341 25.2774 28.576 25.394 28.4595C25.5105 28.3429 25.6687 28.2774 25.8335 28.2774C25.9984 28.2774 26.1565 28.3429 26.2731 28.4595L27.0717 29.2643L29.1085 27.2213C29.1662 27.1636 29.2347 27.1178 29.3101 27.0865C29.3855 27.0553 29.4664 27.0392 29.548 27.0392C29.6296 27.0392 29.7105 27.0553 29.7859 27.0865C29.8613 27.1178 29.9298 27.1636 29.9876 27.2213C30.0453 27.279 30.0911 27.3475 30.1223 27.423C30.1535 27.4984 30.1696 27.5792 30.1696 27.6608C30.1696 27.7425 30.1535 27.8233 30.1223 27.8987C30.0911 27.9741 30.0453 28.0427 29.9876 28.1004Z" fill="white"></path>
<path d="M28.669 16.6661L23.3758 11.2554C23.1858 11.0631 22.9714 10.8966 22.7382 10.7601V15.2794C22.7396 15.7715 22.9358 16.2431 23.2838 16.591C23.6317 16.939 24.1033 17.1352 24.5954 17.1366H29.0466C28.9349 16.9689 28.8085 16.8115 28.669 16.6661ZM29.5109 18.3748H24.5954C23.7744 18.3748 22.9871 18.0487 22.4066 17.4682C21.8261 16.8877 21.5 16.1004 21.5 15.2794V10.3515C21.3894 10.334 21.2776 10.3257 21.1657 10.3267H11.5947C10.7737 10.3267 9.98639 10.6529 9.40589 11.2334C8.82539 11.8139 8.49927 12.6012 8.49927 13.4222V33.2328C8.49927 34.0537 8.82539 34.8411 9.40589 35.4216C9.98639 36.0021 10.7737 36.3282 11.5947 36.3282H25.2207L24.3292 35.7339C22.8867 34.7744 21.704 33.473 20.8863 31.9457C20.0686 30.4183 19.6414 28.7125 19.6427 26.98V25.9214C19.643 25.5385 19.732 25.1609 19.9028 24.8183C20.0736 24.4756 20.3215 24.1772 20.6271 23.9465H12.8328C12.6687 23.9465 12.5112 23.8813 12.3951 23.7652C12.279 23.6491 12.2138 23.4917 12.2138 23.3275C12.2138 23.1633 12.279 23.0058 12.3951 22.8897C12.5112 22.7736 12.6687 22.7084 12.8328 22.7084H23.8154C24.692 22.3131 25.5383 21.8537 26.3474 21.334C26.7104 21.1034 27.1267 20.9703 27.5561 20.9475C27.9856 20.9248 28.4136 21.0131 28.799 21.204L28.8423 21.2226L29.028 21.334C29.158 21.4207 29.3314 21.5259 29.5481 21.6559V18.8329C29.5482 18.6795 29.5358 18.5262 29.5109 18.3748ZM19.6427 30.7564C19.6427 30.9206 19.5775 31.0781 19.4614 31.1942C19.3453 31.3103 19.1879 31.3755 19.0237 31.3755H12.8328C12.6687 31.3755 12.5112 31.3103 12.3951 31.1942C12.279 31.0781 12.2138 30.9206 12.2138 30.7564C12.2138 30.5923 12.279 30.4348 12.3951 30.3187C12.5112 30.2026 12.6687 30.1374 12.8328 30.1374H19.0237C19.1879 30.1374 19.3453 30.2026 19.4614 30.3187C19.5775 30.4348 19.6427 30.5923 19.6427 30.7564ZM12.8328 26.4229H17.7855C17.9497 26.4229 18.1072 26.4881 18.2233 26.6042C18.3394 26.7203 18.4046 26.8778 18.4046 27.042C18.4046 27.2061 18.3394 27.3636 18.2233 27.4797C18.1072 27.5958 17.9497 27.661 17.7855 27.661H12.8328C12.6687 27.661 12.5112 27.5958 12.3951 27.4797C12.279 27.3636 12.2138 27.2061 12.2138 27.042C12.2138 26.8778 12.279 26.7203 12.3951 26.6042C12.5112 26.4881 12.6687 26.4229 12.8328 26.4229ZM12.8328 15.2794H17.7855C17.9497 15.2794 18.1072 15.3446 18.2233 15.4607C18.3394 15.5768 18.4046 15.7343 18.4046 15.8985C18.4046 16.0627 18.3394 16.2201 18.2233 16.3362C18.1072 16.4523 17.9497 16.5176 17.7855 16.5176H12.8328C12.6687 16.5176 12.5112 16.4523 12.3951 16.3362C12.279 16.2201 12.2138 16.0627 12.2138 15.8985C12.2138 15.7343 12.279 15.5768 12.3951 15.4607C12.5112 15.3446 12.6687 15.2794 12.8328 15.2794ZM21.5 20.2321H12.8328C12.6687 20.2321 12.5112 20.1668 12.3951 20.0507C12.279 19.9346 12.2138 19.7772 12.2138 19.613C12.2138 19.4488 12.279 19.2913 12.3951 19.1752C12.5112 19.0591 12.6687 18.9939 12.8328 18.9939H21.5C21.6642 18.9939 21.8216 19.0591 21.9377 19.1752C22.0538 19.2913 22.1191 19.4488 22.1191 19.613C22.1191 19.7772 22.0538 19.9346 21.9377 20.0507C21.8216 20.1668 21.6642 20.2321 21.5 20.2321Z" fill="white"></path>
</svg>
