<svg width="29" height="28" viewBox="0 0 29 28" fill="none" xmlns="http://www.w3.org/2000/svg">
<g clip-path="url('#clip0_601_229')">
<path d="M3.98802 9.65759H2.76417C2.34349 9.65759 2.00244 9.99864 2.00244 10.4193C2.00244 10.84 2.34349 11.1811 2.76417 11.1811H3.98802C4.99701 11.1439 4.99737 9.69491 3.98802 9.65759ZM27.2412 9.65759H26.0173C25.5966 9.65759 25.2556 9.99864 25.2556 10.4193C25.2556 10.84 25.5966 11.1811 26.0173 11.1811H27.2412C28.2502 11.1439 28.2505 9.69491 27.2412 9.65759ZM6.67552 3.16936C7.41521 3.85654 8.44019 2.83226 7.75276 2.09211L6.88748 1.22684C6.59005 0.929407 6.10772 0.929407 5.81024 1.22684C5.51276 1.52427 5.51276 2.0066 5.81024 2.30408L6.67552 3.16936ZM23.3299 17.6693C22.5901 16.9821 21.5652 18.0064 22.2526 18.7465L23.1179 19.6118C23.4153 19.9092 23.8976 19.9094 24.1952 19.6118C24.4926 19.3144 24.4926 18.832 24.1952 18.5346L23.3299 17.6693ZM6.67552 17.6693L5.81024 18.5346C5.51276 18.832 5.51276 19.3143 5.81024 19.6118C6.10762 19.9092 6.5899 19.9094 6.88748 19.6118L7.75276 18.7465C8.43999 18.0068 7.41556 16.9819 6.67552 17.6693ZM23.1179 1.22684L22.2526 2.09211C21.9552 2.38955 21.9552 2.87187 22.2526 3.16936C22.55 3.46674 23.0323 3.46694 23.3299 3.16936L24.1952 2.30408C24.8824 1.56434 23.858 0.539552 23.1179 1.22684ZM18.5818 11.1811L17.1452 12.6176C17.9461 14.1667 16.7545 16.0999 15.0026 16.0765C13.6828 16.0765 12.6091 15.0028 12.6091 13.6829C12.5858 11.9312 14.5189 10.7393 16.068 11.5404L17.7276 9.88067C17.7984 9.80993 17.8823 9.75382 17.9747 9.71553C18.0672 9.67725 18.1662 9.65754 18.2662 9.65754H23.481C22.3005 -0.609649 7.70101 -0.602133 6.52429 9.65754H11.4235L12.8601 8.22096C12.0592 6.6719 13.2508 4.73873 15.0027 4.76214C16.3225 4.76214 17.3962 5.83588 17.3962 7.15565C17.4195 8.90738 15.4865 10.0992 13.9374 9.29815L12.2777 10.9579C12.207 11.0286 12.123 11.0847 12.0306 11.123C11.9382 11.1613 11.8391 11.181 11.7391 11.181H6.52485C6.71685 13.3089 7.70695 15.2939 9.30877 16.7165C10.1811 17.5229 10.747 18.6064 10.9204 19.7695C10.9223 19.7693 19.082 19.7693 19.0849 19.7695C19.2583 18.6067 19.8242 17.523 20.6966 16.7165C22.2984 15.294 23.2886 13.3089 23.4805 11.181L18.5818 11.1811ZM10.9774 22.163C10.9774 24.1221 12.3845 25.7579 14.241 26.1151C14.1653 27.2953 15.8405 27.2946 15.7645 26.1151C17.6209 25.7579 19.0281 24.1221 19.0281 22.163V21.2929H10.9774V22.163Z" fill="#4B5FF7"></path>
<path d="M15.8728 7.15576C15.8728 6.67602 15.4824 6.28565 15.0027 6.28565C13.85 6.32943 13.8503 7.98223 15.0027 8.02586C15.4824 8.0258 15.8728 7.63549 15.8728 7.15576ZM14.1326 13.6829C14.1326 14.1627 14.5229 14.553 15.0027 14.553C16.1554 14.5093 16.1551 12.8565 15.0027 12.8129C14.5229 12.8129 14.1326 13.2032 14.1326 13.6829Z" fill="#4B5FF7"></path>
</g>
<defs>
<clipPath id="clip0_601_229">
<rect width="26" height="26" fill="white" transform="translate(2 1)"></rect>
</clipPath>
</defs>
</svg>
