<svg width="29" height="28" viewBox="0 0 29 28" fill="none" xmlns="http://www.w3.org/2000/svg">
<g clip-path="url('#clip0_601_241')">
<path d="M14.5109 12.0455L15.3984 13.8203H22.9492V11.5859H18.8672C18.0379 11.5859 17.3633 10.9113 17.3633 10.082V6H7.69531C7.33936 6 7.05078 6.28858 7.05078 6.64453V10.3828H11.8207C12.9673 10.3828 13.9981 11.0199 14.5109 12.0455Z" fill="#FF6464"></path>
<path d="M18.8672 10.297H22.5717L18.6523 6.37769V10.0821C18.6523 10.2006 18.7487 10.297 18.8672 10.297ZM15.6445 20.2657V18.7618H14.3555V20.2657C14.3555 20.6217 14.0669 20.9103 13.7109 20.9103H12.207V22.1993H13.7109C14.0669 22.1993 14.3555 22.4879 14.3555 22.8439V24.3478H15.6445V22.8439C15.6445 22.4879 15.9331 22.1993 16.2891 22.1993H17.793V20.9103H16.2891C15.9331 20.9103 15.6445 20.6217 15.6445 20.2657Z" fill="#FF6464"></path>
<path d="M24.2812 15.1094H15C14.8803 15.1094 14.763 15.0761 14.6611 15.0131C14.5593 14.9502 14.477 14.8602 14.4235 14.7531L13.3579 12.622C13.2152 12.3365 12.9958 12.0964 12.7243 11.9286C12.4527 11.7608 12.1398 11.6719 11.8207 11.6719H5.71875C4.76953 11.6719 4 12.4414 4 13.3906V26.2813C4 27.2305 4.76953 28 5.71875 28H24.2812C25.2305 28 26 27.2305 26 26.2813V16.8281C26 15.8789 25.2305 15.1094 24.2812 15.1094ZM19.082 22.8438C19.082 23.1997 18.7935 23.4883 18.4375 23.4883H16.9336V24.9922C16.9336 25.3482 16.645 25.6367 16.2891 25.6367H13.7109C13.355 25.6367 13.0664 25.3482 13.0664 24.9922V23.4883H11.5625C11.2065 23.4883 10.918 23.1997 10.918 22.8438V20.2656C10.918 19.9097 11.2065 19.6211 11.5625 19.6211H13.0664V18.1172C13.0664 17.7613 13.355 17.4727 13.7109 17.4727H16.2891C16.645 17.4727 16.9336 17.7613 16.9336 18.1172V19.6211H18.4375C18.7935 19.6211 19.082 19.9097 19.082 20.2656V22.8438ZM24.2383 11.3201V13.8203H24.2812C24.92 13.8203 25.5124 14.0211 26 14.3619V13.6055C26 12.5102 25.251 11.5868 24.2383 11.3201Z" fill="#FF6464"></path>
</g>
<defs>
<clipPath id="clip0_601_241">
<rect width="22" height="22" fill="white" transform="translate(4 6)"></rect>
</clipPath>
</defs>
</svg>
