<svg width="29" height="28" viewBox="0 0 29 28" fill="none" xmlns="http://www.w3.org/2000/svg">
<path d="M22.182 6.18203C20.8413 6.03929 19.5217 5.74095 18.25 5.29303C17.083 4.8806 15.9636 4.3442 14.911 3.69303C14.6364 3.52636 14.3213 3.43823 14 3.43823C13.6787 3.43823 13.3636 3.52636 13.089 3.69303L13.088 3.69403C12.0356 4.34468 10.9166 4.88074 9.75 5.29303C8.47891 5.74076 7.16004 6.0391 5.82 6.18203C5.38954 6.22587 4.99066 6.42789 4.70062 6.74897C4.41057 7.07005 4.25 7.48734 4.25 7.92003V13.115C4.25073 15.032 4.76378 16.914 5.73605 18.5662C6.70832 20.2183 8.10447 21.5806 9.78 22.512L13.15 24.385C13.4095 24.531 13.7023 24.6077 14 24.6077C14.2977 24.6077 14.5905 24.531 14.85 24.385L18.22 22.512C19.8955 21.5806 21.2917 20.2183 22.264 18.5662C23.2362 16.914 23.7493 15.032 23.75 13.115V7.92103C23.7505 7.48831 23.5905 7.07078 23.3008 6.74933C23.0111 6.42787 22.6124 6.22637 22.182 6.18203ZM17.979 12.184L14.229 16.184C14.0509 16.3741 13.8055 16.487 13.5453 16.4988C13.2851 16.5105 13.0306 16.4202 12.836 16.247L10.586 14.247C10.4829 14.1613 10.398 14.0557 10.3366 13.9365C10.2751 13.8173 10.2382 13.687 10.2281 13.5533C10.218 13.4196 10.2349 13.2852 10.2778 13.1581C10.3207 13.031 10.3888 12.9139 10.4779 12.8137C10.567 12.7134 10.6753 12.6322 10.7965 12.5747C10.9176 12.5171 11.0491 12.4846 11.1831 12.4789C11.3171 12.4733 11.4508 12.4946 11.5764 12.5417C11.702 12.5888 11.8168 12.6607 11.914 12.753L13.437 14.106L16.521 10.816C16.6146 10.7165 16.7275 10.6371 16.8529 10.5828C16.9782 10.5284 17.1134 10.5003 17.25 10.5C17.4451 10.4999 17.6359 10.5569 17.7991 10.6639C17.9622 10.7709 18.0904 10.9233 18.168 11.1023C18.2456 11.2813 18.2692 11.4791 18.2357 11.6713C18.2023 11.8635 18.1124 12.0417 17.979 12.184Z" fill="#00C48C"></path>
</svg>
