<svg width="29" height="28" viewBox="0 0 29 28" fill="none" xmlns="http://www.w3.org/2000/svg">
<g clip-path="url('#clip0_9_588')">
<g clip-path="url('#clip1_9_588')">
<path d="M18.0816 6.08703C18.0816 9.44874 15.3563 12.1738 11.9946 12.1738C8.63289 12.1738 5.9078 9.44874 5.9078 6.08703C5.9078 2.72532 8.63289 0 11.9946 0C15.3563 0 18.0816 2.72532 18.0816 6.08703ZM15.0794 25.3218C14.4453 24.2237 14.5719 22.8711 15.3267 21.913C14.5719 20.9549 14.4453 19.6037 15.0795 18.5043L16.0645 16.7999C16.6062 15.8614 17.6167 15.2783 18.7013 15.2783C18.8498 15.2783 18.9958 15.2892 19.1407 15.31C19.181 15.2101 19.2321 15.1163 19.282 15.0213C18.6246 14.7621 17.9149 14.6087 17.1686 14.6087H6.82084C3.63233 14.6087 1.03809 17.2029 1.03809 20.3912V24.6522C1.03809 25.1562 1.44713 25.5652 1.95113 25.5652H15.2195L15.0794 25.3218Z" fill="#4B5FF7"></path>
<path d="M27.4593 22.4841C27.4836 22.2955 27.5164 22.108 27.5164 21.9132C27.5164 21.7172 27.4823 21.5309 27.4593 21.3423L28.5561 20.512C28.8008 20.327 28.869 19.9886 28.7157 19.722L27.7308 18.0176C27.5772 17.7521 27.2498 17.6414 26.9673 17.7606L25.705 18.2927C25.3969 18.0577 25.0695 17.8508 24.7079 17.6998L24.5399 16.3593C24.5011 16.0551 24.243 15.8262 23.9362 15.8262H21.9677C21.6607 15.8262 21.4015 16.0551 21.3639 16.3594L21.1957 17.6997C20.8342 17.8508 20.5057 18.0588 20.1987 18.2926L18.9364 17.7606C18.7997 17.7029 18.6466 17.6971 18.506 17.7445C18.3655 17.7918 18.247 17.889 18.1731 18.0176L17.1881 19.722C17.0347 19.9872 17.1029 20.3256 17.3477 20.512L18.4443 21.3423C18.4201 21.5309 18.3873 21.7184 18.3873 21.9132C18.3873 22.1092 18.4214 22.2955 18.4443 22.4841L17.3477 23.3144C17.1029 23.4994 17.0347 23.8378 17.1881 24.1044L18.1731 25.8101C18.3264 26.0754 18.6539 26.1862 18.9364 26.0669L20.1986 25.5337C20.5068 25.7687 20.8342 25.9756 21.1957 26.1266L21.3639 27.4671C21.4015 27.7713 21.6596 28.0002 21.9664 28.0002H23.9349C24.2416 28.0002 24.5011 27.7713 24.5387 27.467L24.7068 26.1267C25.0684 25.9756 25.3969 25.7676 25.7037 25.5338L26.9662 26.0658C27.1029 26.1235 27.256 26.1293 27.3965 26.0819C27.5371 26.0346 27.6556 25.9374 27.7295 25.8088L28.7143 24.1033C28.8677 23.8378 28.7997 23.4994 28.5549 23.3133L27.4593 22.4841ZM22.9512 24.3481C21.6062 24.3481 20.5166 23.2585 20.5166 21.9132C20.5166 20.5679 21.6062 19.4783 22.9512 19.4783C24.2964 19.4783 25.386 20.5679 25.386 21.9132C25.386 23.2585 24.2964 24.3481 22.9512 24.3481Z" fill="#4B5FF7"></path>
</g>
</g>
<defs>
<clipPath id="clip0_9_588">
<rect width="28" height="28" fill="white" transform="translate(0.5)"></rect>
</clipPath>
<clipPath id="clip1_9_588">
<rect width="28" height="28" fill="white" transform="translate(1)"></rect>
</clipPath>
</defs>
</svg>
