<svg width="2655" height="1989" viewBox="0 0 2655 1989" fill="none" xmlns="http://www.w3.org/2000/svg">
<g opacity="0.1">
<path d="M2576.7 4.31348C2520.3 23.508 2409.06 107.111 2415.32 287.966C2423.14 514.035 2593.76 655.506 2636.41 868.778C2667.9 1026.19 2663.43 1420.44 2471.48 1586.09" stroke="url('#paint0_linear_9_436')" stroke-width="7.78561"></path>
<path d="M2499.87 50.9688C2443.48 70.1633 2332.24 153.766 2338.5 334.621C2346.32 560.69 2516.94 702.161 2559.59 915.434C2591.07 1072.84 2586.61 1467.1 2394.66 1632.74" stroke="url('#paint1_linear_9_436')" stroke-width="7.78561"></path>
<path d="M2421.88 95.6558C2365.48 114.85 2254.25 198.453 2260.51 379.308C2268.33 605.377 2438.94 746.848 2481.6 960.121C2513.08 1117.53 2508.61 1511.79 2316.67 1677.43" stroke="url('#paint2_linear_9_436')" stroke-width="7.78561"></path>
<path d="M2342.8 138.388C2286.4 157.582 2175.17 241.185 2181.42 422.04C2189.24 648.109 2359.86 789.58 2402.52 1002.85C2434 1160.26 2429.53 1554.52 2237.59 1720.16" stroke="url('#paint3_linear_9_436')" stroke-width="7.78561"></path>
<path d="M2262.65 179.079C2206.25 198.273 2095.02 281.876 2101.28 462.731C2109.1 688.8 2279.71 830.271 2322.37 1043.54C2353.85 1200.95 2349.38 1595.21 2157.44 1760.85" stroke="url('#paint4_linear_9_436')" stroke-width="7.78561"></path>
<path d="M2181.43 217.579C2125.03 236.773 2013.79 320.376 2020.05 501.231C2027.87 727.3 2198.49 868.771 2241.14 1082.04C2272.62 1239.45 2268.16 1633.71 2076.21 1799.35" stroke="url('#paint5_linear_9_436')" stroke-width="7.78561"></path>
<path d="M2099.11 253.677C2042.71 272.871 1931.47 356.474 1937.73 537.329C1945.55 763.398 2116.17 904.869 2158.82 1118.14C2190.3 1275.55 2185.84 1669.81 1993.89 1835.45" stroke="url('#paint6_linear_9_436')" stroke-width="7.78561"></path>
<path d="M2015.66 287.101C1959.27 306.296 1848.03 389.898 1854.29 570.754C1862.11 796.823 2032.73 938.293 2075.38 1151.57C2106.86 1308.98 2102.4 1703.23 1910.45 1868.87" stroke="url('#paint7_linear_9_436')" stroke-width="7.78561"></path>
<path d="M1931.07 317.502C1874.68 336.697 1763.44 420.3 1769.7 601.155C1777.52 827.224 1948.14 968.695 1990.79 1181.97C2022.27 1339.38 2017.81 1733.63 1825.86 1899.27" stroke="url('#paint8_linear_9_436')" stroke-width="7.78561"></path>
<path d="M1845.32 344.44C1788.92 363.635 1677.69 447.238 1683.94 628.093C1691.76 854.162 1862.38 995.633 1905.04 1208.91C1936.52 1366.32 1932.05 1760.57 1740.1 1926.21" stroke="url('#paint9_linear_9_436')" stroke-width="7.78561"></path>
<path d="M1758.4 367.356C1702 386.551 1590.77 470.154 1597.03 651.009C1604.85 877.078 1775.46 1018.55 1818.12 1231.82C1849.6 1389.23 1845.13 1783.49 1653.19 1949.13" stroke="url('#paint10_linear_9_436')" stroke-width="7.78561"></path>
<path d="M1670.37 385.541C1613.97 404.735 1502.74 488.338 1509 669.193C1516.82 895.262 1687.44 1036.73 1730.09 1250.01C1761.57 1407.42 1757.1 1801.67 1565.16 1967.31" stroke="url('#paint11_linear_9_436')" stroke-width="7.78561"></path>
<path d="M1581.37 398.093C1524.97 417.287 1413.74 500.89 1419.99 681.745C1427.81 907.814 1598.43 1049.29 1641.08 1262.56C1672.57 1419.97 1668.1 1814.22 1476.15 1979.86" stroke="url('#paint12_linear_9_436')" stroke-width="7.78561"></path>
<path d="M1491.67 403.884C1435.27 423.079 1324.03 506.682 1330.29 687.537C1338.11 913.606 1508.73 1055.08 1551.38 1268.35C1582.87 1425.76 1578.4 1820.01 1386.45 1985.66" stroke="url('#paint13_linear_9_436')" stroke-width="7.78561"></path>
<path d="M1401.81 401.528C1345.41 420.723 1234.18 504.326 1240.43 685.181C1248.25 911.25 1418.87 1052.72 1461.53 1265.99C1493.01 1423.4 1488.54 1817.66 1296.59 1983.3" stroke="url('#paint14_linear_9_436')" stroke-width="7.78561"></path>
<path d="M1312.74 389.422C1256.34 408.616 1145.11 492.219 1151.37 673.074C1159.19 899.143 1329.8 1040.61 1372.46 1253.89C1403.94 1411.3 1399.47 1805.55 1207.53 1971.19" stroke="url('#paint15_linear_9_436')" stroke-width="7.78561"></path>
<path d="M1225.98 365.935C1169.58 385.13 1058.34 468.732 1064.6 649.588C1072.42 875.657 1243.04 1017.13 1285.69 1230.4C1317.17 1387.81 1312.71 1782.07 1120.76 1947.71" stroke="url('#paint16_linear_9_436')" stroke-width="7.78561"></path>
<path d="M1128.73 323.494C1072.34 342.689 961.103 426.292 967.359 607.147C975.179 833.216 1145.8 974.687 1188.45 1187.96C1219.93 1345.37 1215.47 1739.62 1023.52 1905.27" stroke="url('#paint17_linear_9_436')" stroke-width="7.78561"></path>
<path d="M1045.42 289.754C989.02 308.949 877.786 392.552 884.042 573.407C891.862 799.476 1062.48 940.947 1105.13 1154.22C1136.62 1311.63 1132.15 1705.88 940.204 1871.53" stroke="url('#paint18_linear_9_436')" stroke-width="7.78561"></path>
<path d="M959.602 263.014C903.203 282.208 791.97 365.811 798.226 546.666C806.046 772.735 976.664 914.206 1019.32 1127.48C1050.8 1284.89 1046.33 1679.14 854.388 1844.79" stroke="url('#paint19_linear_9_436')" stroke-width="7.78561"></path>
<path d="M871.872 243.437C815.473 262.631 704.239 346.234 710.495 527.089C718.315 753.158 888.933 894.629 931.588 1107.9C963.07 1265.31 958.603 1659.57 766.657 1825.21" stroke="url('#paint20_linear_9_436')" stroke-width="7.78561"></path>
<path d="M782.846 231.021C726.447 250.215 615.214 333.818 621.47 514.673C629.29 740.742 799.908 882.213 842.563 1095.49C874.045 1252.9 869.577 1647.15 677.632 1812.79" stroke="url('#paint21_linear_9_436')" stroke-width="7.78561"></path>
<path d="M693.122 225.61C636.723 244.805 525.489 328.408 531.745 509.263C539.565 735.332 710.183 876.803 752.838 1090.08C784.32 1247.49 779.853 1641.74 587.907 1807.38" stroke="url('#paint22_linear_9_436')" stroke-width="7.78561"></path>
<path d="M603.245 226.928C546.846 246.122 435.612 329.725 441.868 510.58C449.688 736.649 620.307 878.12 662.961 1091.39C694.443 1248.8 689.976 1643.06 498.03 1808.7" stroke="url('#paint23_linear_9_436')" stroke-width="7.78561"></path>
<path d="M513.688 234.618C457.289 253.813 346.056 337.416 352.312 518.271C360.132 744.34 530.75 885.811 573.404 1099.08C604.887 1256.49 600.419 1650.75 408.474 1816.39" stroke="url('#paint24_linear_9_436')" stroke-width="7.78561"></path>
<path d="M424.846 248.288C368.447 267.483 257.214 351.085 263.47 531.941C271.29 758.01 441.908 899.48 484.563 1112.75C516.045 1270.16 511.577 1664.42 319.632 1830.06" stroke="url('#paint25_linear_9_436')" stroke-width="7.78561"></path>
<path d="M337.045 267.543C280.647 286.738 169.413 370.34 175.669 551.196C183.489 777.265 354.107 918.735 396.762 1132.01C428.244 1289.42 423.776 1683.67 231.831 1849.31" stroke="url('#paint26_linear_9_436')" stroke-width="7.78561"></path>
<path d="M250.553 292.021C194.155 311.215 82.921 394.818 89.177 575.673C96.997 801.742 267.615 943.213 310.27 1156.49C341.752 1313.9 337.284 1708.15 145.339 1873.79" stroke="url('#paint27_linear_9_436')" stroke-width="7.78561"></path>
<path d="M165.629 321.414C109.231 340.609 -2.00281 424.211 4.25319 605.067C12.0732 831.136 182.691 972.606 225.346 1185.88C256.828 1343.29 252.36 1737.54 60.415 1903.19" stroke="url('#paint28_linear_9_436')" stroke-width="7.78561"></path>
</g>
<defs>
<linearGradient id="paint0_linear_9_436" x1="2533.07" y1="4.31348" x2="2533.07" y2="1586.09" gradientUnits="userSpaceOnUse">
<stop stop-color="white" stop-opacity="0"></stop>
<stop offset="1" stop-color="white"></stop>
</linearGradient>
<linearGradient id="paint1_linear_9_436" x1="2456.25" y1="50.9687" x2="2456.25" y2="1632.74" gradientUnits="userSpaceOnUse">
<stop stop-color="white" stop-opacity="0"></stop>
<stop offset="1" stop-color="white"></stop>
</linearGradient>
<linearGradient id="paint2_linear_9_436" x1="2378.26" y1="95.6558" x2="2378.26" y2="1677.43" gradientUnits="userSpaceOnUse">
<stop stop-color="white" stop-opacity="0"></stop>
<stop offset="1" stop-color="white"></stop>
</linearGradient>
<linearGradient id="paint3_linear_9_436" x1="2299.18" y1="138.388" x2="2299.18" y2="1720.16" gradientUnits="userSpaceOnUse">
<stop stop-color="white" stop-opacity="0"></stop>
<stop offset="1" stop-color="white"></stop>
</linearGradient>
<linearGradient id="paint4_linear_9_436" x1="2219.03" y1="179.079" x2="2219.03" y2="1760.85" gradientUnits="userSpaceOnUse">
<stop stop-color="white" stop-opacity="0"></stop>
<stop offset="1" stop-color="white"></stop>
</linearGradient>
<linearGradient id="paint5_linear_9_436" x1="2137.8" y1="217.579" x2="2137.8" y2="1799.35" gradientUnits="userSpaceOnUse">
<stop stop-color="white" stop-opacity="0"></stop>
<stop offset="1" stop-color="white"></stop>
</linearGradient>
<linearGradient id="paint6_linear_9_436" x1="2055.48" y1="253.677" x2="2055.48" y2="1835.45" gradientUnits="userSpaceOnUse">
<stop stop-color="white" stop-opacity="0"></stop>
<stop offset="1" stop-color="white"></stop>
</linearGradient>
<linearGradient id="paint7_linear_9_436" x1="1972.04" y1="287.101" x2="1972.04" y2="1868.87" gradientUnits="userSpaceOnUse">
<stop stop-color="white" stop-opacity="0"></stop>
<stop offset="1" stop-color="white"></stop>
</linearGradient>
<linearGradient id="paint8_linear_9_436" x1="1887.45" y1="317.502" x2="1887.45" y2="1899.27" gradientUnits="userSpaceOnUse">
<stop stop-color="white" stop-opacity="0"></stop>
<stop offset="1" stop-color="white"></stop>
</linearGradient>
<linearGradient id="paint9_linear_9_436" x1="1801.7" y1="344.44" x2="1801.7" y2="1926.21" gradientUnits="userSpaceOnUse">
<stop stop-color="white" stop-opacity="0"></stop>
<stop offset="1" stop-color="white"></stop>
</linearGradient>
<linearGradient id="paint10_linear_9_436" x1="1714.78" y1="367.356" x2="1714.78" y2="1949.13" gradientUnits="userSpaceOnUse">
<stop stop-color="white" stop-opacity="0"></stop>
<stop offset="1" stop-color="white"></stop>
</linearGradient>
<linearGradient id="paint11_linear_9_436" x1="1626.75" y1="385.541" x2="1626.75" y2="1967.31" gradientUnits="userSpaceOnUse">
<stop stop-color="white" stop-opacity="0"></stop>
<stop offset="1" stop-color="white"></stop>
</linearGradient>
<linearGradient id="paint12_linear_9_436" x1="1537.74" y1="398.093" x2="1537.74" y2="1979.86" gradientUnits="userSpaceOnUse">
<stop stop-color="white" stop-opacity="0"></stop>
<stop offset="1" stop-color="white"></stop>
</linearGradient>
<linearGradient id="paint13_linear_9_436" x1="1448.04" y1="403.884" x2="1448.04" y2="1985.66" gradientUnits="userSpaceOnUse">
<stop stop-color="white" stop-opacity="0"></stop>
<stop offset="1" stop-color="white"></stop>
</linearGradient>
<linearGradient id="paint14_linear_9_436" x1="1358.19" y1="401.528" x2="1358.19" y2="1983.3" gradientUnits="userSpaceOnUse">
<stop stop-color="white" stop-opacity="0"></stop>
<stop offset="1" stop-color="white"></stop>
</linearGradient>
<linearGradient id="paint15_linear_9_436" x1="1269.12" y1="389.422" x2="1269.12" y2="1971.19" gradientUnits="userSpaceOnUse">
<stop stop-color="white" stop-opacity="0"></stop>
<stop offset="1" stop-color="white"></stop>
</linearGradient>
<linearGradient id="paint16_linear_9_436" x1="1182.35" y1="365.935" x2="1182.35" y2="1947.71" gradientUnits="userSpaceOnUse">
<stop stop-color="white" stop-opacity="0"></stop>
<stop offset="1" stop-color="white"></stop>
</linearGradient>
<linearGradient id="paint17_linear_9_436" x1="1085.11" y1="323.494" x2="1085.11" y2="1905.27" gradientUnits="userSpaceOnUse">
<stop stop-color="white" stop-opacity="0"></stop>
<stop offset="1" stop-color="white"></stop>
</linearGradient>
<linearGradient id="paint18_linear_9_436" x1="1001.79" y1="289.754" x2="1001.79" y2="1871.53" gradientUnits="userSpaceOnUse">
<stop stop-color="white" stop-opacity="0"></stop>
<stop offset="1" stop-color="white"></stop>
</linearGradient>
<linearGradient id="paint19_linear_9_436" x1="915.979" y1="263.014" x2="915.979" y2="1844.79" gradientUnits="userSpaceOnUse">
<stop stop-color="white" stop-opacity="0"></stop>
<stop offset="1" stop-color="white"></stop>
</linearGradient>
<linearGradient id="paint20_linear_9_436" x1="828.248" y1="243.437" x2="828.248" y2="1825.21" gradientUnits="userSpaceOnUse">
<stop stop-color="white" stop-opacity="0"></stop>
<stop offset="1" stop-color="white"></stop>
</linearGradient>
<linearGradient id="paint21_linear_9_436" x1="739.223" y1="231.021" x2="739.223" y2="1812.79" gradientUnits="userSpaceOnUse">
<stop stop-color="white" stop-opacity="0"></stop>
<stop offset="1" stop-color="white"></stop>
</linearGradient>
<linearGradient id="paint22_linear_9_436" x1="649.498" y1="225.61" x2="649.498" y2="1807.38" gradientUnits="userSpaceOnUse">
<stop stop-color="white" stop-opacity="0"></stop>
<stop offset="1" stop-color="white"></stop>
</linearGradient>
<linearGradient id="paint23_linear_9_436" x1="559.621" y1="226.928" x2="559.621" y2="1808.7" gradientUnits="userSpaceOnUse">
<stop stop-color="white" stop-opacity="0"></stop>
<stop offset="1" stop-color="white"></stop>
</linearGradient>
<linearGradient id="paint24_linear_9_436" x1="470.065" y1="234.618" x2="470.065" y2="1816.39" gradientUnits="userSpaceOnUse">
<stop stop-color="white" stop-opacity="0"></stop>
<stop offset="1" stop-color="white"></stop>
</linearGradient>
<linearGradient id="paint25_linear_9_436" x1="381.223" y1="248.288" x2="381.223" y2="1830.06" gradientUnits="userSpaceOnUse">
<stop stop-color="white" stop-opacity="0"></stop>
<stop offset="1" stop-color="white"></stop>
</linearGradient>
<linearGradient id="paint26_linear_9_436" x1="293.422" y1="267.543" x2="293.422" y2="1849.31" gradientUnits="userSpaceOnUse">
<stop stop-color="white" stop-opacity="0"></stop>
<stop offset="1" stop-color="white"></stop>
</linearGradient>
<linearGradient id="paint27_linear_9_436" x1="206.93" y1="292.021" x2="206.93" y2="1873.79" gradientUnits="userSpaceOnUse">
<stop stop-color="white" stop-opacity="0"></stop>
<stop offset="1" stop-color="white"></stop>
</linearGradient>
<linearGradient id="paint28_linear_9_436" x1="122.006" y1="321.414" x2="122.006" y2="1903.19" gradientUnits="userSpaceOnUse">
<stop stop-color="white" stop-opacity="0"></stop>
<stop offset="1" stop-color="white"></stop>
</linearGradient>
</defs>
</svg>
