<svg width="116" height="19" viewBox="0 0 116 19" fill="none" xmlns="http://www.w3.org/2000/svg">
<path fill-rule="evenodd" clip-rule="evenodd" d="M4.36671 13.7017C3.4706 16.1734 3.7693 16.8365 5.91995 17.1782V17.781H0.105225V17.1782C1.73813 16.7361 2.4351 15.8318 3.33121 13.4807L8.40914 0.438881H10.2611L15.5581 15.1285C16.0758 16.4748 16.4144 16.9169 18.2663 17.1782V17.8212H9.70351V17.1179C12.0334 17.0375 12.4117 16.5552 11.9936 15.249L10.6992 11.4309H5.14333L4.36671 13.7017ZM8.15026 3.87516H8.03079C8.03079 3.87516 5.5416 10.6472 5.48186 10.6472H10.4801L8.15026 3.87516ZM19.7797 13.9629H20.4767C21.8109 16.2739 23.1053 17.359 24.6585 17.359C25.9927 17.359 26.5901 16.5753 26.5901 15.671C26.5901 14.5859 25.8533 14.0232 23.4836 13.3199C20.8949 12.5764 19.8196 11.7525 19.8196 9.9238C19.8196 7.61286 21.6317 6.10572 24.3001 6.10572C25.2958 6.10572 26.3711 6.44734 27.0083 6.88943L27.6057 6.10572H28.2031V9.74295H27.5062C26.2914 7.83391 25.3555 6.82915 23.9815 6.82915C22.9061 6.82915 22.1295 7.53248 22.1295 8.57743C22.1295 9.62238 23.1252 10.0645 24.8776 10.5267C27.4663 11.23 28.8005 12.1343 28.8005 14.1438C28.8005 16.3543 27.0681 18.1025 24.32 18.1025C23.4239 18.1025 21.8308 17.6604 21.1338 17.2384L20.3572 18.1025H19.7598L19.7797 13.9629ZM30.6923 12.2147C30.6923 8.43676 33.2811 6.04543 36.7261 6.04543C39.9122 6.04543 41.127 7.65305 41.127 8.91905C41.127 9.96399 40.5296 10.7075 39.4941 10.7075C38.3391 10.7075 37.7218 10.0042 37.7218 9.0999C37.7218 8.39657 38.1599 7.79372 38.5382 7.61286C38.2793 7.17077 37.6421 6.78896 36.7659 6.78896C35.0334 6.78896 33.8785 8.57743 33.8785 11.8328C33.8785 14.606 35.0334 16.7361 37.5425 16.7361C38.8767 16.7361 39.9521 16.0327 40.9079 14.8672L41.3858 15.249C40.3105 16.937 38.7971 18.0824 36.3876 18.0824C32.8828 18.0824 30.6923 15.7514 30.6923 12.2147ZM46.0257 12.0941C46.0257 14.9275 47.2404 16.8365 49.6898 16.8365C51.1634 16.8365 52.1391 16.0528 53.1348 14.7868L53.6127 15.1686C52.5374 16.8566 51.0638 18.1226 48.6144 18.1226C45.03 18.1226 42.8395 15.872 42.8395 12.2548C42.8395 8.51714 45.2889 6.08563 48.6144 6.08563C52.0595 6.08563 53.7919 8.65781 53.6127 11.7726H46.0655C46.0257 11.873 46.0257 11.9936 46.0257 12.0941ZM50.4266 11.0491C50.6854 8.57743 50.0482 6.82915 48.3954 6.82915C47.0214 6.82915 46.2049 8.31619 46.0655 11.0893L50.4266 11.0491ZM54.8473 17.1782C56.2612 17.138 56.6196 16.9571 56.6196 16.2739V8.23581C56.6196 7.49229 56.2811 7.01 54.8473 6.96981V6.36696L59.5868 6.14591V8.39657C60.7417 7.05019 62.3348 6.08563 63.9279 6.08563C65.9591 6.08563 66.9946 7.39181 66.9946 9.70276V16.2739C66.9946 16.9772 67.2534 17.138 68.727 17.1782V17.781H62.514V17.1782C63.5495 17.138 63.9279 16.9571 63.9279 16.2739V10.185C63.9279 8.53724 63.3703 7.75353 62.0759 7.75353C61.0803 7.75353 60.3036 8.276 59.6664 9.05971V16.2739C59.6664 16.9772 60.0049 17.138 61.0404 17.1782V17.781H54.8274L54.8473 17.1782ZM70.3998 13.9629H71.0967C72.4309 16.2739 73.7253 17.359 75.2786 17.359C76.6128 17.359 77.2102 16.5753 77.2102 15.671C77.2102 14.5859 76.4734 14.0232 74.1037 13.3199C71.5149 12.5764 70.4396 11.7525 70.4396 9.9238C70.4396 7.61286 72.2517 6.10572 74.9201 6.10572C75.9158 6.10572 76.9911 6.44734 77.6284 6.88943L78.2258 6.10572H78.8232V9.74295H78.1262C76.9115 7.83391 75.9755 6.82915 74.6015 6.82915C73.5262 6.82915 72.7496 7.53248 72.7496 8.57743C72.7496 9.62238 73.7452 10.0645 75.4976 10.5267C78.0864 11.23 79.4206 12.1343 79.4206 14.1438C79.4206 16.3543 77.6881 18.1025 74.94 18.1025C74.0439 18.1025 72.4509 17.6604 71.7539 17.2384L70.9773 18.1025H70.3799V13.9629H70.3998ZM80.9141 17.1782C82.3279 17.138 82.7262 16.9571 82.7262 16.2739V8.23581C82.7262 7.49229 82.3877 7.01 80.9141 6.96981V6.36696L85.7929 6.12582V16.2538C85.7929 16.9571 86.0518 17.1179 87.5652 17.1581V17.7609H80.9738V17.1581H80.9141V17.1782ZM82.3279 2.16707C82.3279 1.00155 83.0647 0.217834 84.1799 0.217834C85.295 0.217834 86.0318 0.961356 86.0318 2.08669C86.0318 3.25221 85.295 3.99573 84.1799 3.99573C83.0647 3.99573 82.3279 3.31249 82.3279 2.16707ZM88.5409 12.0941C88.5409 8.47695 90.9505 6.04543 94.4951 6.04543C98.1193 6.04543 100.389 8.35638 100.389 11.9936C100.389 15.6911 97.9799 18.0824 94.4951 18.0824C90.7712 18.0824 88.5409 15.7514 88.5409 12.0941ZM97.1037 12.0539C97.1037 8.49705 96.2076 6.82915 94.3557 6.82915C92.5435 6.82915 91.8665 8.47695 91.8665 12.0539C91.8665 15.671 92.7626 17.359 94.6145 17.359C96.3868 17.2987 97.1037 15.6107 97.1037 12.0539ZM101.584 17.1782C102.998 17.138 103.357 16.9571 103.357 16.2739V8.23581C103.357 7.49229 103.018 7.01 101.584 6.96981V6.36696L106.324 6.14591V8.39657C107.479 7.05019 109.072 6.08563 110.665 6.08563C112.696 6.08563 113.731 7.39181 113.731 9.70276V16.2739C113.731 16.9772 113.99 17.138 115.464 17.1782V17.781H109.251V17.1782C110.286 17.138 110.665 16.9571 110.665 16.2739V10.185C110.665 8.53724 110.107 7.75353 108.813 7.75353C107.817 7.75353 107.041 8.276 106.403 9.05971V16.2739C106.403 16.9772 106.742 17.138 107.777 17.1782V17.781H101.564L101.584 17.1782Z" fill="#767676"></path>
</svg>
