<svg width="138" height="30" viewBox="0 0 138 30" fill="none" xmlns="http://www.w3.org/2000/svg">
<g clip-path="url('#clip0_601_39')">
<path d="M39.098 7.40193C38.6345 7.40193 38.2869 7.74838 38.2869 8.21007V24.0263C37.1281 24.2571 35.8534 24.4881 34.5787 24.4881C31.7977 24.4881 30.8706 23.449 30.8706 20.4475V8.21007C30.8706 7.74829 30.5229 7.40193 30.1754 7.40193H26.0037V20.4475C26.0037 26.5661 29.2484 28.5287 34.4629 28.5287C38.6345 28.5287 42.8061 27.3743 43.1538 27.2589V7.40193H39.098ZM102.947 28.2978C103.295 28.2978 103.758 27.9514 103.758 27.4897V11.558C104.917 11.3272 106.192 11.0962 107.466 11.0962C110.247 11.0962 111.174 12.1353 111.174 15.1369V27.4897C111.174 27.9515 111.522 28.2978 111.87 28.2978H116.041V15.1369C116.041 9.01818 112.797 7.05558 107.582 7.05558C103.41 7.05558 99.2388 8.21006 98.8912 8.32552V28.2978H102.947ZM86.2605 7.05558C80.8141 7.05558 77.4537 9.94176 77.4537 16.2914V19.4084C77.4537 26.3352 81.1618 28.6442 85.1017 28.6442C87.0716 28.6442 89.1574 27.2589 89.7368 26.4507V27.7206C89.7368 28.067 90.0846 28.4133 90.4321 28.4133C90.4321 28.4133 94.4878 28.4133 94.6037 28.4133V8.21007C94.7198 8.21007 90.6638 7.05558 86.2605 7.05558ZM89.8527 23.2182C88.9257 24.0263 88.2304 24.4881 86.2605 24.4881C83.4794 24.6037 82.3206 22.8718 82.3206 19.293V16.4068C82.3206 12.3662 83.827 11.2117 86.2605 11.2117C88.2304 11.2117 89.3892 11.3273 89.8527 11.4425V23.2182ZM128.324 7.05558C122.878 7.05558 119.518 9.94176 119.518 16.2914V19.4084C119.518 26.3352 123.226 28.6442 127.281 28.6442C129.251 28.6442 131.337 27.2589 131.917 26.4507V27.7206C131.917 28.067 132.264 28.4133 132.612 28.4133C132.612 28.4133 136.668 28.4133 136.783 28.4133V8.21007C136.783 8.21007 132.728 7.05558 128.324 7.05558ZM131.917 23.2182C130.989 24.0263 130.294 24.4881 128.324 24.4881C125.543 24.4881 124.384 22.8718 124.384 19.293V16.4068C124.384 12.2507 125.891 11.2117 128.324 11.2117C130.294 11.2117 131.453 11.3273 131.917 11.4425V23.2182ZM1.20581 28.2978C1.90108 28.2978 5.6092 28.2978 5.6092 28.2978C5.95695 28.2978 6.30447 27.9514 6.30447 27.6051V16.0605H14.4159C15.8065 16.0605 16.7335 17.0995 16.7335 18.254V27.6051C16.7335 27.9516 17.0813 28.2978 17.4288 28.2978C17.4288 28.2978 21.6004 28.2978 21.8321 28.2978C21.8321 28.2978 21.8321 1.05238 21.8321 0.821472H17.4288C17.081 0.821472 16.7335 1.16787 16.7335 1.5141V11.9044H8.39027C7.23146 11.9044 6.42031 10.9808 6.42031 9.9418V1.5141C6.30425 1.28328 6.07257 0.821472 5.6092 0.821472H1.20581C1.20581 1.05229 1.20581 28.2978 1.20581 28.2978ZM66.4453 7.05558C64.1277 7.05558 61.926 7.97918 60.8831 8.67186C59.3767 7.51736 57.2909 7.05558 54.7416 7.05558C50.9176 7.05558 47.673 8.21006 47.2095 8.44097V28.4133H51.3811C51.8446 28.4133 52.0764 28.0668 52.0764 27.6051V11.558C53.1193 11.3272 53.9304 11.2115 54.6257 11.2115C57.5226 11.2115 58.2179 12.366 58.2179 15.2522V27.605C58.2179 27.9515 58.4496 28.4132 58.9132 28.4132H62.3895C62.853 28.4132 63.0848 28.0667 63.0848 27.605V12.1351C63.896 11.5579 64.9388 11.2115 65.9818 11.2115C68.1835 11.2115 69.1105 12.2506 69.1105 14.9059V27.605C69.1105 27.9515 69.3421 28.4132 69.8057 28.4132C69.8057 28.4132 73.6297 28.4132 73.9773 28.4132V14.2132C74.0934 8.90261 70.7328 7.05558 66.4453 7.05558Z" fill="#767676"></path>
</g>
<defs>
<clipPath id="clip0_601_39">
<rect width="136.736" height="28.9772" fill="white" transform="translate(0.626465 0.244324)"></rect>
</clipPath>
</defs>
</svg>
