<svg width="29" height="30" viewBox="0 0 29 30" fill="none" xmlns="http://www.w3.org/2000/svg">
<path d="M4.03909 0.757812C1.81128 0.757812 0 2.56909 0 4.7969V24.9923C0 27.2201 1.81128 29.0314 4.03909 29.0314H24.2345C26.4623 29.0314 28.2736 27.2201 28.2736 24.9923V4.7969C28.2736 2.56909 26.4623 0.757812 24.2345 0.757812H4.03909ZM22.7893 6.05912L16.2384 13.5441L23.9442 23.7301H17.9108L13.1901 17.5516L7.78156 23.7301H4.78379L11.7891 15.7214L4.39882 6.05912H10.5837L14.8563 11.7075L19.7915 6.05912H22.7893ZM20.4037 21.9378L9.68119 7.75679H7.89515L18.7376 21.9378H20.3974H20.4037Z" fill="#7A7A7A"></path>
</svg>
