<svg width="28" height="27" viewBox="0 0 28 27" fill="none" xmlns="http://www.w3.org/2000/svg">
<path d="M24.4106 0.0712891C25.2041 0.0712891 25.9651 0.386508 26.5262 0.947601C27.0873 1.50869 27.4025 2.2697 27.4025 3.06321V24.0066C27.4025 24.8001 27.0873 25.5611 26.5262 26.1222C25.9651 26.6833 25.2041 26.9985 24.4106 26.9985H3.46714C2.67363 26.9985 1.91263 26.6833 1.35153 26.1222C0.790439 25.5611 0.47522 24.8001 0.47522 24.0066V3.06321C0.47522 2.2697 0.790439 1.50869 1.35153 0.947601C1.91263 0.386508 2.67363 0.0712891 3.46714 0.0712891H24.4106ZM23.6626 23.2586V15.3301C23.6626 14.0367 23.1488 12.7962 22.2342 11.8816C21.3196 10.967 20.0792 10.4532 18.7858 10.4532C17.5142 10.4532 16.0332 11.2311 15.3151 12.398V10.7375H11.1414V23.2586H15.3151V15.8836C15.3151 14.7317 16.2426 13.7892 17.3945 13.7892C17.95 13.7892 18.4827 14.0099 18.8754 14.4026C19.2682 14.7954 19.4889 15.3281 19.4889 15.8836V23.2586H23.6626ZM6.27954 8.38882C6.94608 8.38882 7.58533 8.12404 8.05665 7.65272C8.52797 7.1814 8.79275 6.54215 8.79275 5.87561C8.79275 4.48437 7.67078 3.34744 6.27954 3.34744C5.60903 3.34744 4.96598 3.6138 4.49185 4.08792C4.01773 4.56205 3.75137 5.2051 3.75137 5.87561C3.75137 7.26685 4.8883 8.38882 6.27954 8.38882ZM8.35892 23.2586V10.7375H4.21512V23.2586H8.35892Z" fill="#7A7A7A"></path>
</svg>
