<svg width="28" height="28" viewBox="0 0 28 28" fill="none" xmlns="http://www.w3.org/2000/svg">
<path d="M24.4104 0.757812C25.2039 0.757813 25.9649 1.07303 26.526 1.63412C27.0871 2.19522 27.4024 2.95622 27.4024 3.74973V24.6931C27.4024 25.4867 27.0871 26.2477 26.526 26.8088C25.9649 27.3698 25.2039 27.6851 24.4104 27.6851H3.46701C2.67351 27.6851 1.9125 27.3698 1.35141 26.8088C0.790316 26.2477 0.475098 25.4867 0.475098 24.6931V3.74973C0.475098 2.95622 0.790316 2.19522 1.35141 1.63412C1.9125 1.07303 2.67351 0.757813 3.46701 0.757812H24.4104ZM23.6625 23.9452V16.0166C23.6625 14.7232 23.1486 13.4827 22.2341 12.5682C21.3195 11.6536 20.079 11.1398 18.7856 11.1398C17.5141 11.1398 16.0331 11.9177 15.315 13.0845V11.424H11.1413V23.9452H15.315V16.5701C15.315 15.4182 16.2425 14.4758 17.3944 14.4758C17.9498 14.4758 18.4825 14.6964 18.8753 15.0892C19.2681 15.4819 19.4887 16.0146 19.4887 16.5701V23.9452H23.6625ZM6.27942 9.07534C6.94596 9.07534 7.58521 8.81056 8.05653 8.33924C8.52784 7.86792 8.79263 7.22868 8.79263 6.56213C8.79263 5.17089 7.67066 4.03396 6.27942 4.03396C5.6089 4.03396 4.96585 4.30032 4.49173 4.77445C4.01761 5.24857 3.75125 5.89162 3.75125 6.56213C3.75125 7.95337 4.88818 9.07534 6.27942 9.07534ZM8.3588 23.9452V11.424H4.21499V23.9452H8.3588Z" fill="#7A7A7A"></path>
</svg>
