<svg width="29" height="30" viewBox="0 0 29 30" fill="none" xmlns="http://www.w3.org/2000/svg">
<path d="M15.7914 0.757812C17.3818 0.762053 18.189 0.770535 18.8859 0.790326L19.1601 0.800222C19.4768 0.811531 19.7892 0.825667 20.1667 0.842631C21.6708 0.913314 22.6971 1.15081 23.5976 1.49998C24.5306 1.85904 25.3166 2.34534 26.1026 3.12991C26.8217 3.83636 27.3779 4.69124 27.7325 5.63489C28.0817 6.53539 28.3192 7.56169 28.3898 9.06723C28.4068 9.44326 28.4209 9.75567 28.4323 10.0737L28.4407 10.348C28.4619 11.0435 28.4704 11.8507 28.4732 13.441L28.4747 14.4956V16.3475C28.4781 17.3786 28.4673 18.4097 28.4421 19.4406L28.4337 19.7148C28.4224 20.0329 28.4082 20.3453 28.3913 20.7213C28.3206 22.2269 28.0803 23.2518 27.7325 24.1537C27.3779 25.0973 26.8217 25.9522 26.1026 26.6586C25.3961 27.3778 24.5412 27.934 23.5976 28.2886C22.6971 28.6377 21.6708 28.8752 20.1667 28.9459L19.1601 28.9883L18.8859 28.9968C18.189 29.0166 17.3818 29.0265 15.7914 29.0293L14.7368 29.0307H12.8864C11.8548 29.0344 10.8232 29.0235 9.79191 28.9982L9.51766 28.9897C9.18208 28.977 8.84657 28.9624 8.51115 28.9459C7.00703 28.8752 5.98072 28.6377 5.07881 28.2886C4.13567 27.9338 3.28128 27.3776 2.57524 26.6586C1.85562 25.9523 1.29888 25.0974 0.943896 24.1537C0.594726 23.2532 0.357233 22.2269 0.286551 20.7213L0.244141 19.7148L0.237073 19.4406C0.211014 18.4098 0.199232 17.3786 0.201732 16.3475V13.441C0.197819 12.4099 0.208187 11.3788 0.232832 10.348L0.242728 10.0737C0.254037 9.75567 0.268173 9.44326 0.285137 9.06723C0.355819 7.56169 0.593312 6.5368 0.942482 5.63489C1.29829 4.69086 1.85601 3.83594 2.57666 3.12991C3.28228 2.41114 4.13618 1.85491 5.07881 1.49998C5.98072 1.15081 7.00561 0.913314 8.51115 0.842631C8.88718 0.825667 9.20101 0.811531 9.51766 0.800222L9.79191 0.79174C10.8227 0.766623 11.8538 0.755784 12.885 0.759226L15.7914 0.757812ZM14.3382 7.82605C12.4636 7.82605 10.6658 8.57073 9.3402 9.89628C8.01465 11.2218 7.26996 13.0197 7.26996 14.8943C7.26996 16.7689 8.01465 18.5667 9.3402 19.8923C10.6658 21.2178 12.4636 21.9625 14.3382 21.9625C16.2128 21.9625 18.0106 21.2178 19.3362 19.8923C20.6617 18.5667 21.4064 16.7689 21.4064 14.8943C21.4064 13.0197 20.6617 11.2218 19.3362 9.89628C18.0106 8.57073 16.2128 7.82605 14.3382 7.82605ZM14.3382 10.6533C14.8951 10.6532 15.4466 10.7628 15.9612 10.9759C16.4758 11.1889 16.9433 11.5012 17.3372 11.895C17.7311 12.2887 18.0435 12.7562 18.2567 13.2707C18.47 13.7852 18.5797 14.3366 18.5798 14.8936C18.5799 15.4505 18.4703 16.002 18.2573 16.5166C18.0442 17.0311 17.7319 17.4987 17.3382 17.8926C16.9445 18.2864 16.477 18.5989 15.9625 18.8121C15.448 19.0253 14.8965 19.1351 14.3396 19.1352C13.2148 19.1352 12.1361 18.6884 11.3408 17.8931C10.5455 17.0977 10.0987 16.019 10.0987 14.8943C10.0987 13.7695 10.5455 12.6908 11.3408 11.8955C12.1361 11.1001 13.2148 10.6533 14.3396 10.6533M21.7613 5.70557C21.2926 5.70557 20.8431 5.89175 20.5118 6.22313C20.1804 6.55452 19.9942 7.00398 19.9942 7.47263C19.9942 7.94129 20.1804 8.39074 20.5118 8.72213C20.8431 9.05352 21.2926 9.23969 21.7613 9.23969C22.2299 9.23969 22.6794 9.05352 23.0108 8.72213C23.3421 8.39074 23.5283 7.94129 23.5283 7.47263C23.5283 7.00398 23.3421 6.55452 23.0108 6.22313C22.6794 5.89175 22.2299 5.70557 21.7613 5.70557Z" fill="#7A7A7A"></path>
</svg>
